STARTFONT 2.1
COMMENT $Xorg: $
COMMENT ISO10646-1 extension by Markus Kuhn <mkuhn@acm.org>, 2001-03-20
COMMENT  (c) Copyright Bigelow & Holmes 1986, 1985. Lucida is a registered
COMMENT  trademark of Bigelow & Holmes. See LEGAL NOTICE file for terms 
COMMENT  of the license. 
FONT -B&H-LucidaBright-Medium-I-Normal--34-240-100-100-P-194-ISO10646-1
SIZE 24 100 100
FONTBOUNDINGBOX 57 54 -19 -16
STARTPROPERTIES 22
COMMENT Begin LogicalFontDescription
FONTNAME_REGISTRY ""
FOUNDRY "B&H"
FAMILY_NAME "LucidaBright"
WEIGHT_NAME "Medium"
SLANT "I"
SETWIDTH_NAME "Normal"
ADD_STYLE_NAME ""
PIXEL_SIZE 34
POINT_SIZE 240
RESOLUTION_X 100
RESOLUTION_Y 100
SPACING "P"
AVERAGE_WIDTH 194
CHARSET_REGISTRY "ISO10646"
CHARSET_ENCODING "1"
COMMENT END LogicalFontDescription
FONT_ASCENT 31
FONT_DESCENT 8
DEFAULT_CHAR 0
COPYRIGHT "Copyright Bigelow & Holmes 1986, 1985."
FACE_NAME "Lucida Bright Italic"
X_HEIGHT 18
CAP_HEIGHT 25
ENDPROPERTIES
CHARS 723
STARTCHAR char0
ENCODING 0
SWIDTH 776 0
DWIDTH 26 0
BBX 29 25 1 0
BITMAP
AAAAAAA8
00000000
80000008
00000000
80000008
00000000
80000008
00000000
80000008
00000000
80000008
00000000
80000008
00000000
80000008
00000000
80000008
00000000
80000008
00000000
80000008
00000000
80000008
00000000
AAAAAAA8
ENDCHAR
STARTCHAR space
ENCODING 32
SWIDTH 333 0
DWIDTH 10 0
BBX 1 1 0 0
BITMAP
00
ENDCHAR
STARTCHAR exclam
ENCODING 33
SWIDTH 265 0
DWIDTH 9 0
BBX 8 25 3 0
BITMAP
07
0F
0F
0E
0E
0E
0E
0C
1C
1C
1C
18
18
18
10
10
10
30
00
00
00
00
70
F0
E0
ENDCHAR
STARTCHAR quotedbl
ENCODING 34
SWIDTH 377 0
DWIDTH 13 0
BBX 9 9 7 17
BITMAP
E780
E300
E300
E300
6300
6300
6300
4300
4300
ENDCHAR
STARTCHAR numbersign
ENCODING 35
SWIDTH 608 0
DWIDTH 21 0
BBX 21 25 2 0
BITMAP
000C18
001830
001820
001060
003060
0030C0
0060C0
006180
3FFFF8
008300
018300
018600
030600
030C00
060C00
060800
FFFFE0
0C3000
183000
186000
306000
304000
20C000
60C000
E18000
ENDCHAR
STARTCHAR dollar
ENCODING 36
SWIDTH 608 0
DWIDTH 21 0
BBX 18 30 4 -3
BITMAP
001000
001000
01FF00
03A3C0
0720C0
0E2080
0C2180
1C2000
1C4000
1C4000
1E4000
0F4000
0FC000
03C000
01E000
00F800
00BC00
009C00
011E00
010E00
010E00
010C00
430C00
421C00
C23800
F27000
7FC000
060000
040000
040000
ENDCHAR
STARTCHAR percent
ENCODING 37
SWIDTH 759 0
DWIDTH 26 0
BBX 25 25 3 0
BITMAP
03C00380
0E200600
1C300E00
18301C00
38301800
38303000
30306000
3030C000
30718000
30630000
30E60000
19CC0000
0F1C0000
0038F800
00718C00
00630600
00C70600
01860600
03060600
060E0600
0C0E0E00
180E0C00
38061C00
70073800
E001E000
ENDCHAR
STARTCHAR ampersand
ENCODING 38
SWIDTH 727 0
DWIDTH 25 0
BBX 25 25 2 0
BITMAP
000F8000
0038C000
0070E000
00E06000
00E06000
01E0E000
00E0E000
00E1C000
00E38000
00E70000
01FC0000
07700000
1C707F80
38781E00
70381C00
703C1800
F01C1800
F01E1000
F00E3000
F00F2000
F0074000
70078000
7803C000
1E0FE000
0FF1FC00
ENDCHAR
STARTCHAR quotesingle
ENCODING 39
SWIDTH 231 0
DWIDTH 8 0
BBX 4 10 6 16
BITMAP
F0
F0
F0
70
60
60
60
60
60
20
ENDCHAR
STARTCHAR parenleft
ENCODING 40
SWIDTH 310 0
DWIDTH 11 0
BBX 12 32 3 -6
BITMAP
0010
0060
0080
0100
0300
0600
0600
0C00
1C00
1800
3800
3800
7000
7000
7000
F000
E000
E000
E000
E000
E000
E000
E000
E000
E000
6000
6000
6000
2000
1000
1800
0800
ENDCHAR
STARTCHAR parenright
ENCODING 41
SWIDTH 310 0
DWIDTH 11 0
BBX 11 32 0 -6
BITMAP
0200
0300
0100
0080
00C0
00C0
00C0
00E0
00E0
00E0
00E0
00E0
00E0
00E0
00E0
00E0
01E0
01C0
01C0
01C0
0380
0380
0300
0700
0600
0600
0C00
1800
1000
2000
4000
8000
ENDCHAR
STARTCHAR asterisk
ENCODING 42
SWIDTH 458 0
DWIDTH 16 0
BBX 13 12 5 13
BITMAP
0380
0300
0300
4308
7238
FDF8
0400
0F00
1980
7180
71C0
2100
ENDCHAR
STARTCHAR plus
ENCODING 43
SWIDTH 608 0
DWIDTH 21 0
BBX 20 21 2 0
BITMAP
001800
001800
001000
003000
003000
003000
003000
003000
002000
006000
FFFFF0
006000
004000
00C000
00C000
00C000
00C000
00C000
008000
018000
018000
ENDCHAR
STARTCHAR comma
ENCODING 44
SWIDTH 265 0
DWIDTH 9 0
BBX 6 12 1 -7
BITMAP
3C
3C
7C
78
78
18
38
38
30
30
60
C0
ENDCHAR
STARTCHAR hyphen
ENCODING 45
SWIDTH 313 0
DWIDTH 11 0
BBX 8 2 3 10
BITMAP
FF
FF
ENDCHAR
STARTCHAR period
ENCODING 46
SWIDTH 265 0
DWIDTH 9 0
BBX 5 4 2 0
BITMAP
78
78
F0
F0
ENDCHAR
STARTCHAR slash
ENCODING 47
SWIDTH 458 0
DWIDTH 16 0
BBX 22 32 0 -6
BITMAP
00000C
000018
000030
000030
000060
0000E0
0000C0
000180
000180
000300
000600
000600
000C00
001C00
001800
003000
003000
006000
00E000
00C000
018000
018000
030000
060000
060000
0C0000
1C0000
180000
300000
300000
600000
C00000
ENDCHAR
STARTCHAR zero
ENCODING 48
SWIDTH 608 0
DWIDTH 21 0
BBX 18 25 4 0
BITMAP
007C00
018700
030380
060380
0C01C0
1C01C0
1801C0
3801C0
3801C0
7001C0
7001C0
7001C0
F001C0
F003C0
E00380
E00380
E00380
E00700
E00700
E00E00
700C00
701C00
303800
186000
0FC000
ENDCHAR
STARTCHAR one
ENCODING 49
SWIDTH 608 0
DWIDTH 21 0
BBX 13 25 4 0
BITMAP
07F8
0078
0078
0070
0070
0070
00F0
00F0
00E0
00E0
00E0
01E0
01E0
01C0
01C0
01C0
03C0
03C0
0380
0380
0380
0780
0780
0F80
FFF8
ENDCHAR
STARTCHAR two
ENCODING 50
SWIDTH 608 0
DWIDTH 21 0
BBX 19 25 3 0
BITMAP
00FE00
070780
0601C0
0601E0
0C01E0
0001E0
0001E0
0001E0
0001C0
0003C0
000780
000700
001C00
003800
006000
00C000
038000
060000
0C0000
180000
380000
700000
700000
FFFF00
FFFE00
ENDCHAR
STARTCHAR three
ENCODING 51
SWIDTH 608 0
DWIDTH 21 0
BBX 17 25 4 0
BITMAP
03FC00
070F00
060780
040380
0C0380
000380
000380
000380
000700
000E00
003800
07E000
003800
001E00
000E00
000F00
000F00
000F00
000F00
000E00
401E00
401C00
C03800
E0F000
7F8000
ENDCHAR
STARTCHAR four
ENCODING 52
SWIDTH 608 0
DWIDTH 21 0
BBX 18 25 2 0
BITMAP
0000C0
000180
000380
000780
000B80
001380
002700
004700
008700
010700
020700
040E00
0C0E00
180E00
300E00
600E00
FFFFC0
FFFF80
001C00
001C00
001C00
003800
003800
007800
03FF00
ENDCHAR
STARTCHAR five
ENCODING 53
SWIDTH 608 0
DWIDTH 21 0
BBX 18 25 4 0
BITMAP
07FFC0
07FFC0
040000
080000
080000
080000
080000
080000
180000
1FC000
007800
003C00
001E00
000E00
000E00
000F00
000E00
000E00
000E00
001E00
401C00
403800
C07000
E0E000
7F8000
ENDCHAR
STARTCHAR six
ENCODING 54
SWIDTH 608 0
DWIDTH 21 0
BBX 18 25 4 0
BITMAP
003F00
00C1C0
0380C0
0700C0
0E00C0
1C0000
1C0000
3C0000
380000
79F800
7E1E00
7C0700
F80700
F00780
F00780
E00780
E00780
E00700
E00700
E00F00
700E00
701C00
303800
1C7000
0FC000
ENDCHAR
STARTCHAR seven
ENCODING 55
SWIDTH 608 0
DWIDTH 21 0
BBX 19 25 5 0
BITMAP
1FFFE0
1FFFE0
0000C0
000180
000100
000200
000600
000C00
001800
003000
006000
004000
00C000
018000
030000
070000
060000
0E0000
1C0000
3C0000
380000
780000
780000
F00000
F00000
ENDCHAR
STARTCHAR eight
ENCODING 56
SWIDTH 608 0
DWIDTH 21 0
BBX 17 25 4 0
BITMAP
00FC00
038700
070380
0E0380
0E0180
1C0180
1C0380
1E0380
1E0700
0F8C00
07D800
03F000
07F800
187C00
383E00
701F00
700F00
E00F00
E00F00
E00F00
E00E00
F00E00
701C00
387000
0FC000
ENDCHAR
STARTCHAR nine
ENCODING 57
SWIDTH 608 0
DWIDTH 21 0
BBX 18 25 4 0
BITMAP
007C00
018700
070380
0E0380
1C01C0
1C01C0
3C01C0
3801C0
3801C0
3801C0
3801C0
3803C0
3803C0
1C07C0
0E1B80
07E780
000780
000700
000F00
000E00
401C00
C01800
C03000
F0E000
3F8000
ENDCHAR
STARTCHAR colon
ENCODING 58
SWIDTH 265 0
DWIDTH 9 0
BBX 8 18 2 0
BITMAP
0F
1F
1E
1E
00
00
00
00
00
00
00
00
00
00
78
78
F8
F0
ENDCHAR
STARTCHAR semicolon
ENCODING 59
SWIDTH 265 0
DWIDTH 9 0
BBX 9 25 1 -7
BITMAP
0780
0780
0F00
0F00
0000
0000
0000
0000
0000
0000
0000
0000
0000
0000
0000
0000
3C00
7C00
1C00
3800
3800
3800
3000
7000
E000
ENDCHAR
STARTCHAR less
ENCODING 60
SWIDTH 608 0
DWIDTH 21 0
BBX 22 21 2 0
BITMAP
000004
00001C
000078
0001E0
000780
001C00
007000
03C000
0F0000
3C0000
F00000
3C0000
0E0000
078000
01E000
007800
003C00
000F00
0003C0
0000C0
000040
ENDCHAR
STARTCHAR equal
ENCODING 61
SWIDTH 608 0
DWIDTH 21 0
BBX 21 9 2 5
BITMAP
7FFFF8
000000
000000
000000
000000
000000
000000
000000
FFFFF0
ENDCHAR
STARTCHAR greater
ENCODING 62
SWIDTH 608 0
DWIDTH 21 0
BBX 22 21 0 0
BITMAP
080000
0C0000
0F0000
03C000
00F000
007800
001E00
000780
0001C0
0000F0
00003C
0000F0
0003C0
000F00
003800
00E000
038000
1E0000
780000
E00000
800000
ENDCHAR
STARTCHAR question
ENCODING 63
SWIDTH 471 0
DWIDTH 16 0
BBX 13 25 5 0
BITMAP
1FC0
70F0
6078
4038
C038
0038
0038
0078
0070
00C0
0180
0300
0600
0C00
1800
3800
3800
7800
0000
0000
0000
0000
7000
F000
E000
ENDCHAR
STARTCHAR at
ENCODING 64
SWIDTH 861 0
DWIDTH 29 0
BBX 26 25 4 0
BITMAP
000FE000
00701C00
01800600
03000100
04000080
080000C0
100FF040
3010E040
2060E040
40C0E040
4080E040
C180C040
8181C040
8383C040
8382C080
8305C180
838D8300
8399C600
41E0F800
40000000
20000000
30000000
18000000
06010000
01FE0000
ENDCHAR
STARTCHAR A
ENCODING 65
SWIDTH 747 0
DWIDTH 25 0
BBX 25 25 0 0
BITMAP
00004000
0000C000
0000E000
0001E000
0002E000
0002E000
0004E000
0004F000
0008F000
0010F000
00107000
00207000
00607800
00407800
00807800
00807800
01FFF800
03003800
02003C00
06003C00
04003C00
08001C00
18001E00
38001E00
FE00FF80
ENDCHAR
STARTCHAR B
ENCODING 66
SWIDTH 606 0
DWIDTH 21 0
BBX 21 25 1 0
BITMAP
07FFC0
01E1F0
01E078
01E078
01E078
01C078
01C078
01C070
03C070
03C0E0
03C1C0
038700
03FE00
078780
0781C0
0700E0
0700F0
0700F0
0F00F0
0F00E0
0E00E0
0E01E0
1E03C0
3E0F80
FFFC00
ENDCHAR
STARTCHAR C
ENCODING 67
SWIDTH 714 0
DWIDTH 24 0
BBX 23 25 4 0
BITMAP
000FF8
00783E
01E00E
03800C
07000C
0E000C
1E0000
3C0000
3C0000
780000
780000
700000
F00000
F00000
F00000
F00000
F00000
F00000
F00000
700000
780000
380000
3C0060
0F03C0
03FC00
ENDCHAR
STARTCHAR D
ENCODING 68
SWIDTH 770 0
DWIDTH 26 0
BBX 26 25 1 0
BITMAP
07FFF800
01E03E00
01E00F00
01E00780
01C00380
01C003C0
01C003C0
03C003C0
03C003C0
038003C0
038003C0
038003C0
078003C0
07800380
07800380
07000780
07000700
0F000F00
0F000E00
0F001E00
0E003C00
0E007800
1E00F000
3F03C000
FFFE0000
ENDCHAR
STARTCHAR E
ENCODING 69
SWIDTH 569 0
DWIDTH 19 0
BBX 22 25 1 0
BITMAP
07FFFC
00E00C
00E018
01E018
01E000
01E000
01C000
01C000
01C000
03C000
03C040
03C0C0
03FFC0
078080
078080
078000
070000
070000
0F0000
0F0000
0F0000
0E0060
1E0060
3F00C0
FFFFC0
ENDCHAR
STARTCHAR F
ENCODING 70
SWIDTH 551 0
DWIDTH 19 0
BBX 22 25 1 0
BITMAP
07FFFC
00E00C
00E018
01E018
01E000
01E000
01C000
01C000
03C000
03C000
03C040
03C0C0
03FF80
078080
078080
078000
070000
070000
0F0000
0F0000
0F0000
0E0000
1E0000
3F0000
FFE000
ENDCHAR
STARTCHAR G
ENCODING 71
SWIDTH 756 0
DWIDTH 26 0
BBX 23 25 4 0
BITMAP
001FF8
00701E
01E00C
03800C
07000C
0E0000
1E0000
3C0000
3C0000
780000
780000
700000
F00000
F00000
F007FE
F000F0
F000F0
F000E0
F000E0
7001E0
7801E0
7801E0
3C01C0
0F0380
03FC00
ENDCHAR
STARTCHAR H
ENCODING 72
SWIDTH 776 0
DWIDTH 26 0
BBX 30 25 1 0
BITMAP
07FE0FFC
01F001F0
01E001E0
01E001C0
01E001C0
01C003C0
01C003C0
01C00380
03C00380
03C00380
03C00780
03800780
03FFFF00
07800700
07800700
07800F00
07000F00
07000E00
0F000E00
0F000E00
0F001E00
0E001E00
1E001E00
3E003E00
FFC1FF80
ENDCHAR
STARTCHAR I
ENCODING 73
SWIDTH 325 0
DWIDTH 11 0
BBX 15 25 1 0
BITMAP
07FE
00F8
00F0
00E0
01E0
01E0
01C0
01C0
01C0
03C0
03C0
0380
0380
0380
0780
0780
0700
0700
0F00
0F00
0F00
0E00
1E00
3E00
FFC0
ENDCHAR
STARTCHAR J
ENCODING 74
SWIDTH 422 0
DWIDTH 14 0
BBX 19 31 0 -6
BITMAP
007FE0
000F80
000F00
000E00
000E00
001E00
001E00
001E00
001C00
001C00
001C00
003C00
003C00
003C00
003800
003800
007800
007800
007800
007000
007000
007000
00F000
00F000
00E000
00E000
60C000
61C000
E18000
E30000
FC0000
ENDCHAR
STARTCHAR K
ENCODING 75
SWIDTH 698 0
DWIDTH 24 0
BBX 26 25 1 0
BITMAP
07FE1FC0
01F00700
01E00C00
01E01800
01E03000
01C06000
01C08000
01C10000
03C20000
03CC0000
03980000
03B80000
03F80000
07BC0000
079E0000
079E0000
070F0000
07078000
0F078000
0F03C000
0F01E000
0E01E000
1E00F000
3E00F800
FFC3FE00
ENDCHAR
STARTCHAR L
ENCODING 76
SWIDTH 572 0
DWIDTH 19 0
BBX 19 25 1 0
BITMAP
07FE00
01F000
01E000
01E000
01E000
01C000
01C000
01C000
03C000
03C000
038000
038000
038000
078000
078000
070000
070000
070000
0F0000
0F0000
0F0000
0E0060
1E0060
3E00C0
FFFFC0
ENDCHAR
STARTCHAR M
ENCODING 77
SWIDTH 865 0
DWIDTH 29 0
BBX 33 25 1 0
BITMAP
07E0003F80
00F0003E00
00F0007C00
01F000F800
01F000B800
01F8013800
01F8017800
0138027000
0338067000
033C047000
033C087000
031C08F000
021C10E000
061E30E000
061E20E000
060E40E000
060EC1E000
040E81C000
0C0F81C000
0C0701C000
0C0601C000
0C0603C000
1C0003C000
3C0007C000
FF001FF000
ENDCHAR
STARTCHAR N
ENCODING 78
SWIDTH 762 0
DWIDTH 26 0
BBX 29 25 1 0
BITMAP
07C003F8
01E000E0
01E000C0
01F000C0
01F80080
01780080
013C0080
033C0180
031E0180
031E0100
020F0100
02070100
06078300
06038300
0603C200
0601E200
0401E200
0400F600
0C00F600
0C007E00
0C003C00
08003C00
18001C00
38001C00
FF000C00
ENDCHAR
STARTCHAR O
ENCODING 79
SWIDTH 783 0
DWIDTH 27 0
BBX 24 25 4 0
BITMAP
001FC0
007070
01C03C
03801C
07000E
0E000E
1C000F
3C000F
38000F
78000F
78000F
70000F
F0000F
F0000E
F0001E
F0001E
F0001C
F0003C
F00038
F00070
7000E0
7801C0
3C0380
0E0E00
03F800
ENDCHAR
STARTCHAR P
ENCODING 80
SWIDTH 579 0
DWIDTH 20 0
BBX 22 25 1 0
BITMAP
07FFE0
01E078
01E038
01E03C
01E03C
01C03C
01C03C
01C03C
03C038
03C078
038070
0380F0
0381C0
078780
07FC00
078000
070000
070000
0F0000
0F0000
0F0000
0E0000
1E0000
3E0000
FFC000
ENDCHAR
STARTCHAR Q
ENCODING 81
SWIDTH 788 0
DWIDTH 27 0
BBX 27 32 4 -7
BITMAP
001FC000
00707000
01C03800
03801C00
07001E00
0E000E00
1C000E00
3C000F00
38000F00
78000F00
70000F00
70000F00
F0000E00
F0000E00
F0001E00
F0001E00
F0001C00
F0003C00
F0003800
F0007800
7000F000
7801E000
3C03E000
1E0F8000
03FF0000
000C0000
00080000
00060000
00010000
0000E020
00003FC0
00000F80
ENDCHAR
STARTCHAR R
ENCODING 82
SWIDTH 686 0
DWIDTH 23 0
BBX 23 25 1 0
BITMAP
07FFE0
00E0F8
00E03C
00E03C
01E01C
01E03C
01C03C
01C03C
01C038
03C078
03C0F0
0383C0
03FF00
078F00
078F00
078780
070780
0703C0
0F03C0
0F01E0
0F01E0
0E00F0
1E00F0
3E0078
FFC07E
ENDCHAR
STARTCHAR S
ENCODING 83
SWIDTH 549 0
DWIDTH 19 0
BBX 20 25 2 0
BITMAP
007F80
01C1F0
038060
070060
070060
0F00E0
0F0000
0F0000
0F0000
078000
03C000
01F000
00F800
007C00
003E00
001F00
000F00
000F00
000F00
600F00
600E00
E00E00
E01C00
F03800
1FC000
ENDCHAR
STARTCHAR T
ENCODING 84
SWIDTH 663 0
DWIDTH 23 0
BBX 22 25 5 0
BITMAP
7FFFFC
60780C
C07808
C07018
007000
007000
00F000
00F000
00E000
00E000
00E000
01E000
01E000
01E000
01C000
01C000
03C000
03C000
03C000
038000
038000
078000
078000
0F8000
7FF000
ENDCHAR
STARTCHAR U
ENCODING 85
SWIDTH 727 0
DWIDTH 25 0
BBX 24 25 5 0
BITMAP
FFC0FF
1F001C
1E0018
1C0010
1C0030
3C0030
3C0030
380020
380020
380060
780060
780060
700040
700040
7000C0
F000C0
F000C0
E00080
E00180
E00180
F00300
700200
780600
3C1800
0FE000
ENDCHAR
STARTCHAR V
ENCODING 86
SWIDTH 656 0
DWIDTH 22 0
BBX 24 25 4 0
BITMAP
FF803F
3C000C
3C0008
3C0010
1C0010
1C0020
1C0020
1E0040
1E00C0
1E0080
0E0100
0E0100
0F0200
0F0600
0F0400
070800
070800
071000
07B000
07A000
03C000
03C000
038000
038000
030000
ENDCHAR
STARTCHAR W
ENCODING 87
SWIDTH 878 0
DWIDTH 30 0
BBX 31 25 4 0
BITMAP
FF8180FE
3C018018
3C038030
3C038020
3C078020
3C078040
3C0FC040
3C0BC080
1C1BC080
1C13C100
1C11C100
1C21C200
1C21C200
1C41C400
1C41C400
1C81C800
1C81C800
1D01D000
1D01D000
1E01E000
1E01E000
1C01C000
1C01C000
18018000
18008000
ENDCHAR
STARTCHAR X
ENCODING 88
SWIDTH 624 0
DWIDTH 21 0
BBX 27 25 0 0
BITMAP
03FE0FE0
01F00380
00F00200
00780400
00780800
00381800
003C1000
003C2000
001E4000
001E8000
000F0000
000F0000
000F0000
000F8000
00178000
0033C000
0063C000
00C1C000
0181E000
0101E000
0200F000
0400F000
0C007800
38007800
FE03FE00
ENDCHAR
STARTCHAR Y
ENCODING 89
SWIDTH 663 0
DWIDTH 23 0
BBX 23 25 4 0
BITMAP
FF80FE
3E0038
3E0030
1E0060
1E0040
0F0080
0F0100
070200
078600
078400
038800
03D000
01E000
01E000
01C000
01C000
01C000
03C000
03C000
038000
038000
078000
078000
0F8000
3FF000
ENDCHAR
STARTCHAR Z
ENCODING 90
SWIDTH 633 0
DWIDTH 21 0
BBX 22 25 2 0
BITMAP
07FFFC
070038
060078
0600F0
0E01E0
0001C0
000380
000780
000F00
001E00
001C00
003C00
007800
00F000
01E000
01E000
03C000
078000
0F0000
0E0000
1E0000
3C0060
7800C0
F001C0
FFFFC0
ENDCHAR
STARTCHAR bracketleft
ENCODING 91
SWIDTH 310 0
DWIDTH 11 0
BBX 13 32 1 -6
BITMAP
03F8
0380
0380
0380
0700
0700
0700
0700
0700
0E00
0E00
0E00
0E00
0E00
1C00
1C00
1C00
1C00
1C00
3800
3800
3800
3800
3800
7000
7000
7000
7000
7000
E000
E000
FE00
ENDCHAR
STARTCHAR backslash
ENCODING 92
SWIDTH 458 0
DWIDTH 16 0
BBX 9 32 5 -6
BITMAP
C000
C000
4000
6000
6000
6000
6000
2000
3000
3000
3000
1000
1800
1800
1800
1800
0C00
0C00
0C00
0C00
0400
0600
0600
0600
0600
0300
0300
0300
0300
0100
0180
0180
ENDCHAR
STARTCHAR bracketright
ENCODING 93
SWIDTH 310 0
DWIDTH 11 0
BBX 13 32 0 -6
BITMAP
03F8
0038
0038
0070
0070
0070
0070
0070
00E0
00E0
00E0
00E0
00E0
01C0
01C0
01C0
01C0
01C0
0380
0380
0380
0380
0380
0700
0700
0700
0700
0700
0E00
0E00
0E00
FE00
ENDCHAR
STARTCHAR asciicircum
ENCODING 94
SWIDTH 608 0
DWIDTH 21 0
BBX 19 20 1 4
BITMAP
000400
000C00
000C00
001A00
003200
003200
006300
00C100
00C100
018100
030080
030080
060080
0C00C0
0C0040
180040
300040
300020
600020
E00020
ENDCHAR
STARTCHAR underscore
ENCODING 95
SWIDTH 500 0
DWIDTH 17 0
BBX 14 2 2 -3
BITMAP
FFFC
FFFC
ENDCHAR
STARTCHAR grave
ENCODING 96
SWIDTH 560 0
DWIDTH 19 0
BBX 6 5 11 21
BITMAP
F0
70
38
18
0C
ENDCHAR
STARTCHAR a
ENCODING 97
SWIDTH 608 0
DWIDTH 21 0
BBX 18 18 3 0
BITMAP
00FFC0
0107C0
0203C0
040380
0C0380
180380
380780
380780
700700
700F00
F01F00
F01F00
F02F00
F06E00
F0CE00
F18E00
7F0E00
3C1FC0
ENDCHAR
STARTCHAR b
ENCODING 98
SWIDTH 596 0
DWIDTH 20 0
BBX 18 26 3 0
BITMAP
3F0000
070000
070000
0F0000
0F0000
0E0000
0E0000
0E0000
0E0F00
1E1F80
1C63C0
1CC3C0
1C83C0
1D03C0
3E03C0
3A03C0
3C0380
380380
380700
780700
700600
700C00
700800
701000
F82000
FFC000
ENDCHAR
STARTCHAR c
ENCODING 99
SWIDTH 487 0
DWIDTH 17 0
BBX 15 18 3 0
BITMAP
00FE
030E
0406
0C06
1806
3800
7000
7000
7000
F000
F000
F000
F000
F000
F000
7008
3830
1FC0
ENDCHAR
STARTCHAR d
ENCODING 100
SWIDTH 608 0
DWIDTH 21 0
BBX 20 26 3 0
BITMAP
0007F0
0000F0
0000E0
0000E0
0000E0
0000E0
0001E0
0001C0
00FFC0
0103C0
0201C0
0403C0
0C0380
180380
380380
380380
700780
700F00
F00F00
F01700
F03700
F06F00
F0CE00
F18E00
7F0E00
3C1FC0
ENDCHAR
STARTCHAR e
ENCODING 101
SWIDTH 518 0
DWIDTH 18 0
BBX 15 18 3 0
BITMAP
00F8
031C
041E
0C0E
181E
381C
701C
7038
7070
F1E0
FF00
E000
E000
F000
F006
700C
3C30
1FC0
ENDCHAR
STARTCHAR f
ENCODING 102
SWIDTH 380 0
DWIDTH 13 0
BBX 17 34 2 -7
BITMAP
001F80
006180
00C180
01C100
018300
038000
038000
078000
070000
3FF800
070000
0F0000
0E0000
0E0000
0E0000
0E0000
1E0000
1C0000
1C0000
1C0000
1C0000
3C0000
3C0000
380000
380000
380000
780000
780000
700000
700000
700000
F00000
F00000
E00000
ENDCHAR
STARTCHAR g
ENCODING 103
SWIDTH 602 0
DWIDTH 20 0
BBX 19 25 2 -7
BITMAP
007FE0
0083E0
0101E0
0201C0
0601C0
0E01C0
0C01C0
1C03C0
3C0380
380780
380F80
780B80
781F80
783700
786700
38C700
3F8700
1E0E00
000E00
000E00
800C00
C01C00
601800
7C2000
3FC000
ENDCHAR
STARTCHAR h
ENCODING 104
SWIDTH 631 0
DWIDTH 21 0
BBX 18 26 3 0
BITMAP
3F0000
070000
070000
0F0000
0F0000
0E0000
0E0000
0E0000
1E0F00
1E1F80
1C73C0
1CC3C0
1D8380
3D0380
3E0380
3E0380
3C0780
380700
780700
780700
700700
700F00
700E00
F00E00
F00E00
E01FC0
ENDCHAR
STARTCHAR i
ENCODING 105
SWIDTH 289 0
DWIDTH 10 0
BBX 8 25 4 0
BITMAP
07
0F
0E
00
00
00
00
FE
1C
1C
1C
1C
3C
38
38
38
38
78
70
70
70
70
F0
F0
FC
ENDCHAR
STARTCHAR j
ENCODING 106
SWIDTH 343 0
DWIDTH 12 0
BBX 17 32 -2 -7
BITMAP
000380
000780
000700
000000
000000
000000
000000
007F00
000E00
000E00
000E00
001E00
001E00
001C00
001C00
001C00
003C00
003C00
003800
003800
003800
007800
007800
007000
007000
00F000
00E000
40E000
40C000
C18000
E30000
FC0000
ENDCHAR
STARTCHAR k
ENCODING 107
SWIDTH 560 0
DWIDTH 19 0
BBX 17 26 3 0
BITMAP
3F0000
070000
070000
0F0000
0F0000
0E0000
0E0000
0E0000
1E0780
1E0700
1C0700
1C0E00
1C1C00
3C3000
3CC000
390000
3F8000
3B8000
7BC000
79E000
71E000
70F000
707800
F07C00
F03E00
E01F80
ENDCHAR
STARTCHAR l
ENCODING 108
SWIDTH 289 0
DWIDTH 10 0
BBX 9 26 3 0
BITMAP
3F80
0780
0700
0700
0700
0F00
0F00
0E00
0E00
1E00
1E00
1E00
1C00
1C00
3C00
3C00
3C00
3800
3800
7800
7800
7000
7000
7000
F000
FE00
ENDCHAR
STARTCHAR m
ENCODING 109
SWIDTH 944 0
DWIDTH 32 0
BBX 29 18 3 0
BITMAP
FE0F01E0
1E1F83F0
1C738E70
1CC39C78
1D839870
1D03B070
3F03E070
3E07C070
3C0780F0
380780E0
380700E0
780700E0
700F01E0
700E01E0
700E01C0
700E01C0
F01E01C0
E01E03F8
ENDCHAR
STARTCHAR n
ENCODING 110
SWIDTH 631 0
DWIDTH 21 0
BBX 18 18 3 0
BITMAP
FE0F00
1E1F80
1C73C0
1CC3C0
1D8380
3D0380
3E0380
3E0380
3C0780
380700
780700
780700
700700
700F00
700E00
F00E00
F00E00
E01FC0
ENDCHAR
STARTCHAR o
ENCODING 111
SWIDTH 560 0
DWIDTH 19 0
BBX 17 18 3 0
BITMAP
00FC00
030E00
0E0700
1C0700
1C0780
380780
780780
700780
700780
F00700
F00700
F00F00
F00E00
F01C00
F01800
703000
78E000
1F8000
ENDCHAR
STARTCHAR p
ENCODING 112
SWIDTH 608 0
DWIDTH 21 0
BBX 20 25 2 -7
BITMAP
3F03C0
0F0FE0
0F18F0
0F30F0
0F60F0
0EC0F0
0E80F0
0F00F0
1E00E0
1E00E0
1C01C0
1C01C0
1C0180
3C0300
380200
380400
3C0800
3FF000
780000
700000
700000
700000
700000
F00000
E00000
ENDCHAR
STARTCHAR q
ENCODING 113
SWIDTH 599 0
DWIDTH 20 0
BBX 18 25 3 -7
BITMAP
00FFC0
0107C0
0203C0
040380
0C0380
180380
380380
380780
700700
700F00
F01F00
F01700
F02F00
F06E00
F0CE00
F18E00
7F0E00
3C1E00
001C00
001C00
001C00
001C00
003C00
003800
003800
ENDCHAR
STARTCHAR r
ENCODING 114
SWIDTH 470 0
DWIDTH 16 0
BBX 15 18 4 0
BITMAP
FE0E
1C1C
1C7C
1CF8
1CC0
3D00
3A00
3C00
3C00
3800
7800
7800
7000
7000
7000
F000
F000
E000
ENDCHAR
STARTCHAR s
ENCODING 115
SWIDTH 440 0
DWIDTH 15 0
BBX 14 18 2 0
BITMAP
03F8
061C
0C0C
1C0C
1C08
1E00
0F00
0F80
07C0
03E0
01E0
00F0
0070
4070
C070
C070
F0E0
3F80
ENDCHAR
STARTCHAR t
ENCODING 116
SWIDTH 355 0
DWIDTH 12 0
BBX 11 23 4 0
BITMAP
0200
0E00
1E00
1E00
1C00
FFE0
1C00
1C00
3C00
3800
3800
3800
7800
7800
7000
7000
7000
F000
F000
F000
7000
7000
3E00
ENDCHAR
STARTCHAR u
ENCODING 117
SWIDTH 630 0
DWIDTH 21 0
BBX 18 18 3 0
BITMAP
FE1FC0
1C03C0
1C0380
1C0380
3C0380
380380
380780
380700
380700
780F00
700F00
701F00
702E00
704E00
F08E00
F10E00
7E1E00
381FC0
ENDCHAR
STARTCHAR v
ENCODING 118
SWIDTH 558 0
DWIDTH 19 0
BBX 19 18 2 0
BITMAP
FC01E0
3E00E0
1E00E0
0F00E0
0F00E0
0F00C0
070180
070100
078300
038600
038C00
038800
039000
03A000
03C000
038000
038000
030000
ENDCHAR
STARTCHAR w
ENCODING 119
SWIDTH 805 0
DWIDTH 27 0
BBX 27 18 2 0
BITMAP
FC0201E0
3C0300E0
1C0700E0
1E0700C0
0E0781C0
0E0F8180
0E0B8100
0F1B8300
0713C200
0731C400
0761CC00
0741C800
07C1D000
0781F000
0781E000
0701C000
06018000
06018000
ENDCHAR
STARTCHAR x
ENCODING 120
SWIDTH 510 0
DWIDTH 17 0
BBX 17 18 2 0
BITMAP
7E0700
1E0380
0F0300
070300
078600
038800
03D000
01E000
01E000
01E000
06F000
0CF000
187800
307800
603800
E03C00
E01E00
F01F80
ENDCHAR
STARTCHAR y
ENCODING 121
SWIDTH 558 0
DWIDTH 19 0
BBX 21 25 0 -7
BITMAP
3F0078
0F8038
078038
038038
038030
03C070
01C060
01C0C0
01C080
01C100
01E300
00E600
00E400
00E800
00F000
00F000
00E000
00C000
008000
010000
030000
0E0000
1C0000
380000
F80000
ENDCHAR
STARTCHAR z
ENCODING 122
SWIDTH 536 0
DWIDTH 18 0
BBX 18 18 2 0
BITMAP
0FFFC0
0C0380
080700
180F00
001E00
003C00
007800
00F000
00E000
01C000
038000
078000
0F0000
1E0000
3C0300
780300
700600
FFFE00
ENDCHAR
STARTCHAR braceleft
ENCODING 123
SWIDTH 337 0
DWIDTH 11 0
BBX 12 32 3 -6
BITMAP
00F0
0180
0300
0300
0700
0700
0700
0700
0700
0700
0600
0600
0600
0C00
0C00
1800
E000
3000
1800
1800
1800
3800
3800
7800
7000
7000
E000
E000
E000
E000
7000
1C00
ENDCHAR
STARTCHAR bar
ENCODING 124
SWIDTH 241 0
DWIDTH 8 0
BBX 8 32 2 -6
BITMAP
03
07
07
06
06
06
06
0E
0C
0C
0C
0C
0C
1C
18
18
18
18
38
30
30
30
30
30
70
60
60
60
60
E0
E0
C0
ENDCHAR
STARTCHAR braceright
ENCODING 125
SWIDTH 337 0
DWIDTH 11 0
BBX 12 32 3 -6
BITMAP
0380
00C0
0060
0060
0070
00E0
00E0
01E0
01C0
01C0
0180
0380
0180
0180
00C0
0070
0180
0300
0600
0600
0E00
0E00
0E00
0E00
0E00
0E00
0E00
0E00
0C00
1C00
3800
E000
ENDCHAR
STARTCHAR asciitilde
ENCODING 126
SWIDTH 608 0
DWIDTH 21 0
BBX 21 8 2 6
BITMAP
0F0000
1FC008
23E018
60F010
407830
C03C20
801FE0
800780
ENDCHAR
STARTCHAR space
ENCODING 160
SWIDTH 333 0
DWIDTH 10 0
BBX 1 1 0 0
BITMAP
00
ENDCHAR
STARTCHAR exclamdown
ENCODING 161
SWIDTH 265 0
DWIDTH 9 0
BBX 8 25 2 -7
BITMAP
07
0F
0E
00
00
00
00
0C
08
08
08
18
18
18
38
38
38
30
70
70
70
70
F0
F0
E0
ENDCHAR
STARTCHAR cent
ENCODING 162
SWIDTH 608 0
DWIDTH 21 0
BBX 15 25 5 0
BITMAP
0020
0020
0060
01FE
0346
0E46
1C46
3840
3080
7080
7080
E080
E080
E100
E100
E100
E100
F100
7108
7A38
1FE0
0200
0200
0600
0400
ENDCHAR
STARTCHAR sterling
ENCODING 163
SWIDTH 608 0
DWIDTH 21 0
BBX 19 25 4 0
BITMAP
000FC0
0010E0
002060
006060
00E040
00C000
01C000
01C000
03C000
03C000
038000
038000
3FF800
038000
078000
070000
070000
070000
0F0000
0E0000
0C0000
180000
700000
FFFE00
FFFC00
ENDCHAR
STARTCHAR currency
ENCODING 164
SWIDTH 608 0
DWIDTH 21 0
BBX 23 22 1 1
BITMAP
080002
080004
040008
023E10
02C1A0
0180C0
030040
060060
060060
0C0060
0C0060
0C0060
0C0040
0C00C0
0C0080
040180
060300
0F0780
19F880
200040
400020
800020
ENDCHAR
STARTCHAR yen
ENCODING 165
SWIDTH 608 0
DWIDTH 21 0
BBX 23 25 4 0
BITMAP
FF807E
3C0018
1C0030
1E0060
0E00C0
0F0180
070300
078600
038C00
03D800
03F000
01E000
3FFF00
01C000
01C000
01C000
03C000
7FFE00
038000
038000
038000
078000
078000
0F8000
3FE000
ENDCHAR
STARTCHAR brokenbar
ENCODING 166
SWIDTH 241 0
DWIDTH 8 0
BBX 8 32 2 -6
BITMAP
03
07
07
06
06
06
06
0E
0C
0C
0C
0C
1C
1C
18
00
00
18
38
38
30
30
30
30
70
60
60
60
60
E0
E0
C0
ENDCHAR
STARTCHAR section
ENCODING 167
SWIDTH 608 0
DWIDTH 21 0
BBX 18 32 3 -7
BITMAP
007F80
0181C0
030080
060080
0E0000
0E0000
0E0000
0E0000
0F0000
07C000
03F000
05FC00
0C7E00
181F00
180700
380700
380700
3C0700
1F0600
1FC400
07E800
03F800
007C00
003E00
000E00
000E00
000E00
400C00
C01C00
C03800
F07000
3FC000
ENDCHAR
STARTCHAR dieresis
ENCODING 168
SWIDTH 560 0
DWIDTH 19 0
BBX 10 2 10 23
BITMAP
E1C0
E3C0
ENDCHAR
STARTCHAR copyright
ENCODING 169
SWIDTH 843 0
DWIDTH 29 0
BBX 26 25 4 0
BITMAP
007F0000
0180E000
06003800
0C000C00
10000600
300FC200
60306100
40606180
40C04080
81800080
81800080
83800080
838000C0
83800080
83800080
83800080
43800080
41800180
60E08100
307F0200
10000600
0C000C00
06003800
0180E000
007F0000
ENDCHAR
STARTCHAR ordfeminine
ENCODING 170
SWIDTH 458 0
DWIDTH 14 0
BBX 13 14 4 11
BITMAP
03F8
0C78
1838
3070
3070
7070
6070
E0F0
E1F0
E360
E2E0
E4E0
F8E0
70F8
ENDCHAR
STARTCHAR guillemotleft
ENCODING 171
SWIDTH 525 0
DWIDTH 18 0
BBX 16 16 3 1
BITMAP
0081
0182
0306
060C
0C18
1830
38E0
71C0
F1C0
70E0
30E0
3870
1830
0C10
0C18
0408
ENDCHAR
STARTCHAR logicalnot
ENCODING 172
SWIDTH 608 0
DWIDTH 21 0
BBX 20 9 3 5
BITMAP
FFFFF0
000070
000070
000060
000060
000060
000060
000060
0000E0
ENDCHAR
STARTCHAR hyphen
ENCODING 173
SWIDTH 313 0
DWIDTH 11 0
BBX 8 2 3 10
BITMAP
FF
FF
ENDCHAR
STARTCHAR registered
ENCODING 174
SWIDTH 608 0
DWIDTH 21 0
BBX 13 16 7 9
BITMAP
0F80
10C0
2020
4F90
4450
8448
84C8
8788
8908
8908
8908
58D0
4010
2020
18C0
0F80
ENDCHAR
STARTCHAR macron
ENCODING 175
SWIDTH 560 0
DWIDTH 19 0
BBX 10 1 9 24
BITMAP
FFC0
ENDCHAR
STARTCHAR degree
ENCODING 176
SWIDTH 277 0
DWIDTH 9 0
BBX 6 6 6 19
BITMAP
70
C8
84
84
C8
70
ENDCHAR
STARTCHAR plusminus
ENCODING 177
SWIDTH 608 0
DWIDTH 21 0
BBX 22 21 0 0
BITMAP
000600
000400
000C00
000C00
000C00
000C00
000C00
000800
3FFFFC
001800
001800
001800
001000
003000
003000
003000
003000
000000
000000
000000
FFFFF0
ENDCHAR
STARTCHAR twosuperior
ENCODING 178
SWIDTH 365 0
DWIDTH 12 0
BBX 11 15 -18 10
BITMAP
0F80
18C0
1060
1060
0060
00C0
00C0
0180
0200
0C00
1000
2000
6000
C000
FF80
ENDCHAR
STARTCHAR threesuperior
ENCODING 179
SWIDTH 365 0
DWIDTH 12 0
BBX 10 15 -19 10
BITMAP
1F80
10C0
10C0
00C0
00C0
0180
1E00
0300
0180
0180
0180
0180
8180
C700
FC00
ENDCHAR
STARTCHAR acute
ENCODING 180
SWIDTH 560 0
DWIDTH 19 0
BBX 8 5 12 21
BITMAP
0F
1C
38
60
C0
ENDCHAR
STARTCHAR mu
ENCODING 181
SWIDTH 663 0
DWIDTH 23 0
BBX 19 24 3 -6
BITMAP
7F07E0
0E01E0
0E01E0
0E01C0
0E01C0
1E01C0
1C01C0
1C03C0
1C0380
1C0780
3C0780
380B80
381F80
383700
387700
3CE700
7FC700
778FE0
700000
700000
700000
F00000
E00000
E00000
ENDCHAR
STARTCHAR paragraph
ENCODING 182
SWIDTH 608 0
DWIDTH 21 0
BBX 14 31 5 -6
BITMAP
1FFC
3F84
7F84
FF8C
FF8C
FF88
FF08
FF08
7F18
7F18
3F10
1F10
0610
0230
0230
0220
0620
0420
0420
0460
0440
0C40
0C40
0840
08C0
08C0
0880
1880
1080
1080
1180
ENDCHAR
STARTCHAR periodcentered
ENCODING 183
SWIDTH 608 0
DWIDTH 21 0
BBX 4 3 10 9
BITMAP
70
F0
F0
ENDCHAR
STARTCHAR cedilla
ENCODING 184
SWIDTH 560 0
DWIDTH 19 0
BBX 5 8 6 -7
BITMAP
10
20
70
38
18
18
38
F0
ENDCHAR
STARTCHAR onesuperior
ENCODING 185
SWIDTH 365 0
DWIDTH 12 0
BBX 8 15 -19 10
BITMAP
1F
03
06
06
06
06
06
0C
0C
0C
0C
0C
18
18
FF
ENDCHAR
STARTCHAR ordmasculine
ENCODING 186
SWIDTH 458 0
DWIDTH 14 0
BBX 13 14 4 11
BITMAP
03E0
0470
1838
3038
3038
6038
6038
E030
E030
E060
E060
E0C0
7100
3E00
ENDCHAR
STARTCHAR guillemotright
ENCODING 187
SWIDTH 525 0
DWIDTH 18 0
BBX 16 16 3 1
BITMAP
1020
1830
0830
0C18
0E1C
070C
070E
038F
038E
071C
0C18
1830
3060
60C0
4180
8100
ENDCHAR
STARTCHAR onequarter
ENCODING 188
SWIDTH 766 0
DWIDTH 28 0
BBX 27 25 6 0
BITMAP
1F0000E0
030001C0
06000380
06000700
06000E00
06000C00
06001800
0C003000
0C006000
0C00C000
0C01C0C0
0C038180
18070380
180E0580
FF1C0980
00181180
00302100
00604300
00C08300
0181FFC0
03800200
07000200
0E000600
1C000600
38001F80
ENDCHAR
STARTCHAR onehalf
ENCODING 189
SWIDTH 766 0
DWIDTH 28 0
BBX 27 25 6 0
BITMAP
1F0000E0
030001C0
06000380
06000700
06000E00
06000C00
06001800
0C003000
0C006000
0C00C000
0C01DF00
0C03B180
180720C0
180E20C0
FF1C00C0
00180180
00300180
00600300
00C00400
01801800
03802000
07004000
0E00C000
1C018000
3801FF00
ENDCHAR
STARTCHAR threequarters
ENCODING 190
SWIDTH 766 0
DWIDTH 28 0
BBX 27 25 6 0
BITMAP
1F8000E0
10C001C0
10C00380
00C00700
00C00E00
01800C00
1E001800
03003000
01806000
0180C000
0181C0C0
01838180
81870380
C70E0580
FC1C0980
00181180
00302100
00604300
00C08300
0181FFC0
03800200
07000200
0E000600
1C000600
38001F80
ENDCHAR
STARTCHAR questiondown
ENCODING 191
SWIDTH 471 0
DWIDTH 16 0
BBX 13 25 1 -7
BITMAP
0038
0038
0078
0000
0000
0000
0000
0070
0070
00E0
00C0
0080
0100
0200
0400
1800
3800
7000
F000
F000
F018
F018
7018
7870
1FC0
ENDCHAR
STARTCHAR Agrave
ENCODING 192
SWIDTH 747 0
DWIDTH 25 0
BBX 25 32 0 0
BITMAP
0001E000
0000E000
00007000
00003000
00001800
00000000
00000000
00004000
0000C000
0000E000
0001E000
0002E000
0002E000
0004E000
0004F000
0008F000
0010F000
00107000
00207000
00607800
00407800
00807800
00807800
01FFF800
03003800
02003C00
06003C00
04003C00
08001C00
18001E00
38001E00
FE00FF80
ENDCHAR
STARTCHAR Aacute
ENCODING 193
SWIDTH 747 0
DWIDTH 25 0
BBX 25 32 0 0
BITMAP
00000F00
00001C00
00003800
00006000
0000C000
00000000
00000000
00004000
0000C000
0000E000
0001E000
0002E000
0002E000
0004E000
0004F000
0008F000
0010F000
00107000
00207000
00607800
00407800
00807800
00807800
01FFF800
03003800
02003C00
06003C00
04003C00
08001C00
18001E00
38001E00
FE00FF80
ENDCHAR
STARTCHAR Acircumflex
ENCODING 194
SWIDTH 747 0
DWIDTH 25 0
BBX 25 32 0 0
BITMAP
0000F800
0001F800
00039C00
00070C00
000C0600
00000000
00000000
00004000
0000C000
0000E000
0001E000
0002E000
0002E000
0004E000
0004F000
0008F000
0010F000
00107000
00207000
00607800
00407800
00807800
00807800
01FFF800
03003800
02003C00
06003C00
04003C00
08001C00
18001E00
38001E00
FE00FF80
ENDCHAR
STARTCHAR Atilde
ENCODING 195
SWIDTH 747 0
DWIDTH 25 0
BBX 25 31 0 0
BITMAP
0001C100
0003F300
00067E00
00043C00
00000000
00000000
00004000
0000C000
0000E000
0001E000
0002E000
0002E000
0004E000
0004F000
0008F000
0010F000
00107000
00207000
00607800
00407800
00807800
00807800
01FFF800
03003800
02003C00
06003C00
04003C00
08001C00
18001E00
38001E00
FE00FF80
ENDCHAR
STARTCHAR Adieresis
ENCODING 196
SWIDTH 747 0
DWIDTH 25 0
BBX 25 29 0 0
BITMAP
00070E00
00071E00
00000000
00000000
00004000
0000C000
0000E000
0001E000
0002E000
0002E000
0004E000
0004F000
0008F000
0010F000
00107000
00207000
00607800
00407800
00807800
00807800
01FFF800
03003800
02003C00
06003C00
04003C00
08001C00
18001E00
38001E00
FE00FF80
ENDCHAR
STARTCHAR Aring
ENCODING 197
SWIDTH 747 0
DWIDTH 25 0
BBX 25 32 0 0
BITMAP
00007000
00008800
00008800
00008800
00007000
00000000
00000000
00004000
0000C000
0000E000
0001E000
0002E000
0002E000
0004E000
0004F000
0008F000
0010F000
00107000
00207000
00607800
00407800
00807800
00807800
01FFF800
03003800
02003C00
06003C00
04003C00
08001C00
18001E00
38001E00
FE00FF80
ENDCHAR
STARTCHAR AE
ENCODING 198
SWIDTH 907 0
DWIDTH 31 0
BBX 34 25 0 0
BITMAP
00000FFFC0
00001E00C0
00002E0180
00007E0180
00005E0000
00009E0000
00011C0000
00031C0000
00021C0000
00043C0000
000C3C0400
00183C0C00
00103FFC00
0020380C00
0060780800
00C0780000
01FFF80000
0100700000
0300700000
0600F00000
0C00F00000
0C00F00600
1800F00600
3001F00C00
FC0FFFFC00
ENDCHAR
STARTCHAR Ccedilla
ENCODING 199
SWIDTH 714 0
DWIDTH 24 0
BBX 23 32 4 -7
BITMAP
000FF8
00783E
01E00E
03800C
07000C
0E000C
1E0000
3C0000
3C0000
780000
780000
700000
F00000
F00000
F00000
F00000
F00000
F00000
F00000
700000
780000
380000
3C0060
0F03C0
03FC00
010000
038000
01C000
00C000
00C000
01C000
078000
ENDCHAR
STARTCHAR Egrave
ENCODING 200
SWIDTH 569 0
DWIDTH 19 0
BBX 22 32 1 0
BITMAP
001E00
000E00
000700
000300
000180
000000
000000
07FFFC
00E00C
00E018
01E018
01E000
01E000
01C000
01C000
01C000
03C000
03C040
03C0C0
03FFC0
078080
078080
078000
070000
070000
0F0000
0F0000
0F0000
0E0060
1E0060
3F00C0
FFFFC0
ENDCHAR
STARTCHAR Eacute
ENCODING 201
SWIDTH 569 0
DWIDTH 19 0
BBX 22 32 1 0
BITMAP
0000F0
0001C0
000380
000600
000C00
000000
000000
07FFFC
00E00C
00E018
01E018
01E000
01E000
01C000
01C000
01C000
03C000
03C040
03C0C0
03FFC0
078080
078080
078000
070000
070000
0F0000
0F0000
0F0000
0E0060
1E0060
3F00C0
FFFFC0
ENDCHAR
STARTCHAR Ecircumflex
ENCODING 202
SWIDTH 569 0
DWIDTH 19 0
BBX 22 32 1 0
BITMAP
0007C0
000FC0
001CE0
003860
006030
000000
000000
07FFFC
00E00C
00E018
01E018
01E000
01E000
01C000
01C000
01C000
03C000
03C040
03C0C0
03FFC0
078080
078080
078000
070000
070000
0F0000
0F0000
0F0000
0E0060
1E0060
3F00C0
FFFFC0
ENDCHAR
STARTCHAR Edieresis
ENCODING 203
SWIDTH 569 0
DWIDTH 19 0
BBX 22 29 1 0
BITMAP
003870
0038F0
000000
000000
07FFFC
00E00C
00E018
01E018
01E000
01E000
01C000
01C000
01C000
03C000
03C040
03C0C0
03FFC0
078080
078080
078000
070000
070000
0F0000
0F0000
0F0000
0E0060
1E0060
3F00C0
FFFFC0
ENDCHAR
STARTCHAR Igrave
ENCODING 204
SWIDTH 325 0
DWIDTH 11 0
BBX 15 32 1 0
BITMAP
01E0
00E0
0070
0030
0018
0000
0000
07FE
00F8
00F0
00E0
01E0
01E0
01C0
01C0
01C0
03C0
03C0
0380
0380
0380
0780
0780
0700
0700
0F00
0F00
0F00
0E00
1E00
3E00
FFC0
ENDCHAR
STARTCHAR Iacute
ENCODING 205
SWIDTH 325 0
DWIDTH 11 0
BBX 16 32 1 0
BITMAP
000F
001C
0038
0060
00C0
0000
0000
07FE
00F8
00F0
00E0
01E0
01E0
01C0
01C0
01C0
03C0
03C0
0380
0380
0380
0780
0780
0700
0700
0F00
0F00
0F00
0E00
1E00
3E00
FFC0
ENDCHAR
STARTCHAR Icircumflex
ENCODING 206
SWIDTH 325 0
DWIDTH 11 0
BBX 16 32 1 0
BITMAP
007C
00FC
01CE
0386
0603
0000
0000
07FE
00F8
00F0
00E0
01E0
01E0
01C0
01C0
01C0
03C0
03C0
0380
0380
0380
0780
0780
0700
0700
0F00
0F00
0F00
0E00
1E00
3E00
FFC0
ENDCHAR
STARTCHAR Idieresis
ENCODING 207
SWIDTH 325 0
DWIDTH 11 0
BBX 16 29 1 0
BITMAP
0387
038F
0000
0000
07FE
00F8
00F0
00E0
01E0
01E0
01C0
01C0
01C0
03C0
03C0
0380
0380
0380
0780
0780
0700
0700
0F00
0F00
0F00
0E00
1E00
3E00
FFC0
ENDCHAR
STARTCHAR Eth
ENCODING 208
SWIDTH 770 0
DWIDTH 26 0
BBX 26 25 1 0
BITMAP
07FFF800
01E03E00
01E00F00
01E00780
01C00380
01C003C0
01C003C0
03C003C0
03C003C0
03C003C0
038003C0
038003C0
3FFE03C0
07800380
07800380
07000780
07000700
0F000F00
0F000E00
0F001E00
0E003C00
0E007800
1E00F000
3F03C000
FFFE0000
ENDCHAR
STARTCHAR Ntilde
ENCODING 209
SWIDTH 762 0
DWIDTH 26 0
BBX 29 31 1 0
BITMAP
0001C100
0003F300
00067E00
00043C00
00000000
00000000
07C003F8
01E000E0
01E000C0
01F000C0
01F80080
01780080
013C0080
033C0180
031E0180
031E0100
020F0100
02070100
06078300
06038300
0603C200
0601E200
0401E200
0400F600
0C00F600
0C007E00
0C003C00
08003C00
18001C00
38001C00
FF000C00
ENDCHAR
STARTCHAR Ograve
ENCODING 210
SWIDTH 783 0
DWIDTH 27 0
BBX 24 32 4 0
BITMAP
000F00
000700
000380
000180
0000C0
000000
000000
001FC0
007070
01C03C
03801C
07000E
0E000E
1C000F
3C000F
38000F
78000F
78000F
70000F
F0000F
F0000E
F0001E
F0001E
F0001C
F0003C
F00038
F00070
7000E0
7801C0
3C0380
0E0E00
03F800
ENDCHAR
STARTCHAR Oacute
ENCODING 211
SWIDTH 783 0
DWIDTH 27 0
BBX 24 32 4 0
BITMAP
000078
0000E0
0001C0
000300
000600
000000
000000
001FC0
007070
01C03C
03801C
07000E
0E000E
1C000F
3C000F
38000F
78000F
78000F
70000F
F0000F
F0000E
F0001E
F0001E
F0001C
F0003C
F00038
F00070
7000E0
7801C0
3C0380
0E0E00
03F800
ENDCHAR
STARTCHAR Ocircumflex
ENCODING 212
SWIDTH 783 0
DWIDTH 27 0
BBX 24 32 4 0
BITMAP
0007C0
000FC0
001CE0
003860
006030
000000
000000
001FC0
007070
01C03C
03801C
07000E
0E000E
1C000F
3C000F
38000F
78000F
78000F
70000F
F0000F
F0000E
F0001E
F0001E
F0001C
F0003C
F00038
F00070
7000E0
7801C0
3C0380
0E0E00
03F800
ENDCHAR
STARTCHAR Otilde
ENCODING 213
SWIDTH 783 0
DWIDTH 27 0
BBX 24 31 4 0
BITMAP
000E08
001F98
0033F0
0021E0
000000
000000
001FC0
007070
01C03C
03801C
07000E
0E000E
1C000F
3C000F
38000F
78000F
78000F
70000F
F0000F
F0000E
F0001E
F0001E
F0001C
F0003C
F00038
F00070
7000E0
7801C0
3C0380
0E0E00
03F800
ENDCHAR
STARTCHAR Odieresis
ENCODING 214
SWIDTH 783 0
DWIDTH 27 0
BBX 24 29 4 0
BITMAP
003870
0038F0
000000
000000
001FC0
007070
01C03C
03801C
07000E
0E000E
1C000F
3C000F
38000F
78000F
78000F
70000F
F0000F
F0000E
F0001E
F0001E
F0001C
F0003C
F00038
F00070
7000E0
7801C0
3C0380
0E0E00
03F800
ENDCHAR
STARTCHAR multiply
ENCODING 215
SWIDTH 608 0
DWIDTH 21 0
BBX 23 21 1 0
BITMAP
080002
08000E
04001C
020038
030070
0100C0
008180
004300
006600
002C00
003800
007800
00EC00
01C400
030200
060100
0C0180
180080
700040
E00020
400020
ENDCHAR
STARTCHAR Oslash
ENCODING 216
SWIDTH 783 0
DWIDTH 27 0
BBX 28 25 2 0
BITMAP
0007F030
001C1E60
00700FC0
00E00780
01C00380
038007C0
07000BC0
0F0013C0
0E0061C0
1E00C3C0
1E0183C0
1C0303C0
3C0603C0
3C0C03C0
3C180380
3C300780
3C600700
3CC00F00
3D800E00
3F001C00
1E003800
0E007000
1F00E000
27838000
C0FE0000
ENDCHAR
STARTCHAR Ugrave
ENCODING 217
SWIDTH 727 0
DWIDTH 25 0
BBX 24 32 5 0
BITMAP
007800
003800
001C00
000C00
000600
000000
000000
FFC0FF
1F001C
1E0018
1C0010
1C0030
3C0030
3C0030
380020
380020
380060
780060
780060
700040
700040
7000C0
F000C0
F000C0
E00080
E00180
E00180
F00300
700200
780600
3C1800
0FE000
ENDCHAR
STARTCHAR Uacute
ENCODING 218
SWIDTH 727 0
DWIDTH 25 0
BBX 24 32 5 0
BITMAP
0001E0
000380
000700
000C00
001800
000000
000000
FFC0FF
1F001C
1E0018
1C0010
1C0030
3C0030
3C0030
380020
380020
380060
780060
780060
700040
700040
7000C0
F000C0
F000C0
E00080
E00180
E00180
F00300
700200
780600
3C1800
0FE000
ENDCHAR
STARTCHAR Ucircumflex
ENCODING 219
SWIDTH 727 0
DWIDTH 25 0
BBX 24 32 5 0
BITMAP
001F00
003F00
007380
00E180
0180C0
000000
000000
FFC0FF
1F001C
1E0018
1C0010
1C0030
3C0030
3C0030
380020
380020
380060
780060
780060
700040
700040
7000C0
F000C0
F000C0
E00080
E00180
E00180
F00300
700200
780600
3C1800
0FE000
ENDCHAR
STARTCHAR Udieresis
ENCODING 220
SWIDTH 727 0
DWIDTH 25 0
BBX 24 29 5 0
BITMAP
00E1C0
00E3C0
000000
000000
FFC0FF
1F001C
1E0018
1C0010
1C0030
3C0030
3C0030
380020
380020
380060
780060
780060
700040
700040
7000C0
F000C0
F000C0
E00080
E00180
E00180
F00300
700200
780600
3C1800
0FE000
ENDCHAR
STARTCHAR Yacute
ENCODING 221
SWIDTH 663 0
DWIDTH 23 0
BBX 23 32 4 0
BITMAP
0003C0
000700
000E00
001800
003000
000000
000000
FF80FE
3E0038
3E0030
1E0060
1E0040
0F0080
0F0100
070200
078600
078400
038800
03D000
01E000
01E000
01C000
01C000
01C000
03C000
03C000
038000
038000
078000
078000
0F8000
3FF000
ENDCHAR
STARTCHAR Thorn
ENCODING 222
SWIDTH 579 0
DWIDTH 20 0
BBX 21 25 1 0
BITMAP
07FE00
01F000
01E000
01E000
01E000
01FF80
01C0F0
01C070
03C078
03C078
038078
038078
038078
078070
0780F0
0780E0
0701E0
070380
0F0F00
0FF800
0F0000
0E0000
1E0000
3E0000
FFC000
ENDCHAR
STARTCHAR germandbls
ENCODING 223
SWIDTH 603 0
DWIDTH 20 0
BBX 18 34 2 -7
BITMAP
003E00
00E780
01C380
0183C0
0383C0
038380
078300
070600
070C00
071800
073000
0F7000
0E7000
0E7800
0E7C00
0E3E00
1E1F00
1C0F80
1C07C0
1C03C0
1C01C0
3C01C0
3CC1C0
38C1C0
38C180
38C300
787C00
780000
700000
700000
700000
F00000
F00000
E00000
ENDCHAR
STARTCHAR agrave
ENCODING 224
SWIDTH 608 0
DWIDTH 21 0
BBX 18 25 3 0
BITMAP
007800
003800
001C00
000C00
000600
000000
000000
00FFC0
0107C0
0203C0
040380
0C0380
180380
380780
380780
700700
700F00
F01F00
F01F00
F02F00
F06E00
F0CE00
F18E00
7F0E00
3C1FC0
ENDCHAR
STARTCHAR aacute
ENCODING 225
SWIDTH 608 0
DWIDTH 21 0
BBX 18 25 3 0
BITMAP
0003C0
000700
000E00
001800
003000
000000
000000
00FFC0
0107C0
0203C0
040380
0C0380
180380
380780
380780
700700
700F00
F01F00
F01F00
F02F00
F06E00
F0CE00
F18E00
7F0E00
3C1FC0
ENDCHAR
STARTCHAR acircumflex
ENCODING 226
SWIDTH 608 0
DWIDTH 21 0
BBX 18 25 3 0
BITMAP
001F00
003F00
007380
00E180
0180C0
000000
000000
00FFC0
0107C0
0203C0
040380
0C0380
180380
380780
380780
700700
700F00
F01F00
F01F00
F02F00
F06E00
F0CE00
F18E00
7F0E00
3C1FC0
ENDCHAR
STARTCHAR atilde
ENCODING 227
SWIDTH 608 0
DWIDTH 21 0
BBX 19 24 3 0
BITMAP
003820
007E60
00CFC0
008780
000000
000000
00FFC0
0107C0
0203C0
040380
0C0380
180380
380780
380780
700700
700F00
F01F00
F01F00
F02F00
F06E00
F0CE00
F18E00
7F0E00
3C1FC0
ENDCHAR
STARTCHAR adieresis
ENCODING 228
SWIDTH 608 0
DWIDTH 21 0
BBX 18 22 3 0
BITMAP
00E1C0
00E3C0
000000
000000
00FFC0
0107C0
0203C0
040380
0C0380
180380
380780
380780
700700
700F00
F01F00
F01F00
F02F00
F06E00
F0CE00
F18E00
7F0E00
3C1FC0
ENDCHAR
STARTCHAR aring
ENCODING 229
SWIDTH 608 0
DWIDTH 21 0
BBX 18 25 3 0
BITMAP
000E00
001100
001100
001100
000E00
000000
000000
00FFC0
0107C0
0203C0
040380
0C0380
180380
380780
380780
700700
700F00
F01F00
F01F00
F02F00
F06E00
F0CE00
F18E00
7F0E00
3C1FC0
ENDCHAR
STARTCHAR ae
ENCODING 230
SWIDTH 881 0
DWIDTH 30 0
BBX 27 18 3 0
BITMAP
00FFCF80
0107B1C0
0203E1E0
0403C0E0
0C0380E0
180381C0
380701C0
38070380
70070700
700F1E00
F01FF000
F0170000
F0270000
F0470000
F0C70060
F18780C0
7E03C300
3C01FC00
ENDCHAR
STARTCHAR ccedilla
ENCODING 231
SWIDTH 487 0
DWIDTH 17 0
BBX 15 25 3 -7
BITMAP
00FE
030E
0406
0C06
1806
3800
7000
7000
7000
F000
F000
F000
F000
F000
F000
7008
3830
1FC0
0800
1C00
0E00
0600
0600
0E00
3C00
ENDCHAR
STARTCHAR egrave
ENCODING 232
SWIDTH 518 0
DWIDTH 18 0
BBX 15 25 3 0
BITMAP
00F0
0070
0038
0018
000C
0000
0000
00F8
031C
041E
0C0E
181E
381C
701C
7038
7070
F1E0
FF00
E000
E000
F000
F006
700C
3C30
1FC0
ENDCHAR
STARTCHAR eacute
ENCODING 233
SWIDTH 518 0
DWIDTH 18 0
BBX 17 25 3 0
BITMAP
000780
000E00
001C00
003000
006000
000000
000000
00F800
031C00
041E00
0C0E00
181E00
381C00
701C00
703800
707000
F1E000
FF0000
E00000
E00000
F00000
F00600
700C00
3C3000
1FC000
ENDCHAR
STARTCHAR ecircumflex
ENCODING 234
SWIDTH 518 0
DWIDTH 18 0
BBX 16 25 3 0
BITMAP
007C
00FC
01CE
0386
0603
0000
0000
00F8
031C
041E
0C0E
181E
381C
701C
7038
7070
F1E0
FF00
E000
E000
F000
F006
700C
3C30
1FC0
ENDCHAR
STARTCHAR edieresis
ENCODING 235
SWIDTH 518 0
DWIDTH 18 0
BBX 16 22 3 0
BITMAP
0387
038F
0000
0000
00F8
031C
041E
0C0E
181E
381C
701C
7038
7070
F1E0
FF00
E000
E000
F000
F006
700C
3C30
1FC0
ENDCHAR
STARTCHAR igrave
ENCODING 236
SWIDTH 289 0
DWIDTH 10 0
BBX 9 25 3 0
BITMAP
1E00
0E00
0700
0300
0180
0000
0000
FE00
1E00
1C00
1C00
1C00
1C00
3C00
3800
3800
3800
3800
7800
7000
7000
7000
7000
F000
FE00
ENDCHAR
STARTCHAR iacute
ENCODING 237
SWIDTH 289 0
DWIDTH 10 0
BBX 12 25 3 0
BITMAP
00F0
01C0
0380
0600
0C00
0000
0000
FE00
1E00
1C00
1C00
1C00
1C00
3C00
3800
3800
3800
3800
7800
7000
7000
7000
7000
F000
FE00
ENDCHAR
STARTCHAR icircumflex
ENCODING 238
SWIDTH 289 0
DWIDTH 10 0
BBX 12 25 3 0
BITMAP
07C0
0FC0
1CE0
3860
6030
0000
0000
FE00
1E00
1C00
1C00
1C00
1C00
3C00
3800
3800
3800
3800
7800
7000
7000
7000
7000
F000
FE00
ENDCHAR
STARTCHAR idieresis
ENCODING 239
SWIDTH 289 0
DWIDTH 10 0
BBX 12 22 3 0
BITMAP
3870
38F0
0000
0000
FE00
1E00
1C00
1C00
1C00
1C00
3C00
3800
3800
3800
3800
7800
7000
7000
7000
7000
F000
FE00
ENDCHAR
STARTCHAR eth
ENCODING 240
SWIDTH 562 0
DWIDTH 19 0
BBX 16 26 3 0
BITMAP
0FC1
03FE
0078
0038
00DC
018E
020E
000E
00FF
030F
0E07
1C07
1807
3807
7007
7007
7007
E007
E007
E006
E00E
F00C
F018
7030
3860
1F80
ENDCHAR
STARTCHAR ntilde
ENCODING 241
SWIDTH 631 0
DWIDTH 21 0
BBX 18 24 3 0
BITMAP
007040
00FCC0
019F80
010F00
000000
000000
FE0F00
1E1F80
1C73C0
1CC3C0
1D8380
3D0380
3E0380
3E0380
3C0780
380700
780700
780700
700700
700F00
700E00
F00E00
F00E00
E01FC0
ENDCHAR
STARTCHAR ograve
ENCODING 242
SWIDTH 560 0
DWIDTH 19 0
BBX 17 25 3 0
BITMAP
00F000
007000
003800
001800
000C00
000000
000000
00FC00
030E00
0E0700
1C0700
1C0780
380780
780780
700780
700780
F00700
F00700
F00F00
F00E00
F01C00
F01800
703000
78E000
1F8000
ENDCHAR
STARTCHAR oacute
ENCODING 243
SWIDTH 560 0
DWIDTH 19 0
BBX 17 25 3 0
BITMAP
000780
000E00
001C00
003000
006000
000000
000000
00FC00
030E00
0E0700
1C0700
1C0780
380780
780780
700780
700780
F00700
F00700
F00F00
F00E00
F01C00
F01800
703000
78E000
1F8000
ENDCHAR
STARTCHAR ocircumflex
ENCODING 244
SWIDTH 560 0
DWIDTH 19 0
BBX 17 25 3 0
BITMAP
003E00
007E00
00E700
01C300
030180
000000
000000
00FC00
030E00
0E0700
1C0700
1C0780
380780
780780
700780
700780
F00700
F00700
F00F00
F00E00
F01C00
F01800
703000
78E000
1F8000
ENDCHAR
STARTCHAR otilde
ENCODING 245
SWIDTH 560 0
DWIDTH 19 0
BBX 18 24 3 0
BITMAP
007040
00FCC0
019F80
010F00
000000
000000
00FC00
030E00
0E0700
1C0700
1C0780
380780
780780
700780
700780
F00700
F00700
F00F00
F00E00
F01C00
F01800
703000
78E000
1F8000
ENDCHAR
STARTCHAR odieresis
ENCODING 246
SWIDTH 560 0
DWIDTH 19 0
BBX 17 22 3 0
BITMAP
01C380
01C780
000000
000000
00FC00
030E00
0E0700
1C0700
1C0780
380780
780780
700780
700780
F00700
F00700
F00F00
F00E00
F01C00
F01800
703000
78E000
1F8000
ENDCHAR
STARTCHAR divide
ENCODING 247
SWIDTH 608 0
DWIDTH 21 0
BBX 20 17 2 1
BITMAP
003800
003800
007800
000000
000000
000000
000000
000000
FFFFF0
000000
000000
000000
000000
000000
01C000
01C000
01C000
ENDCHAR
STARTCHAR oslash
ENCODING 248
SWIDTH 560 0
DWIDTH 19 0
BBX 20 18 1 0
BITMAP
003E30
00C7C0
0303C0
0703C0
0E07C0
0C0DC0
1C19C0
3C11C0
3821C0
3843C0
388380
790380
3A0700
3C0700
380E00
3C0C00
3E3000
CFC000
ENDCHAR
STARTCHAR ugrave
ENCODING 249
SWIDTH 630 0
DWIDTH 21 0
BBX 18 25 3 0
BITMAP
007800
003800
001C00
000C00
000600
000000
000000
FE1FC0
1C03C0
1C0380
1C0380
3C0380
380380
380780
380700
380700
780F00
700F00
701F00
702E00
704E00
F08E00
F10E00
7E1E00
381FC0
ENDCHAR
STARTCHAR uacute
ENCODING 250
SWIDTH 630 0
DWIDTH 21 0
BBX 18 25 3 0
BITMAP
0003C0
000700
000E00
001800
003000
000000
000000
FE1FC0
1C03C0
1C0380
1C0380
3C0380
380380
380780
380700
380700
780F00
700F00
701F00
702E00
704E00
F08E00
F10E00
7E1E00
381FC0
ENDCHAR
STARTCHAR ucircumflex
ENCODING 251
SWIDTH 630 0
DWIDTH 21 0
BBX 18 25 3 0
BITMAP
001F00
003F00
007380
00E180
0180C0
000000
000000
FE1FC0
1C03C0
1C0380
1C0380
3C0380
380380
380780
380700
380700
780F00
700F00
701F00
702E00
704E00
F08E00
F10E00
7E1E00
381FC0
ENDCHAR
STARTCHAR udieresis
ENCODING 252
SWIDTH 630 0
DWIDTH 21 0
BBX 18 22 3 0
BITMAP
00E1C0
00E3C0
000000
000000
FE1FC0
1C03C0
1C0380
1C0380
3C0380
380380
380780
380700
380700
780F00
700F00
701F00
702E00
704E00
F08E00
F10E00
7E1E00
381FC0
ENDCHAR
STARTCHAR yacute
ENCODING 253
SWIDTH 558 0
DWIDTH 19 0
BBX 21 32 0 -7
BITMAP
0000F0
0001C0
000380
000600
000C00
000000
000000
3F0078
0F8038
078038
038038
038030
03C070
01C060
01C0C0
01C080
01C100
01E300
00E600
00E400
00E800
00F000
00F000
00E000
00C000
008000
010000
030000
0E0000
1C0000
380000
F80000
ENDCHAR
STARTCHAR thorn
ENCODING 254
SWIDTH 608 0
DWIDTH 21 0
BBX 20 31 2 -7
BITMAP
1F8000
078000
078000
078000
078000
070000
0703C0
070FE0
0F18F0
0F30F0
0E60F0
0EC0F0
0E80F0
1F00F0
1E00E0
1E00E0
1C01C0
1C01C0
3C0180
3C0300
380200
380400
3C0800
7FF000
780000
700000
700000
700000
F00000
F00000
E00000
ENDCHAR
STARTCHAR ydieresis
ENCODING 255
SWIDTH 558 0
DWIDTH 19 0
BBX 21 29 0 -7
BITMAP
003870
0038F0
000000
000000
3F0078
0F8038
078038
038038
038030
03C070
01C060
01C0C0
01C080
01C100
01E300
00E600
00E400
00E800
00F000
00F000
00E000
00C000
008000
010000
030000
0E0000
1C0000
380000
F80000
ENDCHAR
STARTCHAR Amacron
ENCODING 256
SWIDTH 747 0
DWIDTH 25 0
BBX 25 27 0 0
BITMAP
003FF000
00000000
00004000
0000C000
0000E000
0001E000
0002E000
0002E000
0004E000
0004F000
0008F000
0010F000
00107000
00207000
00607800
00407800
00807800
00807800
01FFF800
03003800
02003C00
06003C00
04003C00
08001C00
18001E00
38001E00
FE00FF80
ENDCHAR
STARTCHAR amacron
ENCODING 257
SWIDTH 608 0
DWIDTH 21 0
BBX 18 20 3 0
BITMAP
01FF80
000000
00FFC0
0107C0
0203C0
040380
0C0380
180380
380780
380780
700700
700F00
F01F00
F01F00
F02F00
F06E00
F0CE00
F18E00
7F0E00
3C1FC0
ENDCHAR
STARTCHAR Abreve
ENCODING 258
SWIDTH 747 0
DWIDTH 25 0
BBX 25 31 0 0
BITMAP
00100400
00180800
001C7000
000FE000
0007C000
00000000
00004000
0000C000
0000E000
0001E000
0002E000
0002E000
0004E000
0004F000
0008F000
0010F000
00107000
00207000
00607800
00407800
00807800
00807800
01FFF800
03003800
02003C00
06003C00
04003C00
08001C00
18001E00
38001E00
FE00FF80
ENDCHAR
STARTCHAR abreve
ENCODING 259
SWIDTH 608 0
DWIDTH 21 0
BBX 18 24 3 0
BITMAP
010040
018080
01C700
00FE00
007C00
000000
00FFC0
0107C0
0203C0
040380
0C0380
180380
380780
380780
700700
700F00
F01F00
F01F00
F02F00
F06E00
F0CE00
F18E00
7F0E00
3C1FC0
ENDCHAR
STARTCHAR Aogonek
ENCODING 260
SWIDTH 747 0
DWIDTH 25 0
BBX 25 31 0 -6
BITMAP
00004000
0000C000
0000E000
0001E000
0002E000
0002E000
0004E000
0004F000
0008F000
0010F000
00107000
00207000
00607800
00407800
00807800
00807800
01FFF800
03003800
02003C00
06003C00
04003C00
08001C00
18001E00
38001E00
FE00FF80
00000000
00030000
00060000
000C0000
000E0000
00078000
ENDCHAR
STARTCHAR aogonek
ENCODING 261
SWIDTH 608 0
DWIDTH 21 0
BBX 18 24 3 -6
BITMAP
00FFC0
0107C0
0203C0
040380
0C0380
180380
380780
380780
700700
700F00
F01F00
F01F00
F02F00
F06E00
F0CE00
F18E00
7F0E00
3C1FC0
000000
00C000
018000
030000
038000
01E000
ENDCHAR
STARTCHAR Cacute
ENCODING 262
SWIDTH 714 0
DWIDTH 24 0
BBX 23 31 4 0
BITMAP
0001E0
000380
000700
000C00
001800
000000
000FF8
00783E
01E00E
03800C
07000C
0E000C
1E0000
3C0000
3C0000
780000
780000
700000
F00000
F00000
F00000
F00000
F00000
F00000
F00000
700000
780000
380000
3C0060
0F03C0
03FC00
ENDCHAR
STARTCHAR cacute
ENCODING 263
SWIDTH 487 0
DWIDTH 17 0
BBX 15 24 3 0
BITMAP
001E
0038
0070
00C0
0180
0000
00FE
030E
0406
0C06
1806
3800
7000
7000
7000
F000
F000
F000
F000
F000
F000
7008
3830
1FC0
ENDCHAR
STARTCHAR Ccircumflex
ENCODING 264
SWIDTH 714 0
DWIDTH 24 0
BBX 23 31 4 0
BITMAP
000F80
001F80
0039C0
0070C0
00C060
000000
000FF8
00783E
01E00E
03800C
07000C
0E000C
1E0000
3C0000
3C0000
780000
780000
700000
F00000
F00000
F00000
F00000
F00000
F00000
F00000
700000
780000
380000
3C0060
0F03C0
03FC00
ENDCHAR
STARTCHAR ccircumflex
ENCODING 265
SWIDTH 487 0
DWIDTH 17 0
BBX 15 24 3 0
BITMAP
00F8
01F8
039C
070C
0C06
0000
00FE
030E
0406
0C06
1806
3800
7000
7000
7000
F000
F000
F000
F000
F000
F000
7008
3830
1FC0
ENDCHAR
STARTCHAR Cdotaccent
ENCODING 266
SWIDTH 714 0
DWIDTH 24 0
BBX 23 29 4 0
BITMAP
000E00
001E00
001C00
000000
000FF8
00783E
01E00E
03800C
07000C
0E000C
1E0000
3C0000
3C0000
780000
780000
700000
F00000
F00000
F00000
F00000
F00000
F00000
F00000
700000
780000
380000
3C0060
0F03C0
03FC00
ENDCHAR
STARTCHAR cdotaccent
ENCODING 267
SWIDTH 487 0
DWIDTH 17 0
BBX 15 22 3 0
BITMAP
0070
00F0
00E0
0000
00FE
030E
0406
0C06
1806
3800
7000
7000
7000
F000
F000
F000
F000
F000
F000
7008
3830
1FC0
ENDCHAR
STARTCHAR Ccaron
ENCODING 268
SWIDTH 714 0
DWIDTH 24 0
BBX 23 31 4 0
BITMAP
00C060
0061C0
007380
003F00
003E00
000000
000FF8
00783E
01E00E
03800C
07000C
0E000C
1E0000
3C0000
3C0000
780000
780000
700000
F00000
F00000
F00000
F00000
F00000
F00000
F00000
700000
780000
380000
3C0060
0F03C0
03FC00
ENDCHAR
STARTCHAR ccaron
ENCODING 269
SWIDTH 487 0
DWIDTH 17 0
BBX 16 24 3 0
BITMAP
0603
030E
039C
01F8
01F0
0000
00FE
030E
0406
0C06
1806
3800
7000
7000
7000
F000
F000
F000
F000
F000
F000
7008
3830
1FC0
ENDCHAR
STARTCHAR Dcaron
ENCODING 270
SWIDTH 770 0
DWIDTH 26 0
BBX 26 31 1 0
BITMAP
00301800
00187000
001CE000
000FC000
000F8000
00000000
07FFF800
01E03E00
01E00F00
01E00780
01C00380
01C003C0
01C003C0
03C003C0
03C003C0
038003C0
038003C0
038003C0
078003C0
07800380
07800380
07000780
07000700
0F000F00
0F000E00
0F001E00
0E003C00
0E007800
1E00F000
3F03C000
FFFE0000
ENDCHAR
STARTCHAR dcaron
ENCODING 271
SWIDTH 843 0
DWIDTH 29 0
BBX 29 26 3 0
BITMAP
0007F078
0000F078
0000E0F8
0000E0F0
0000E030
0000E070
0001E060
0001C060
00FFC1C0
0103C180
0201C000
0403C000
0C038000
18038000
38038000
38038000
70078000
700F0000
F00F0000
F0170000
F0370000
F06F0000
F0CE0000
F18E0000
7F0E0000
3C1FC000
ENDCHAR
STARTCHAR Dcroat
ENCODING 272
SWIDTH 770 0
DWIDTH 26 0
BBX 26 25 1 0
BITMAP
07FFF800
01E03E00
01E00F00
01E00780
01C00380
01C003C0
01C003C0
03C003C0
03C003C0
03C003C0
038003C0
038003C0
3FFE03C0
07800380
07800380
07000780
07000700
0F000F00
0F000E00
0F001E00
0E003C00
0E007800
1E00F000
3F03C000
FFFE0000
ENDCHAR
STARTCHAR dcroat
ENCODING 273
SWIDTH 608 0
DWIDTH 21 0
BBX 23 26 3 0
BITMAP
0007F0
0000F0
0000E0
0000E0
0000E0
0000E0
00FFFE
00FFFE
00FFC0
0103C0
0201C0
0403C0
0C0380
180380
380380
380380
700780
700F00
F00F00
F01700
F03700
F06F00
F0CE00
F18E00
7F0E00
3C1FC0
ENDCHAR
STARTCHAR Emacron
ENCODING 274
SWIDTH 569 0
DWIDTH 19 0
BBX 22 27 1 0
BITMAP
01FF80
000000
07FFFC
00E00C
00E018
01E018
01E000
01E000
01C000
01C000
01C000
03C000
03C040
03C0C0
03FFC0
078080
078080
078000
070000
070000
0F0000
0F0000
0F0000
0E0060
1E0060
3F00C0
FFFFC0
ENDCHAR
STARTCHAR emacron
ENCODING 275
SWIDTH 518 0
DWIDTH 18 0
BBX 15 20 3 0
BITMAP
0FFC
0000
00F8
031C
041E
0C0E
181E
381C
701C
7038
7070
F1E0
FF00
E000
E000
F000
F006
700C
3C30
1FC0
ENDCHAR
STARTCHAR Ebreve
ENCODING 276
SWIDTH 569 0
DWIDTH 19 0
BBX 22 31 1 0
BITMAP
010040
018080
01C700
00FE00
007C00
000000
07FFFC
00E00C
00E018
01E018
01E000
01E000
01C000
01C000
01C000
03C000
03C040
03C0C0
03FFC0
078080
078080
078000
070000
070000
0F0000
0F0000
0F0000
0E0060
1E0060
3F00C0
FFFFC0
ENDCHAR
STARTCHAR ebreve
ENCODING 277
SWIDTH 518 0
DWIDTH 18 0
BBX 16 24 3 0
BITMAP
0401
0602
071C
03F8
01F0
0000
00F8
031C
041E
0C0E
181E
381C
701C
7038
7070
F1E0
FF00
E000
E000
F000
F006
700C
3C30
1FC0
ENDCHAR
STARTCHAR Edotaccent
ENCODING 278
SWIDTH 569 0
DWIDTH 19 0
BBX 22 29 1 0
BITMAP
001C00
003C00
003800
000000
07FFFC
00E00C
00E018
01E018
01E000
01E000
01C000
01C000
01C000
03C000
03C040
03C0C0
03FFC0
078080
078080
078000
070000
070000
0F0000
0F0000
0F0000
0E0060
1E0060
3F00C0
FFFFC0
ENDCHAR
STARTCHAR edotaccent
ENCODING 279
SWIDTH 518 0
DWIDTH 18 0
BBX 15 22 3 0
BITMAP
0070
00F0
00E0
0000
00F8
031C
041E
0C0E
181E
381C
701C
7038
7070
F1E0
FF00
E000
E000
F000
F006
700C
3C30
1FC0
ENDCHAR
STARTCHAR Eogonek
ENCODING 280
SWIDTH 569 0
DWIDTH 19 0
BBX 22 31 1 -6
BITMAP
07FFFC
00E00C
00E018
01E018
01E000
01E000
01C000
01C000
01C000
03C000
03C040
03C0C0
03FFC0
078080
078080
078000
070000
070000
0F0000
0F0000
0F0000
0E0060
1E0060
3F00C0
FFFFC0
000000
006000
00C000
018000
01C000
00F000
ENDCHAR
STARTCHAR eogonek
ENCODING 281
SWIDTH 518 0
DWIDTH 18 0
BBX 15 24 3 -6
BITMAP
00F8
031C
041E
0C0E
181E
381C
701C
7038
7070
F1E0
FF00
E000
E000
F000
F006
700C
3C30
1FC0
0000
0300
0600
0C00
0E00
0780
ENDCHAR
STARTCHAR Ecaron
ENCODING 282
SWIDTH 569 0
DWIDTH 19 0
BBX 22 31 1 0
BITMAP
0180C0
00C380
00E700
007E00
007C00
000000
07FFFC
00E00C
00E018
01E018
01E000
01E000
01C000
01C000
01C000
03C000
03C040
03C0C0
03FFC0
078080
078080
078000
070000
070000
0F0000
0F0000
0F0000
0E0060
1E0060
3F00C0
FFFFC0
ENDCHAR
STARTCHAR ecaron
ENCODING 283
SWIDTH 518 0
DWIDTH 18 0
BBX 15 24 3 0
BITMAP
0C06
061C
0738
03F0
03E0
0000
00F8
031C
041E
0C0E
181E
381C
701C
7038
7070
F1E0
FF00
E000
E000
F000
F006
700C
3C30
1FC0
ENDCHAR
STARTCHAR Gcircumflex
ENCODING 284
SWIDTH 756 0
DWIDTH 26 0
BBX 23 31 4 0
BITMAP
001F00
003F00
007380
00E180
0180C0
000000
001FF8
00701E
01E00C
03800C
07000C
0E0000
1E0000
3C0000
3C0000
780000
780000
700000
F00000
F00000
F007FE
F000F0
F000F0
F000E0
F000E0
7001E0
7801E0
7801E0
3C01C0
0F0380
03FC00
ENDCHAR
STARTCHAR gcircumflex
ENCODING 285
SWIDTH 602 0
DWIDTH 20 0
BBX 19 31 2 -7
BITMAP
001F00
003F00
007380
00E180
0180C0
000000
007FE0
0083E0
0101E0
0201C0
0601C0
0E01C0
0C01C0
1C03C0
3C0380
380780
380F80
780B80
781F80
783700
786700
38C700
3F8700
1E0E00
000E00
000E00
800C00
C01C00
601800
7C2000
3FC000
ENDCHAR
STARTCHAR Gbreve
ENCODING 286
SWIDTH 756 0
DWIDTH 26 0
BBX 23 31 4 0
BITMAP
008020
00C040
00E380
007F00
003E00
000000
001FF8
00701E
01E00C
03800C
07000C
0E0000
1E0000
3C0000
3C0000
780000
780000
700000
F00000
F00000
F007FE
F000F0
F000F0
F000E0
F000E0
7001E0
7801E0
7801E0
3C01C0
0F0380
03FC00
ENDCHAR
STARTCHAR gbreve
ENCODING 287
SWIDTH 602 0
DWIDTH 20 0
BBX 19 31 2 -7
BITMAP
010040
018080
01C700
00FE00
007C00
000000
007FE0
0083E0
0101E0
0201C0
0601C0
0E01C0
0C01C0
1C03C0
3C0380
380780
380F80
780B80
781F80
783700
786700
38C700
3F8700
1E0E00
000E00
000E00
800C00
C01C00
601800
7C2000
3FC000
ENDCHAR
STARTCHAR Gdotaccent
ENCODING 288
SWIDTH 756 0
DWIDTH 26 0
BBX 23 29 4 0
BITMAP
000E00
001E00
001C00
000000
001FF8
00701E
01E00C
03800C
07000C
0E0000
1E0000
3C0000
3C0000
780000
780000
700000
F00000
F00000
F007FE
F000F0
F000F0
F000E0
F000E0
7001E0
7801E0
7801E0
3C01C0
0F0380
03FC00
ENDCHAR
STARTCHAR gdotaccent
ENCODING 289
SWIDTH 602 0
DWIDTH 20 0
BBX 19 29 2 -7
BITMAP
001C00
003C00
003800
000000
007FE0
0083E0
0101E0
0201C0
0601C0
0E01C0
0C01C0
1C03C0
3C0380
380780
380F80
780B80
781F80
783700
786700
38C700
3F8700
1E0E00
000E00
000E00
800C00
C01C00
601800
7C2000
3FC000
ENDCHAR
STARTCHAR Gcommaaccent
ENCODING 290
SWIDTH 756 0
DWIDTH 26 0
BBX 23 38 4 -13
BITMAP
001FF8
00701E
01E00C
03800C
07000C
0E0000
1E0000
3C0000
3C0000
780000
780000
700000
F00000
F00000
F007FE
F000F0
F000F0
F000E0
F000E0
7001E0
7801E0
7801E0
3C01C0
0F0380
03FC00
000000
007800
007800
00F800
00F000
00F000
003000
007000
007000
006000
006000
00C000
018000
ENDCHAR
STARTCHAR gcommaaccent
ENCODING 291
SWIDTH 602 0
DWIDTH 20 0
BBX 19 36 2 -7
BITMAP
000300
000E00
000C00
001C00
001C00
001800
001E00
003E00
003C00
003C00
000000
007FE0
0083E0
0101E0
0201C0
0601C0
0E01C0
0C01C0
1C03C0
3C0380
380780
380F80
780B80
781F80
783700
786700
38C700
3F8700
1E0E00
000E00
000E00
800C00
C01C00
601800
7C2000
3FC000
ENDCHAR
STARTCHAR Hcircumflex
ENCODING 292
SWIDTH 776 0
DWIDTH 26 0
BBX 30 31 1 0
BITMAP
0001F000
0003F000
00073800
000E1800
00180C00
00000000
07FE0FFC
01F001F0
01E001E0
01E001C0
01E001C0
01C003C0
01C003C0
01C00380
03C00380
03C00380
03C00780
03800780
03FFFF00
07800700
07800700
07800F00
07000F00
07000E00
0F000E00
0F000E00
0F001E00
0E001E00
1E001E00
3E003E00
FFC1FF80
ENDCHAR
STARTCHAR hcircumflex
ENCODING 293
SWIDTH 631 0
DWIDTH 21 0
BBX 18 32 3 0
BITMAP
07C000
0FC000
1CE000
386000
603000
000000
3F0000
070000
070000
0F0000
0F0000
0E0000
0E0000
0E0000
1E0F00
1E1F80
1C73C0
1CC3C0
1D8380
3D0380
3E0380
3E0380
3C0780
380700
780700
780700
700700
700F00
700E00
F00E00
F00E00
E01FC0
ENDCHAR
STARTCHAR Hbar
ENCODING 294
SWIDTH 776 0
DWIDTH 26 0
BBX 30 25 1 0
BITMAP
07FE0FFC
01F001F0
01E001E0
01E001C0
01E001C0
01C003C0
FFFFFFFC
FFFFFFFC
03C00380
03C00380
03C00780
03800780
03FFFF00
07800700
07800700
07800F00
07000F00
07000E00
0F000E00
0F000E00
0F001E00
0E001E00
1E001E00
3E003E00
FFC1FF80
ENDCHAR
STARTCHAR hbar
ENCODING 295
SWIDTH 631 0
DWIDTH 21 0
BBX 20 26 1 0
BITMAP
0FC000
01C000
01C000
03C000
03C000
038000
FFFE00
FFFE00
0783C0
0787E0
071CF0
0730F0
0760E0
0F40E0
0F80E0
0F80E0
0F01E0
0E01C0
1E01C0
1E01C0
1C01C0
1C03C0
1C0380
3C0380
3C0380
3807F0
ENDCHAR
STARTCHAR Itilde
ENCODING 296
SWIDTH 325 0
DWIDTH 11 0
BBX 15 30 1 0
BITMAP
0704
0FCC
19F8
10F0
0000
07FE
00F8
00F0
00E0
01E0
01E0
01C0
01C0
01C0
03C0
03C0
0380
0380
0380
0780
0780
0700
0700
0F00
0F00
0F00
0E00
1E00
3E00
FFC0
ENDCHAR
STARTCHAR itilde
ENCODING 297
SWIDTH 289 0
DWIDTH 10 0
BBX 11 23 1 0
BITMAP
3820
7E60
CFC0
8780
0000
3F80
0780
0700
0700
0700
0700
0F00
0E00
0E00
0E00
0E00
1E00
1C00
1C00
1C00
1C00
3C00
3F80
ENDCHAR
STARTCHAR Imacron
ENCODING 298
SWIDTH 325 0
DWIDTH 11 0
BBX 15 27 1 0
BITMAP
0FFC
0000
07FE
00F8
00F0
00E0
01E0
01E0
01C0
01C0
01C0
03C0
03C0
0380
0380
0380
0780
0780
0700
0700
0F00
0F00
0F00
0E00
1E00
3E00
FFC0
ENDCHAR
STARTCHAR imacron
ENCODING 299
SWIDTH 289 0
DWIDTH 10 0
BBX 10 20 2 0
BITMAP
FFC0
0000
7F00
0F00
0E00
0E00
0E00
0E00
1E00
1C00
1C00
1C00
1C00
3C00
3800
3800
3800
3800
7800
7F00
ENDCHAR
STARTCHAR Ibreve
ENCODING 300
SWIDTH 325 0
DWIDTH 11 0
BBX 15 31 1 0
BITMAP
0802
0C04
0E38
07F0
03E0
0000
07FE
00F8
00F0
00E0
01E0
01E0
01C0
01C0
01C0
03C0
03C0
0380
0380
0380
0780
0780
0700
0700
0F00
0F00
0F00
0E00
1E00
3E00
FFC0
ENDCHAR
STARTCHAR ibreve
ENCODING 301
SWIDTH 289 0
DWIDTH 10 0
BBX 11 24 2 0
BITMAP
8020
C040
E380
7F00
3E00
0000
7F00
0F00
0E00
0E00
0E00
0E00
1E00
1C00
1C00
1C00
1C00
3C00
3800
3800
3800
3800
7800
7F00
ENDCHAR
STARTCHAR Iogonek
ENCODING 302
SWIDTH 325 0
DWIDTH 11 0
BBX 15 31 1 -6
BITMAP
07FE
00F8
00F0
00E0
01E0
01E0
01C0
01C0
01C0
03C0
03C0
0380
0380
0380
0780
0780
0700
0700
0F00
0F00
0F00
0E00
1E00
3E00
FFC0
0000
0300
0600
0C00
0E00
0780
ENDCHAR
STARTCHAR iogonek
ENCODING 303
SWIDTH 289 0
DWIDTH 10 0
BBX 8 31 4 -6
BITMAP
07
0F
0E
00
00
00
00
FE
1C
1C
1C
1C
3C
38
38
38
38
78
70
70
70
70
F0
F0
FC
00
30
60
C0
E0
78
ENDCHAR
STARTCHAR Idotaccent
ENCODING 304
SWIDTH 325 0
DWIDTH 11 0
BBX 15 29 1 0
BITMAP
00E0
01E0
01C0
0000
07FE
00F8
00F0
00E0
01E0
01E0
01C0
01C0
01C0
03C0
03C0
0380
0380
0380
0780
0780
0700
0700
0F00
0F00
0F00
0E00
1E00
3E00
FFC0
ENDCHAR
STARTCHAR dotlessi
ENCODING 305
SWIDTH 289 0
DWIDTH 10 0
BBX 7 18 3 0
BITMAP
FE
1E
1C
1C
1C
1C
3C
38
38
38
38
78
70
70
70
70
F0
FE
ENDCHAR
STARTCHAR IJ
ENCODING 306
SWIDTH 731 0
DWIDTH 24 0
BBX 28 31 1 -6
BITMAP
07FE3FF0
00F807C0
00F00780
00E00700
01E00700
01E00F00
01C00F00
01C00F00
01C00E00
03C00E00
03C00E00
03801E00
03801E00
03801E00
07801C00
07801C00
07003C00
07003C00
0F003C00
0F003800
0F003800
0E003800
1E007800
3E007800
FFC07000
00007000
00306000
0030E000
0070C000
00718000
007E0000
ENDCHAR
STARTCHAR ij
ENCODING 307
SWIDTH 618 0
DWIDTH 22 0
BBX 21 32 4 -7
BITMAP
070038
0F0078
0E0070
000000
000000
000000
000000
FE07F0
1C00E0
1C00E0
1C00E0
1C01E0
3C01E0
3801C0
3801C0
3801C0
3803C0
7803C0
700380
700380
700380
700780
F00780
F00700
FC0700
000F00
000E00
040E00
040C00
0C1800
0E3000
0FC000
ENDCHAR
STARTCHAR Jcircumflex
ENCODING 308
SWIDTH 422 0
DWIDTH 14 0
BBX 19 37 0 -6
BITMAP
001F00
003F00
007380
00E180
0180C0
000000
007FE0
000F80
000F00
000E00
000E00
001E00
001E00
001E00
001C00
001C00
001C00
003C00
003C00
003C00
003800
003800
007800
007800
007800
007000
007000
007000
00F000
00F000
00E000
00E000
60C000
61C000
E18000
E30000
FC0000
ENDCHAR
STARTCHAR jcircumflex
ENCODING 309
SWIDTH 343 0
DWIDTH 12 0
BBX 17 31 -2 -7
BITMAP
003E00
007E00
00E700
01C300
030180
000000
007F00
000E00
000E00
000E00
001E00
001E00
001C00
001C00
001C00
003C00
003C00
003800
003800
003800
007800
007800
007000
007000
00F000
00E000
40E000
40C000
C18000
E30000
FC0000
ENDCHAR
STARTCHAR Kcommaaccent
ENCODING 310
SWIDTH 698 0
DWIDTH 24 0
BBX 26 38 1 -13
BITMAP
07FE1FC0
01F00700
01E00C00
01E01800
01E03000
01C06000
01C08000
01C10000
03C20000
03CC0000
03980000
03B80000
03F80000
07BC0000
079E0000
079E0000
070F0000
07078000
0F078000
0F03C000
0F01E000
0E01E000
1E00F000
3E00F800
FFC3FE00
00000000
003C0000
003C0000
007C0000
00780000
00780000
00180000
00380000
00380000
00300000
00300000
00600000
00C00000
ENDCHAR
STARTCHAR kcommaaccent
ENCODING 311
SWIDTH 560 0
DWIDTH 19 0
BBX 17 39 3 -13
BITMAP
3F0000
070000
070000
0F0000
0F0000
0E0000
0E0000
0E0000
1E0780
1E0700
1C0700
1C0E00
1C1C00
3C3000
3CC000
390000
3F8000
3B8000
7BC000
79E000
71E000
70F000
707800
F07C00
F03E00
E01F80
000000
03C000
03C000
07C000
078000
078000
018000
038000
038000
030000
030000
060000
0C0000
ENDCHAR
STARTCHAR kgreenlandic
ENCODING 312
SWIDTH 560 0
DWIDTH 19 0
BBX 17 18 3 0
BITMAP
1E0780
1E0700
1C0700
1C0E00
1C1C00
3C3000
3CC000
390000
3F8000
3B8000
7BC000
79E000
71E000
70F000
707800
F07C00
F03E00
E01F80
ENDCHAR
STARTCHAR Lacute
ENCODING 313
SWIDTH 572 0
DWIDTH 19 0
BBX 19 31 1 0
BITMAP
001E00
003800
007000
00C000
018000
000000
07FE00
01F000
01E000
01E000
01E000
01C000
01C000
01C000
03C000
03C000
038000
038000
038000
078000
078000
070000
070000
070000
0F0000
0F0000
0F0000
0E0060
1E0060
3E00C0
FFFFC0
ENDCHAR
STARTCHAR lacute
ENCODING 314
SWIDTH 289 0
DWIDTH 10 0
BBX 11 32 3 0
BITMAP
01E0
0380
0700
0C00
1800
0000
3F80
0780
0700
0700
0700
0F00
0F00
0E00
0E00
1E00
1E00
1E00
1C00
1C00
3C00
3C00
3C00
3800
3800
7800
7800
7000
7000
7000
F000
FE00
ENDCHAR
STARTCHAR Lcommaaccent
ENCODING 315
SWIDTH 572 0
DWIDTH 19 0
BBX 19 38 1 -13
BITMAP
07FE00
01F000
01E000
01E000
01E000
01C000
01C000
01C000
03C000
03C000
038000
038000
038000
078000
078000
070000
070000
070000
0F0000
0F0000
0F0000
0E0060
1E0060
3E00C0
FFFFC0
000000
01E000
01E000
03E000
03C000
03C000
00C000
01C000
01C000
018000
018000
030000
060000
ENDCHAR
STARTCHAR lcommaaccent
ENCODING 316
SWIDTH 289 0
DWIDTH 10 0
BBX 9 39 3 -13
BITMAP
3F80
0780
0700
0700
0700
0F00
0F00
0E00
0E00
1E00
1E00
1E00
1C00
1C00
3C00
3C00
3C00
3800
3800
7800
7800
7000
7000
7000
F000
FE00
0000
3C00
3C00
7C00
7800
7800
1800
3800
3800
3000
3000
6000
C000
ENDCHAR
STARTCHAR Lcaron
ENCODING 317
SWIDTH 808 0
DWIDTH 27 0
BBX 29 26 1 0
BITMAP
00000078
07FE0078
01F000F8
01E000F0
01E00030
01E00070
01C00060
01C00060
01C001C0
03C00180
03C00000
03800000
03800000
03800000
07800000
07800000
07000000
07000000
07000000
0F000000
0F000000
0F000000
0E006000
1E006000
3E00C000
FFFFC000
ENDCHAR
STARTCHAR lcaron
ENCODING 318
SWIDTH 540 0
DWIDTH 19 0
BBX 19 26 3 0
BITMAP
3F81E0
0781E0
0703E0
0703C0
0700C0
0F01C0
0F0180
0E0180
0E0700
1E0600
1E0000
1E0000
1C0000
1C0000
3C0000
3C0000
3C0000
380000
380000
780000
780000
700000
700000
700000
F00000
FE0000
ENDCHAR
STARTCHAR Ldot
ENCODING 319
SWIDTH 1151 0
DWIDTH 39 0
BBX 31 25 1 0
BITMAP
07FE0000
01F00000
01E00000
01E00000
01E00000
01C00000
01C00000
01C00000
03C00000
03C00000
03800000
03800000
03800000
0780000E
0780001E
0700001E
07000000
07000000
0F000000
0F000000
0F000000
0E006000
1E006000
3E00C000
FFFFC000
ENDCHAR
STARTCHAR ldot
ENCODING 320
SWIDTH 883 0
DWIDTH 31 0
BBX 21 26 3 0
BITMAP
3F8000
078000
070000
070000
070000
0F0000
0F0000
0E0000
0E0000
1E0000
1E0000
1E0000
1C0000
1C0000
3C0038
3C0078
3C0078
380000
380000
780000
780000
700000
700000
700000
F00000
FE0000
ENDCHAR
STARTCHAR Lslash
ENCODING 321
SWIDTH 572 0
DWIDTH 19 0
BBX 19 25 0 0
BITMAP
07FE00
00F000
00E000
01E000
01E000
01E000
01C000
01C000
03C000
03CC00
03F000
03C000
038000
0F8000
378000
678000
070000
070000
0F0000
0F0000
0F0000
0E0060
1E0060
1E00C0
FFFFC0
ENDCHAR
STARTCHAR lslash
ENCODING 322
SWIDTH 289 0
DWIDTH 10 0
BBX 11 26 2 0
BITMAP
1FC0
0380
0380
0380
0380
0780
0700
0700
0700
0700
0F00
0EE0
0F80
7E00
CE00
1E00
1C00
1C00
1C00
1C00
3C00
3800
3800
3800
3800
7F00
ENDCHAR
STARTCHAR Nacute
ENCODING 323
SWIDTH 762 0
DWIDTH 26 0
BBX 29 31 1 0
BITMAP
0000F000
0001C000
00038000
00060000
000C0000
00000000
07C003F8
01E000E0
01E000C0
01F000C0
01F80080
01780080
013C0080
033C0180
031E0180
031E0100
020F0100
02070100
06078300
06038300
0603C200
0601E200
0401E200
0400F600
0C00F600
0C007E00
0C003C00
08003C00
18001C00
38001C00
FF000C00
ENDCHAR
STARTCHAR nacute
ENCODING 324
SWIDTH 631 0
DWIDTH 21 0
BBX 18 24 3 0
BITMAP
001E00
003800
007000
00C000
018000
000000
FE0F00
1E1F80
1C73C0
1CC3C0
1D8380
3D0380
3E0380
3E0380
3C0780
380700
780700
780700
700700
700F00
700E00
F00E00
F00E00
E01FC0
ENDCHAR
STARTCHAR Ncommaaccent
ENCODING 325
SWIDTH 762 0
DWIDTH 26 0
BBX 29 38 1 -13
BITMAP
07C003F8
01E000E0
01E000C0
01F000C0
01F80080
01780080
013C0080
033C0180
031E0180
031E0100
020F0100
02070100
06078300
06038300
0603C200
0601E200
0401E200
0400F600
0C00F600
0C007E00
0C003C00
08003C00
18001C00
38001C00
FF000C00
00000000
000F0000
000F0000
001F0000
001E0000
001E0000
00060000
000E0000
000E0000
000C0000
000C0000
00180000
00300000
ENDCHAR
STARTCHAR ncommaaccent
ENCODING 326
SWIDTH 631 0
DWIDTH 21 0
BBX 18 31 3 -13
BITMAP
FE0F00
1E1F80
1C73C0
1CC3C0
1D8380
3D0380
3E0380
3E0380
3C0780
380700
780700
780700
700700
700F00
700E00
F00E00
F00E00
E01FC0
000000
01E000
01E000
03E000
03C000
03C000
00C000
01C000
01C000
018000
018000
030000
060000
ENDCHAR
STARTCHAR Ncaron
ENCODING 327
SWIDTH 762 0
DWIDTH 26 0
BBX 29 31 1 0
BITMAP
00301800
00187000
001CE000
000FC000
000F8000
00000000
07C003F8
01E000E0
01E000C0
01F000C0
01F80080
01780080
013C0080
033C0180
031E0180
031E0100
020F0100
02070100
06078300
06038300
0603C200
0601E200
0401E200
0400F600
0C00F600
0C007E00
0C003C00
08003C00
18001C00
38001C00
FF000C00
ENDCHAR
STARTCHAR ncaron
ENCODING 328
SWIDTH 631 0
DWIDTH 21 0
BBX 18 24 3 0
BITMAP
0C0600
061C00
073800
03F000
03E000
000000
FE0F00
1E1F80
1C73C0
1CC3C0
1D8380
3D0380
3E0380
3E0380
3C0780
380700
780700
780700
700700
700F00
700E00
F00E00
F00E00
E01FC0
ENDCHAR
STARTCHAR napostrophe
ENCODING 329
SWIDTH 883 0
DWIDTH 30 0
BBX 24 26 6 0
BITMAP
3C0000
3C0000
7C0000
780000
180000
380000
300000
300000
E3F83C
C0787E
0071CF
00730F
00760E
00F40E
00F80E
00F80E
00F01E
00E01C
01E01C
01E01C
01C01C
01C03C
01C038
03C038
03C038
03807F
ENDCHAR
STARTCHAR Eng
ENCODING 330
SWIDTH 762 0
DWIDTH 26 0
BBX 29 32 1 -7
BITMAP
07C003F8
01E000E0
01E000C0
01F000C0
01F80080
01780080
013C0080
033C0180
031E0180
031E0100
020F0100
02070100
06078300
06038300
0603C200
0601E200
0401E200
0400FE00
0C00FE00
0C007E00
0C003C00
08003C00
18003C00
38003C00
FF003C00
00007800
00007000
00207000
00206000
0060C000
00718000
007E0000
ENDCHAR
STARTCHAR eng
ENCODING 331
SWIDTH 631 0
DWIDTH 21 0
BBX 18 25 3 -7
BITMAP
FE0F00
1E1F80
1C73C0
1CC3C0
1D8380
3D0380
3E0380
3E0380
3C0780
380700
780F00
780E00
700E00
700E00
701E00
F01E00
F01C00
E01C00
003C00
003800
103800
103000
306000
38C000
3F0000
ENDCHAR
STARTCHAR Omacron
ENCODING 332
SWIDTH 783 0
DWIDTH 27 0
BBX 24 27 4 0
BITMAP
007FE0
000000
001FC0
007070
01C03C
03801C
07000E
0E000E
1C000F
3C000F
38000F
78000F
78000F
70000F
F0000F
F0000E
F0001E
F0001E
F0001C
F0003C
F00038
F00070
7000E0
7801C0
3C0380
0E0E00
03F800
ENDCHAR
STARTCHAR omacron
ENCODING 333
SWIDTH 560 0
DWIDTH 19 0
BBX 17 20 3 0
BITMAP
07FE00
000000
00FC00
030E00
0E0700
1C0700
1C0780
380780
780780
700780
700780
F00700
F00700
F00F00
F00E00
F01C00
F01800
703000
78E000
1F8000
ENDCHAR
STARTCHAR Obreve
ENCODING 334
SWIDTH 783 0
DWIDTH 27 0
BBX 24 31 4 0
BITMAP
004010
006020
0071C0
003F80
001F00
000000
001FC0
007070
01C03C
03801C
07000E
0E000E
1C000F
3C000F
38000F
78000F
78000F
70000F
F0000F
F0000E
F0001E
F0001E
F0001C
F0003C
F00038
F00070
7000E0
7801C0
3C0380
0E0E00
03F800
ENDCHAR
STARTCHAR obreve
ENCODING 335
SWIDTH 560 0
DWIDTH 19 0
BBX 17 24 3 0
BITMAP
040100
060200
071C00
03F800
01F000
000000
00FC00
030E00
0E0700
1C0700
1C0780
380780
780780
700780
700780
F00700
F00700
F00F00
F00E00
F01C00
F01800
703000
78E000
1F8000
ENDCHAR
STARTCHAR Ohungarumlaut
ENCODING 336
SWIDTH 783 0
DWIDTH 27 0
BBX 24 31 4 0
BITMAP
000770
000CC0
001980
003300
006600
000000
001FC0
007070
01C03C
03801C
07000E
0E000E
1C000F
3C000F
38000F
78000F
78000F
70000F
F0000F
F0000E
F0001E
F0001E
F0001C
F0003C
F00038
F00070
7000E0
7801C0
3C0380
0E0E00
03F800
ENDCHAR
STARTCHAR ohungarumlaut
ENCODING 337
SWIDTH 560 0
DWIDTH 19 0
BBX 17 24 3 0
BITMAP
003B80
006600
00CC00
019800
033000
000000
00FC00
030E00
0E0700
1C0700
1C0780
380780
780780
700780
700780
F00700
F00700
F00F00
F00E00
F01C00
F01800
703000
78E000
1F8000
ENDCHAR
STARTCHAR OE
ENCODING 338
SWIDTH 1005 0
DWIDTH 34 0
BBX 34 25 4 0
BITMAP
000FCFFFC0
00707E00C0
01C03E00C0
03801E0180
07001E0180
0E001E0000
1E001C0000
1C001C0000
38003C0000
78003C0000
78003C0400
7000380C00
F0003FFC00
F000780C00
F000780800
F000780000
F000700000
F000F00000
F000F00000
F000F00000
7001F00600
7801E00600
3C03E00C00
0E0FF01C00
03FDFFFC00
ENDCHAR
STARTCHAR oe
ENCODING 339
SWIDTH 892 0
DWIDTH 30 0
BBX 27 18 3 0
BITMAP
00FC0FC0
030E11E0
060760E0
1C07C0E0
1807C0E0
380780E0
780781E0
700781C0
70078380
F0070E00
F007F800
F00F0000
F00F0000
F00F0000
F01F8020
703F80E0
7863C380
1F81FC00
ENDCHAR
STARTCHAR Racute
ENCODING 340
SWIDTH 686 0
DWIDTH 23 0
BBX 23 31 1 0
BITMAP
0001E0
000380
000700
000C00
001800
000000
07FFE0
00E0F8
00E03C
00E03C
01E01C
01E03C
01C03C
01C03C
01C038
03C078
03C0F0
0383C0
03FF00
078F00
078F00
078780
070780
0703C0
0F03C0
0F01E0
0F01E0
0E00F0
1E00F0
3E0078
FFC07E
ENDCHAR
STARTCHAR racute
ENCODING 341
SWIDTH 470 0
DWIDTH 16 0
BBX 15 24 4 0
BITMAP
0078
00E0
01C0
0300
0600
0000
FE0E
1C1C
1C7C
1CF8
1CC0
3D00
3A00
3C00
3C00
3800
7800
7800
7000
7000
7000
F000
F000
E000
ENDCHAR
STARTCHAR Rcommaaccent
ENCODING 342
SWIDTH 686 0
DWIDTH 23 0
BBX 23 38 1 -13
BITMAP
07FFE0
00E0F8
00E03C
00E03C
01E01C
01E03C
01C03C
01C03C
01C038
03C078
03C0F0
0383C0
03FF00
078F00
078F00
078780
070780
0703C0
0F03C0
0F01E0
0F01E0
0E00F0
1E00F0
3E0078
FFC07E
000000
003C00
003C00
007C00
007800
007800
001800
003800
003800
003000
003000
006000
00C000
ENDCHAR
STARTCHAR rcommaaccent
ENCODING 343
SWIDTH 470 0
DWIDTH 16 0
BBX 15 31 4 -13
BITMAP
FE0E
1C1C
1C7C
1CF8
1CC0
3D00
3A00
3C00
3C00
3800
7800
7800
7000
7000
7000
F000
F000
E000
0000
3C00
3C00
7C00
7800
7800
1800
3800
3800
3000
3000
6000
C000
ENDCHAR
STARTCHAR Rcaron
ENCODING 344
SWIDTH 686 0
DWIDTH 23 0
BBX 23 31 1 0
BITMAP
00C060
0061C0
007380
003F00
003E00
000000
07FFE0
00E0F8
00E03C
00E03C
01E01C
01E03C
01C03C
01C03C
01C038
03C078
03C0F0
0383C0
03FF00
078F00
078F00
078780
070780
0703C0
0F03C0
0F01E0
0F01E0
0E00F0
1E00F0
3E0078
FFC07E
ENDCHAR
STARTCHAR rcaron
ENCODING 345
SWIDTH 470 0
DWIDTH 16 0
BBX 15 24 4 0
BITMAP
180C
0C38
0E70
07E0
07C0
0000
FE0E
1C1C
1C7C
1CF8
1CC0
3D00
3A00
3C00
3C00
3800
7800
7800
7000
7000
7000
F000
F000
E000
ENDCHAR
STARTCHAR Sacute
ENCODING 346
SWIDTH 549 0
DWIDTH 19 0
BBX 20 31 2 0
BITMAP
000780
000E00
001C00
003000
006000
000000
007F80
01C1F0
038060
070060
070060
0F00E0
0F0000
0F0000
0F0000
078000
03C000
01F000
00F800
007C00
003E00
001F00
000F00
000F00
000F00
600F00
600E00
E00E00
E01C00
F03800
1FC000
ENDCHAR
STARTCHAR sacute
ENCODING 347
SWIDTH 440 0
DWIDTH 15 0
BBX 14 24 2 0
BITMAP
003C
0070
00E0
0180
0300
0000
03F8
061C
0C0C
1C0C
1C08
1E00
0F00
0F80
07C0
03E0
01E0
00F0
0070
4070
C070
C070
F0E0
3F80
ENDCHAR
STARTCHAR Scircumflex
ENCODING 348
SWIDTH 549 0
DWIDTH 19 0
BBX 20 31 2 0
BITMAP
003E00
007E00
00E700
01C300
030180
000000
007F80
01C1F0
038060
070060
070060
0F00E0
0F0000
0F0000
0F0000
078000
03C000
01F000
00F800
007C00
003E00
001F00
000F00
000F00
000F00
600F00
600E00
E00E00
E01C00
F03800
1FC000
ENDCHAR
STARTCHAR scircumflex
ENCODING 349
SWIDTH 440 0
DWIDTH 15 0
BBX 14 24 2 0
BITMAP
01F0
03F0
0738
0E18
180C
0000
03F8
061C
0C0C
1C0C
1C08
1E00
0F00
0F80
07C0
03E0
01E0
00F0
0070
4070
C070
C070
F0E0
3F80
ENDCHAR
STARTCHAR Scedilla
ENCODING 350
SWIDTH 549 0
DWIDTH 19 0
BBX 20 32 2 -7
BITMAP
007F80
01C1F0
038060
070060
070060
0F00E0
0F0000
0F0000
0F0000
078000
03C000
01F000
00F800
007C00
003E00
001F00
000F00
000F00
000F00
600F00
600E00
E00E00
E01C00
F03800
1FC000
008000
01C000
00E000
006000
006000
00E000
03C000
ENDCHAR
STARTCHAR scedilla
ENCODING 351
SWIDTH 440 0
DWIDTH 15 0
BBX 14 25 2 -7
BITMAP
03F8
061C
0C0C
1C0C
1C08
1E00
0F00
0F80
07C0
03E0
01E0
00F0
0070
4070
C070
C070
F0E0
3F80
0200
0700
0380
0180
0180
0380
0F00
ENDCHAR
STARTCHAR Scaron
ENCODING 352
SWIDTH 549 0
DWIDTH 19 0
BBX 20 32 2 0
BITMAP
006030
0030E0
0039C0
001F80
001F00
000000
000000
007F80
01C1F0
038060
070060
070060
0F00E0
0F0000
0F0000
0F0000
078000
03C000
01F000
00F800
007C00
003E00
001F00
000F00
000F00
000F00
600F00
600E00
E00E00
E01C00
F03800
1FC000
ENDCHAR
STARTCHAR scaron
ENCODING 353
SWIDTH 440 0
DWIDTH 15 0
BBX 18 25 2 0
BITMAP
0180C0
00C380
00E700
007E00
007C00
000000
000000
03F800
061C00
0C0C00
1C0C00
1C0800
1E0000
0F0000
0F8000
07C000
03E000
01E000
00F000
007000
407000
C07000
C07000
F0E000
3F8000
ENDCHAR
STARTCHAR Tcommaaccent
ENCODING 354
SWIDTH 663 0
DWIDTH 23 0
BBX 22 32 5 -7
BITMAP
7FFFFC
60780C
C07808
C07018
007000
007000
00F000
00F000
00E000
00E000
00E000
01E000
01E000
01E000
01C000
01C000
03C000
03C000
03C000
038000
038000
078000
078000
0F8000
7FF000
008000
01C000
00E000
006000
006000
00E000
03C000
ENDCHAR
STARTCHAR tcommaaccent
ENCODING 355
SWIDTH 355 0
DWIDTH 12 0
BBX 11 30 4 -7
BITMAP
0200
0E00
1E00
1E00
1C00
FFE0
1C00
1C00
3C00
3800
3800
3800
7800
7800
7000
7000
7000
F000
F000
F000
7000
7000
3E00
1000
3800
1C00
0C00
0C00
1C00
7800
ENDCHAR
STARTCHAR Tcaron
ENCODING 356
SWIDTH 663 0
DWIDTH 23 0
BBX 22 31 5 0
BITMAP
030180
018700
01CE00
00FC00
00F800
000000
7FFFFC
60780C
C07808
C07018
007000
007000
00F000
00F000
00E000
00E000
00E000
01E000
01E000
01E000
01C000
01C000
03C000
03C000
03C000
038000
038000
078000
078000
0F8000
7FF000
ENDCHAR
STARTCHAR tcaron
ENCODING 357
SWIDTH 602 0
DWIDTH 20 0
BBX 19 26 4 0
BITMAP
0001E0
0001E0
0003E0
0203C0
0E00C0
1E01C0
1E0180
1C0180
FFE700
1C0600
1C0000
3C0000
380000
380000
380000
780000
780000
700000
700000
700000
F00000
F00000
F00000
700000
700000
3E0000
ENDCHAR
STARTCHAR Tbar
ENCODING 358
SWIDTH 663 0
DWIDTH 23 0
BBX 22 25 5 0
BITMAP
7FFFFC
60780C
C07808
C07018
007000
007000
00F000
00F000
00E000
00E000
00E000
0FFFE0
0FFFE0
01E000
01C000
01C000
03C000
03C000
03C000
038000
038000
078000
078000
0F8000
7FF000
ENDCHAR
STARTCHAR tbar
ENCODING 359
SWIDTH 355 0
DWIDTH 12 0
BBX 15 23 2 0
BITMAP
0080
0380
0780
0780
0700
3FF8
0700
0700
0F00
0E00
0E00
0E00
1E00
FFFE
FFFE
1C00
1C00
3C00
3C00
3C00
1C00
1C00
0F80
ENDCHAR
STARTCHAR Utilde
ENCODING 360
SWIDTH 727 0
DWIDTH 25 0
BBX 24 30 5 0
BITMAP
01C100
03F300
067E00
043C00
000000
FFC0FF
1F001C
1E0018
1C0010
1C0030
3C0030
3C0030
380020
380020
380060
780060
780060
700040
700040
7000C0
F000C0
F000C0
E00080
E00180
E00180
F00300
700200
780600
3C1800
0FE000
ENDCHAR
STARTCHAR utilde
ENCODING 361
SWIDTH 630 0
DWIDTH 21 0
BBX 18 23 3 0
BITMAP
038200
07E600
0CFC00
087800
000000
FE1FC0
1C03C0
1C0380
1C0380
3C0380
380380
380780
380700
380700
780F00
700F00
701F00
702E00
704E00
F08E00
F10E00
7E1E00
381FC0
ENDCHAR
STARTCHAR Umacron
ENCODING 362
SWIDTH 727 0
DWIDTH 25 0
BBX 24 27 5 0
BITMAP
03FF00
000000
FFC0FF
1F001C
1E0018
1C0010
1C0030
3C0030
3C0030
380020
380020
380060
780060
780060
700040
700040
7000C0
F000C0
F000C0
E00080
E00180
E00180
F00300
700200
780600
3C1800
0FE000
ENDCHAR
STARTCHAR umacron
ENCODING 363
SWIDTH 630 0
DWIDTH 21 0
BBX 18 20 3 0
BITMAP
0FFC00
000000
FE1FC0
1C03C0
1C0380
1C0380
3C0380
380380
380780
380700
380700
780F00
700F00
701F00
702E00
704E00
F08E00
F10E00
7E1E00
381FC0
ENDCHAR
STARTCHAR Ubreve
ENCODING 364
SWIDTH 727 0
DWIDTH 25 0
BBX 24 31 5 0
BITMAP
020080
030100
038E00
01FC00
00F800
000000
FFC0FF
1F001C
1E0018
1C0010
1C0030
3C0030
3C0030
380020
380020
380060
780060
780060
700040
700040
7000C0
F000C0
F000C0
E00080
E00180
E00180
F00300
700200
780600
3C1800
0FE000
ENDCHAR
STARTCHAR ubreve
ENCODING 365
SWIDTH 630 0
DWIDTH 21 0
BBX 18 24 3 0
BITMAP
040100
060200
071C00
03F800
01F000
000000
FE1FC0
1C03C0
1C0380
1C0380
3C0380
380380
380780
380700
380700
780F00
700F00
701F00
702E00
704E00
F08E00
F10E00
7E1E00
381FC0
ENDCHAR
STARTCHAR Uring
ENCODING 366
SWIDTH 727 0
DWIDTH 25 0
BBX 24 31 5 0
BITMAP
007000
008800
008800
008800
007000
000000
FFC0FF
1F001C
1E0018
1C0010
1C0030
3C0030
3C0030
380020
380020
380060
780060
780060
700040
700040
7000C0
F000C0
F000C0
E00080
E00180
E00180
F00300
700200
780600
3C1800
0FE000
ENDCHAR
STARTCHAR uring
ENCODING 367
SWIDTH 630 0
DWIDTH 21 0
BBX 18 24 3 0
BITMAP
00E000
011000
011000
011000
00E000
000000
FE1FC0
1C03C0
1C0380
1C0380
3C0380
380380
380780
380700
380700
780F00
700F00
701F00
702E00
704E00
F08E00
F10E00
7E1E00
381FC0
ENDCHAR
STARTCHAR Uhungarumlaut
ENCODING 368
SWIDTH 727 0
DWIDTH 25 0
BBX 24 31 5 0
BITMAP
001DC0
003300
006600
00CC00
019800
000000
FFC0FF
1F001C
1E0018
1C0010
1C0030
3C0030
3C0030
380020
380020
380060
780060
780060
700040
700040
7000C0
F000C0
F000C0
E00080
E00180
E00180
F00300
700200
780600
3C1800
0FE000
ENDCHAR
STARTCHAR uhungarumlaut
ENCODING 369
SWIDTH 630 0
DWIDTH 21 0
BBX 18 24 3 0
BITMAP
007700
00CC00
019800
033000
066000
000000
FE1FC0
1C03C0
1C0380
1C0380
3C0380
380380
380780
380700
380700
780F00
700F00
701F00
702E00
704E00
F08E00
F10E00
7E1E00
381FC0
ENDCHAR
STARTCHAR Uogonek
ENCODING 370
SWIDTH 727 0
DWIDTH 25 0
BBX 24 31 5 -6
BITMAP
FFC0FF
1F001C
1E0018
1C0010
1C0030
3C0030
3C0030
380020
380020
380060
780060
780060
700040
700040
7000C0
F000C0
F000C0
E00080
E00180
E00180
F00300
700200
780600
3C1800
0FE000
000000
00C000
018000
030000
038000
01E000
ENDCHAR
STARTCHAR uogonek
ENCODING 371
SWIDTH 630 0
DWIDTH 21 0
BBX 18 24 3 -6
BITMAP
FE1FC0
1C03C0
1C0380
1C0380
3C0380
380380
380780
380700
380700
780F00
700F00
701F00
702E00
704E00
F08E00
F10E00
7E1E00
381FC0
000000
00C000
018000
030000
038000
01E000
ENDCHAR
STARTCHAR Wcircumflex
ENCODING 372
SWIDTH 878 0
DWIDTH 30 0
BBX 31 31 4 0
BITMAP
000F8000
001F8000
0039C000
0070C000
00C06000
00000000
FF8180FE
3C018018
3C038030
3C038020
3C078020
3C078040
3C0FC040
3C0BC080
1C1BC080
1C13C100
1C11C100
1C21C200
1C21C200
1C41C400
1C41C400
1C81C800
1C81C800
1D01D000
1D01D000
1E01E000
1E01E000
1C01C000
1C01C000
18018000
18008000
ENDCHAR
STARTCHAR wcircumflex
ENCODING 373
SWIDTH 805 0
DWIDTH 27 0
BBX 27 24 2 0
BITMAP
000F8000
001F8000
0039C000
0070C000
00C06000
00000000
FC0201E0
3C0300E0
1C0700E0
1E0700C0
0E0781C0
0E0F8180
0E0B8100
0F1B8300
0713C200
0731C400
0761CC00
0741C800
07C1D000
0781F000
0781E000
0701C000
06018000
06018000
ENDCHAR
STARTCHAR Ycircumflex
ENCODING 374
SWIDTH 663 0
DWIDTH 23 0
BBX 23 31 4 0
BITMAP
007C00
00FC00
01CE00
038600
060300
000000
FF80FE
3E0038
3E0030
1E0060
1E0040
0F0080
0F0100
070200
078600
078400
038800
03D000
01E000
01E000
01C000
01C000
01C000
03C000
03C000
038000
038000
078000
078000
0F8000
3FF000
ENDCHAR
STARTCHAR ycircumflex
ENCODING 375
SWIDTH 558 0
DWIDTH 19 0
BBX 21 31 0 -7
BITMAP
003E00
007E00
00E700
01C300
030180
000000
3F0078
0F8038
078038
038038
038030
03C070
01C060
01C0C0
01C080
01C100
01E300
00E600
00E400
00E800
00F000
00F000
00E000
00C000
008000
010000
030000
0E0000
1C0000
380000
F80000
ENDCHAR
STARTCHAR Ydieresis
ENCODING 376
SWIDTH 663 0
DWIDTH 23 0
BBX 23 29 4 0
BITMAP
00E1C0
00E3C0
000000
000000
FF80FE
3E0038
3E0030
1E0060
1E0040
0F0080
0F0100
070200
078600
078400
038800
03D000
01E000
01E000
01C000
01C000
01C000
03C000
03C000
038000
038000
078000
078000
0F8000
3FF000
ENDCHAR
STARTCHAR Zacute
ENCODING 377
SWIDTH 633 0
DWIDTH 21 0
BBX 22 31 2 0
BITMAP
0001E0
000380
000700
000C00
001800
000000
07FFFC
070038
060078
0600F0
0E01E0
0001C0
000380
000780
000F00
001E00
001C00
003C00
007800
00F000
01E000
01E000
03C000
078000
0F0000
0E0000
1E0000
3C0060
7800C0
F001C0
FFFFC0
ENDCHAR
STARTCHAR zacute
ENCODING 378
SWIDTH 536 0
DWIDTH 18 0
BBX 18 24 2 0
BITMAP
000F00
001C00
003800
006000
00C000
000000
0FFFC0
0C0380
080700
180F00
001E00
003C00
007800
00F000
00E000
01C000
038000
078000
0F0000
1E0000
3C0300
780300
700600
FFFE00
ENDCHAR
STARTCHAR Zdotaccent
ENCODING 379
SWIDTH 633 0
DWIDTH 21 0
BBX 22 29 2 0
BITMAP
000E00
001E00
001C00
000000
07FFFC
070038
060078
0600F0
0E01E0
0001C0
000380
000780
000F00
001E00
001C00
003C00
007800
00F000
01E000
01E000
03C000
078000
0F0000
0E0000
1E0000
3C0060
7800C0
F001C0
FFFFC0
ENDCHAR
STARTCHAR zdotaccent
ENCODING 380
SWIDTH 536 0
DWIDTH 18 0
BBX 18 22 2 0
BITMAP
003800
007800
007000
000000
0FFFC0
0C0380
080700
180F00
001E00
003C00
007800
00F000
00E000
01C000
038000
078000
0F0000
1E0000
3C0300
780300
700600
FFFE00
ENDCHAR
STARTCHAR Zcaron
ENCODING 381
SWIDTH 633 0
DWIDTH 21 0
BBX 22 32 2 0
BITMAP
003018
001870
001CE0
000FC0
000F80
000000
000000
07FFFC
070038
060078
0600F0
0E01E0
0001C0
000380
000780
000F00
001E00
001C00
003C00
007800
00F000
01E000
01E000
03C000
078000
0F0000
0E0000
1E0000
3C0060
7800C0
F001C0
FFFFC0
ENDCHAR
STARTCHAR zcaron
ENCODING 382
SWIDTH 536 0
DWIDTH 18 0
BBX 19 25 2 0
BITMAP
00C060
0061C0
007380
003F00
003E00
000000
000000
0FFFC0
0C0380
080700
180F00
001E00
003C00
007800
00F000
00E000
01C000
038000
078000
0F0000
1E0000
3C0300
780300
700600
FFFE00
ENDCHAR
STARTCHAR uni0186
ENCODING 390
SWIDTH 714 0
DWIDTH 24 0
BBX 23 25 4 0
BITMAP
007F80
0781E0
0C0078
000038
00003C
00001C
00001E
00001E
00001E
00001E
00001E
00001E
00001E
00001C
00003C
00003C
000078
000078
0000F0
6000E0
6001C0
600380
E00F00
F83C00
3FE000
ENDCHAR
STARTCHAR uni0189
ENCODING 393
SWIDTH 770 0
DWIDTH 26 0
BBX 26 25 1 0
BITMAP
07FFF800
01E03E00
01E00F00
01E00780
01C00380
01C003C0
01C003C0
03C003C0
03C003C0
03C003C0
038003C0
038003C0
3FFE03C0
07800380
07800380
07000780
07000700
0F000F00
0F000E00
0F001E00
0E003C00
0E007800
1E00F000
3F03C000
FFFE0000
ENDCHAR
STARTCHAR uni018E
ENCODING 398
SWIDTH 569 0
DWIDTH 19 0
BBX 22 25 1 0
BITMAP
0FFFFC
0C03F0
1801E0
1801C0
0003C0
0003C0
0003C0
000380
000380
000780
040780
040780
0FFF00
0C0F00
080F00
000F00
000E00
000E00
000E00
001E00
001E00
601E00
601C00
C01C00
FFFF80
ENDCHAR
STARTCHAR florin
ENCODING 402
SWIDTH 608 0
DWIDTH 21 0
BBX 16 31 6 -6
BITMAP
003F
00C7
0183
0382
0306
0700
0700
0700
0F00
0E00
0E00
0E00
FFE0
1E00
1C00
1C00
1C00
1C00
3C00
3C00
3800
3800
3800
7800
7800
7000
7000
7000
F000
F000
E000
ENDCHAR
STARTCHAR uni0197
ENCODING 407
SWIDTH 325 0
DWIDTH 11 0
BBX 15 25 1 0
BITMAP
07FE
00F8
00F0
00E0
01E0
01E0
01C0
01C0
01C0
03C0
03C0
FFFE
FFFE
0380
0780
0780
0700
0700
0F00
0F00
0F00
0E00
1E00
3E00
FFC0
ENDCHAR
STARTCHAR uni019A
ENCODING 410
SWIDTH 289 0
DWIDTH 10 0
BBX 15 26 0 0
BITMAP
07F0
00F0
00E0
00E0
00E0
01E0
01E0
01C0
01C0
03C0
03C0
03C0
FFFE
FFFE
0780
0780
0780
0700
0700
0F00
0F00
0E00
0E00
0E00
1E00
1FC0
ENDCHAR
STARTCHAR uni019D
ENCODING 413
SWIDTH 762 0
DWIDTH 26 0
BBX 34 32 -4 -7
BITMAP
003E001FC0
000F000700
000F000600
000F800600
000FC00400
000BC00400
0009E00400
0019E00C00
0018F00C00
0018F00800
0010780800
0010380800
00303C1800
00301C1800
00301E1000
00300F1000
00200F1000
003C07B000
003807B000
003803F000
003801E000
007801E000
007800E000
007000E000
0070006000
00F0000000
00E0000000
40E0000000
40C0000000
C180000000
E300000000
FC00000000
ENDCHAR
STARTCHAR uni019F
ENCODING 415
SWIDTH 783 0
DWIDTH 27 0
BBX 24 25 4 0
BITMAP
001FC0
007070
01C03C
03801C
07000E
0E000E
1C000F
3C000F
38000F
78000F
78000F
FFFFFF
FFFFFF
F0000E
F0001E
F0001E
F0001C
F0003C
F00038
F00070
7000E0
7801C0
3C0380
0E0E00
03F800
ENDCHAR
STARTCHAR Ohorn
ENCODING 416
SWIDTH 783 0
DWIDTH 27 0
BBX 28 25 4 0
BITMAP
001FC0F0
007070F0
01C03DF0
03801DE0
07000E60
0E000EE0
1C000FC0
3C000FC0
38000F80
78000F00
78000F00
70000F00
F0000F00
F0000E00
F0001E00
F0001E00
F0001C00
F0003C00
F0003800
F0007000
7000E000
7801C000
3C038000
0E0E0000
03F80000
ENDCHAR
STARTCHAR ohorn
ENCODING 417
SWIDTH 560 0
DWIDTH 19 0
BBX 21 18 3 0
BITMAP
00FC78
030E78
0E07F8
1C07F0
1C07B0
3807F0
7807E0
7007E0
7007C0
F00780
F00700
F00F00
F00E00
F01C00
F01800
703000
78E000
1F8000
ENDCHAR
STARTCHAR Uhorn
ENCODING 431
SWIDTH 727 0
DWIDTH 25 0
BBX 28 25 5 0
BITMAP
FFC0FFF0
1F001CF0
1E0019F0
1C0011E0
1C003060
3C0030E0
3C0030C0
380020C0
38002380
38006300
78006000
78006000
70004000
70004000
7000C000
F000C000
F000C000
E0008000
E0018000
E0018000
F0030000
70020000
78060000
3C180000
0FE00000
ENDCHAR
STARTCHAR uhorn
ENCODING 432
SWIDTH 630 0
DWIDTH 21 0
BBX 22 18 3 0
BITMAP
FE1FFC
1C03FC
1C03FC
1C03F8
3C0398
3803B8
3807B0
380730
3807E0
780FC0
700F00
701F00
702E00
704E00
F08E00
F10E00
7E1E00
381FC0
ENDCHAR
STARTCHAR uni01B5
ENCODING 437
SWIDTH 633 0
DWIDTH 21 0
BBX 22 25 2 0
BITMAP
07FFFC
070038
060078
0600F0
0E01E0
0001C0
000380
000780
000F00
001E00
001C00
0FFFE0
0FFFE0
00F000
01E000
01E000
03C000
078000
0F0000
0E0000
1E0000
3C0060
7800C0
F001C0
FFFFC0
ENDCHAR
STARTCHAR uni01B6
ENCODING 438
SWIDTH 536 0
DWIDTH 18 0
BBX 18 18 2 0
BITMAP
0FFFC0
0C0380
080700
180F00
001E00
003C00
007800
00F000
3FFF80
3FFF80
038000
078000
0F0000
1E0000
3C0300
780300
700600
FFFE00
ENDCHAR
STARTCHAR uni01BB
ENCODING 443
SWIDTH 608 0
DWIDTH 21 0
BBX 19 25 3 0
BITMAP
00FE00
070780
0601C0
0601E0
0C01E0
0001E0
0001E0
0001E0
0001C0
0003C0
000780
FFFFE0
FFFFE0
003800
006000
00C000
038000
060000
0C0000
180000
380000
700000
700000
FFFF00
FFFE00
ENDCHAR
STARTCHAR uni01BC
ENCODING 444
SWIDTH 608 0
DWIDTH 21 0
BBX 18 25 4 0
BITMAP
07FFC0
07FFC0
040000
080000
080000
080000
080000
080000
180000
1FC000
007800
003C00
001E00
000E00
000E00
000F00
000E00
000E00
000E00
001E00
401C00
403800
C07000
E0E000
7F8000
ENDCHAR
STARTCHAR uni01C0
ENCODING 448
SWIDTH 241 0
DWIDTH 8 0
BBX 8 32 2 -6
BITMAP
03
07
07
06
06
06
06
0E
0C
0C
0C
0C
0C
1C
18
18
18
18
38
30
30
30
30
30
70
60
60
60
60
E0
E0
C0
ENDCHAR
STARTCHAR uni01C2
ENCODING 450
SWIDTH 608 0
DWIDTH 21 0
BBX 21 32 2 -6
BITMAP
000600
000E00
000E00
000C00
000C00
000C00
000C00
001C00
001800
001800
001800
001800
7FFFF8
003800
003000
003000
003000
003000
007000
006000
FFFFF0
006000
006000
006000
00E000
00C000
00C000
00C000
00C000
01C000
01C000
018000
ENDCHAR
STARTCHAR uni01C3
ENCODING 451
SWIDTH 265 0
DWIDTH 9 0
BBX 8 25 3 0
BITMAP
07
0F
0F
0E
0E
0E
0E
0C
1C
1C
1C
18
18
18
10
10
10
30
00
00
00
00
70
F0
E0
ENDCHAR
STARTCHAR uni01CD
ENCODING 461
SWIDTH 747 0
DWIDTH 25 0
BBX 25 31 0 0
BITMAP
00301800
00187000
001CE000
000FC000
000F8000
00000000
00004000
0000C000
0000E000
0001E000
0002E000
0002E000
0004E000
0004F000
0008F000
0010F000
00107000
00207000
00607800
00407800
00807800
00807800
01FFF800
03003800
02003C00
06003C00
04003C00
08001C00
18001E00
38001E00
FE00FF80
ENDCHAR
STARTCHAR uni01CE
ENCODING 462
SWIDTH 608 0
DWIDTH 21 0
BBX 18 24 3 0
BITMAP
0180C0
00C380
00E700
007E00
007C00
000000
00FFC0
0107C0
0203C0
040380
0C0380
180380
380780
380780
700700
700F00
F01F00
F01F00
F02F00
F06E00
F0CE00
F18E00
7F0E00
3C1FC0
ENDCHAR
STARTCHAR uni01CF
ENCODING 463
SWIDTH 325 0
DWIDTH 11 0
BBX 15 31 1 0
BITMAP
0C06
061C
0738
03F0
03E0
0000
07FE
00F8
00F0
00E0
01E0
01E0
01C0
01C0
01C0
03C0
03C0
0380
0380
0380
0780
0780
0700
0700
0F00
0F00
0F00
0E00
1E00
3E00
FFC0
ENDCHAR
STARTCHAR uni01D0
ENCODING 464
SWIDTH 289 0
DWIDTH 10 0
BBX 11 24 2 0
BITMAP
C060
61C0
7380
3F00
3E00
0000
7F00
0F00
0E00
0E00
0E00
0E00
1E00
1C00
1C00
1C00
1C00
3C00
3800
3800
3800
3800
7800
7F00
ENDCHAR
STARTCHAR uni01D1
ENCODING 465
SWIDTH 783 0
DWIDTH 27 0
BBX 24 31 4 0
BITMAP
006030
0030E0
0039C0
001F80
001F00
000000
001FC0
007070
01C03C
03801C
07000E
0E000E
1C000F
3C000F
38000F
78000F
78000F
70000F
F0000F
F0000E
F0001E
F0001E
F0001C
F0003C
F00038
F00070
7000E0
7801C0
3C0380
0E0E00
03F800
ENDCHAR
STARTCHAR uni01D2
ENCODING 466
SWIDTH 560 0
DWIDTH 19 0
BBX 17 24 3 0
BITMAP
060300
030E00
039C00
01F800
01F000
000000
00FC00
030E00
0E0700
1C0700
1C0780
380780
780780
700780
700780
F00700
F00700
F00F00
F00E00
F01C00
F01800
703000
78E000
1F8000
ENDCHAR
STARTCHAR uni01D3
ENCODING 467
SWIDTH 727 0
DWIDTH 25 0
BBX 24 31 5 0
BITMAP
030180
018700
01CE00
00FC00
00F800
000000
FFC0FF
1F001C
1E0018
1C0010
1C0030
3C0030
3C0030
380020
380020
380060
780060
780060
700040
700040
7000C0
F000C0
F000C0
E00080
E00180
E00180
F00300
700200
780600
3C1800
0FE000
ENDCHAR
STARTCHAR uni01D4
ENCODING 468
SWIDTH 630 0
DWIDTH 21 0
BBX 18 24 3 0
BITMAP
0C0600
061C00
073800
03F000
03E000
000000
FE1FC0
1C03C0
1C0380
1C0380
3C0380
380380
380780
380700
380700
780F00
700F00
701F00
702E00
704E00
F08E00
F10E00
7E1E00
381FC0
ENDCHAR
STARTCHAR uni01D5
ENCODING 469
SWIDTH 727 0
DWIDTH 25 0
BBX 24 31 5 0
BITMAP
01FF80
000000
00E1C0
00E3C0
000000
000000
FFC0FF
1F001C
1E0018
1C0010
1C0030
3C0030
3C0030
380020
380020
380060
780060
780060
700040
700040
7000C0
F000C0
F000C0
E00080
E00180
E00180
F00300
700200
780600
3C1800
0FE000
ENDCHAR
STARTCHAR uni01D6
ENCODING 470
SWIDTH 630 0
DWIDTH 21 0
BBX 18 24 3 0
BITMAP
07FE00
000000
00E1C0
00E3C0
000000
000000
FE1FC0
1C03C0
1C0380
1C0380
3C0380
380380
380780
380700
380700
780F00
700F00
701F00
702E00
704E00
F08E00
F10E00
7E1E00
381FC0
ENDCHAR
STARTCHAR uni01D7
ENCODING 471
SWIDTH 727 0
DWIDTH 25 0
BBX 24 35 5 0
BITMAP
000780
000E00
001C00
003000
006000
000000
00E1C0
00E3C0
000000
000000
FFC0FF
1F001C
1E0018
1C0010
1C0030
3C0030
3C0030
380020
380020
380060
780060
780060
700040
700040
7000C0
F000C0
F000C0
E00080
E00180
E00180
F00300
700200
780600
3C1800
0FE000
ENDCHAR
STARTCHAR uni01D8
ENCODING 472
SWIDTH 630 0
DWIDTH 21 0
BBX 18 28 3 0
BITMAP
000F00
001C00
003800
006000
00C000
000000
00E1C0
00E3C0
000000
000000
FE1FC0
1C03C0
1C0380
1C0380
3C0380
380380
380780
380700
380700
780F00
700F00
701F00
702E00
704E00
F08E00
F10E00
7E1E00
381FC0
ENDCHAR
STARTCHAR uni01D9
ENCODING 473
SWIDTH 727 0
DWIDTH 25 0
BBX 24 35 5 0
BITMAP
0180C0
00C380
00E700
007E00
007C00
000000
00E1C0
00E3C0
000000
000000
FFC0FF
1F001C
1E0018
1C0010
1C0030
3C0030
3C0030
380020
380020
380060
780060
780060
700040
700040
7000C0
F000C0
F000C0
E00080
E00180
E00180
F00300
700200
780600
3C1800
0FE000
ENDCHAR
STARTCHAR uni01DA
ENCODING 474
SWIDTH 630 0
DWIDTH 21 0
BBX 18 28 3 0
BITMAP
060300
030E00
039C00
01F800
01F000
000000
00E1C0
00E3C0
000000
000000
FE1FC0
1C03C0
1C0380
1C0380
3C0380
380380
380780
380700
380700
780F00
700F00
701F00
702E00
704E00
F08E00
F10E00
7E1E00
381FC0
ENDCHAR
STARTCHAR uni01DB
ENCODING 475
SWIDTH 727 0
DWIDTH 25 0
BBX 24 35 5 0
BITMAP
00F000
007000
003800
001800
000C00
000000
00E1C0
00E3C0
000000
000000
FFC0FF
1F001C
1E0018
1C0010
1C0030
3C0030
3C0030
380020
380020
380060
780060
780060
700040
700040
7000C0
F000C0
F000C0
E00080
E00180
E00180
F00300
700200
780600
3C1800
0FE000
ENDCHAR
STARTCHAR uni01DC
ENCODING 476
SWIDTH 630 0
DWIDTH 21 0
BBX 18 28 3 0
BITMAP
03C000
01C000
00E000
006000
003000
000000
00E1C0
00E3C0
000000
000000
FE1FC0
1C03C0
1C0380
1C0380
3C0380
380380
380780
380700
380700
780F00
700F00
701F00
702E00
704E00
F08E00
F10E00
7E1E00
381FC0
ENDCHAR
STARTCHAR uni01DD
ENCODING 477
SWIDTH 518 0
DWIDTH 18 0
BBX 15 18 3 0
BITMAP
07F0
1878
601C
C01E
001E
000E
000E
01FE
0F1E
1C1C
381C
701C
7038
F030
E060
F040
7180
3E00
ENDCHAR
STARTCHAR uni01DE
ENCODING 478
SWIDTH 747 0
DWIDTH 25 0
BBX 25 31 0 0
BITMAP
001FF800
00000000
00070E00
00071E00
00000000
00000000
00004000
0000C000
0000E000
0001E000
0002E000
0002E000
0004E000
0004F000
0008F000
0010F000
00107000
00207000
00607800
00407800
00807800
00807800
01FFF800
03003800
02003C00
06003C00
04003C00
08001C00
18001E00
38001E00
FE00FF80
ENDCHAR
STARTCHAR uni01DF
ENCODING 479
SWIDTH 608 0
DWIDTH 21 0
BBX 18 24 3 0
BITMAP
01FF80
000000
00E1C0
00E3C0
000000
000000
00FFC0
0107C0
0203C0
040380
0C0380
180380
380780
380780
700700
700F00
F01F00
F01F00
F02F00
F06E00
F0CE00
F18E00
7F0E00
3C1FC0
ENDCHAR
STARTCHAR uni01E0
ENCODING 480
SWIDTH 747 0
DWIDTH 25 0
BBX 25 31 0 0
BITMAP
003FF000
00000000
0001C000
0003C000
00038000
00000000
00004000
0000C000
0000E000
0001E000
0002E000
0002E000
0004E000
0004F000
0008F000
0010F000
00107000
00207000
00607800
00407800
00807800
00807800
01FFF800
03003800
02003C00
06003C00
04003C00
08001C00
18001E00
38001E00
FE00FF80
ENDCHAR
STARTCHAR uni01E1
ENCODING 481
SWIDTH 608 0
DWIDTH 21 0
BBX 18 24 3 0
BITMAP
01FF80
000000
001C00
003C00
003800
000000
00FFC0
0107C0
0203C0
040380
0C0380
180380
380780
380780
700700
700F00
F01F00
F01F00
F02F00
F06E00
F0CE00
F18E00
7F0E00
3C1FC0
ENDCHAR
STARTCHAR uni01E2
ENCODING 482
SWIDTH 907 0
DWIDTH 31 0
BBX 34 27 0 0
BITMAP
0000FFC000
0000000000
00000FFFC0
00001E00C0
00002E0180
00007E0180
00005E0000
00009E0000
00011C0000
00031C0000
00021C0000
00043C0000
000C3C0400
00183C0C00
00103FFC00
0020380C00
0060780800
00C0780000
01FFF80000
0100700000
0300700000
0600F00000
0C00F00000
0C00F00600
1800F00600
3001F00C00
FC0FFFFC00
ENDCHAR
STARTCHAR uni01E3
ENCODING 483
SWIDTH 881 0
DWIDTH 30 0
BBX 27 20 3 0
BITMAP
001FF800
00000000
00FFCF80
0107B1C0
0203E1E0
0403C0E0
0C0380E0
180381C0
380701C0
38070380
70070700
700F1E00
F01FF000
F0170000
F0270000
F0470000
F0C70060
F18780C0
7E03C300
3C01FC00
ENDCHAR
STARTCHAR uni01E4
ENCODING 484
SWIDTH 756 0
DWIDTH 26 0
BBX 28 25 4 0
BITMAP
001FF800
00701E00
01E00C00
03800C00
07000C00
0E000000
1E000000
3C000000
3C000000
78000000
78000000
70000000
F0000000
F0000000
F007FE00
F000F000
F000F000
F000E000
F007FFF0
7007FFF0
7801E000
7801E000
3C01C000
0F038000
03FC0000
ENDCHAR
STARTCHAR uni01E5
ENCODING 485
SWIDTH 602 0
DWIDTH 20 0
BBX 19 25 2 -7
BITMAP
007FE0
0083E0
0101E0
0201C0
0601C0
0E01C0
0C01C0
1C03C0
3C0380
380780
380F80
780B80
781F80
783700
786700
38C700
3F8700
1E0E00
FFFFE0
FFFFE0
800C00
C01C00
601800
7C2000
3FC000
ENDCHAR
STARTCHAR Gcaron
ENCODING 486
SWIDTH 756 0
DWIDTH 26 0
BBX 23 31 4 0
BITMAP
0180C0
00C380
00E700
007E00
007C00
000000
001FF8
00701E
01E00C
03800C
07000C
0E0000
1E0000
3C0000
3C0000
780000
780000
700000
F00000
F00000
F007FE
F000F0
F000F0
F000E0
F000E0
7001E0
7801E0
7801E0
3C01C0
0F0380
03FC00
ENDCHAR
STARTCHAR gcaron
ENCODING 487
SWIDTH 602 0
DWIDTH 20 0
BBX 19 31 2 -7
BITMAP
0180C0
00C380
00E700
007E00
007C00
000000
007FE0
0083E0
0101E0
0201C0
0601C0
0E01C0
0C01C0
1C03C0
3C0380
380780
380F80
780B80
781F80
783700
786700
38C700
3F8700
1E0E00
000E00
000E00
800C00
C01C00
601800
7C2000
3FC000
ENDCHAR
STARTCHAR uni01E8
ENCODING 488
SWIDTH 698 0
DWIDTH 24 0
BBX 26 31 1 0
BITMAP
00C06000
0061C000
00738000
003F0000
003E0000
00000000
07FE1FC0
01F00700
01E00C00
01E01800
01E03000
01C06000
01C08000
01C10000
03C20000
03CC0000
03980000
03B80000
03F80000
07BC0000
079E0000
079E0000
070F0000
07078000
0F078000
0F03C000
0F01E000
0E01E000
1E00F000
3E00F800
FFC3FE00
ENDCHAR
STARTCHAR uni01E9
ENCODING 489
SWIDTH 560 0
DWIDTH 19 0
BBX 17 32 3 0
BITMAP
301800
187000
1CE000
0FC000
0F8000
000000
3F0000
070000
070000
0F0000
0F0000
0E0000
0E0000
0E0000
1E0780
1E0700
1C0700
1C0E00
1C1C00
3C3000
3CC000
390000
3F8000
3B8000
7BC000
79E000
71E000
70F000
707800
F07C00
F03E00
E01F80
ENDCHAR
STARTCHAR uni01EA
ENCODING 490
SWIDTH 783 0
DWIDTH 27 0
BBX 24 31 4 -6
BITMAP
001FC0
007070
01C03C
03801C
07000E
0E000E
1C000F
3C000F
38000F
78000F
78000F
70000F
F0000F
F0000E
F0001E
F0001E
F0001C
F0003C
F00038
F00070
7000E0
7801C0
3C0380
0E0E00
03F800
000000
003000
006000
00C000
00E000
007800
ENDCHAR
STARTCHAR uni01EB
ENCODING 491
SWIDTH 560 0
DWIDTH 19 0
BBX 17 24 3 -6
BITMAP
00FC00
030E00
0E0700
1C0700
1C0780
380780
780780
700780
700780
F00700
F00700
F00F00
F00E00
F01C00
F01800
703000
78E000
1F8000
000000
030000
060000
0C0000
0E0000
078000
ENDCHAR
STARTCHAR uni01EC
ENCODING 492
SWIDTH 783 0
DWIDTH 27 0
BBX 24 33 4 -6
BITMAP
00FFC0
000000
001FC0
007070
01C03C
03801C
07000E
0E000E
1C000F
3C000F
38000F
78000F
78000F
70000F
F0000F
F0000E
F0001E
F0001E
F0001C
F0003C
F00038
F00070
7000E0
7801C0
3C0380
0E0E00
03F800
000000
003000
006000
00C000
00E000
007800
ENDCHAR
STARTCHAR uni01ED
ENCODING 493
SWIDTH 560 0
DWIDTH 19 0
BBX 17 26 3 -6
BITMAP
07FE00
000000
00FC00
030E00
0E0700
1C0700
1C0780
380780
780780
700780
700780
F00700
F00700
F00F00
F00E00
F01C00
F01800
703000
78E000
1F8000
000000
030000
060000
0C0000
0E0000
078000
ENDCHAR
STARTCHAR uni01F0
ENCODING 496
SWIDTH 343 0
DWIDTH 12 0
BBX 17 31 -2 -7
BITMAP
030180
018700
01CE00
00FC00
00F800
000000
007F00
000E00
000E00
000E00
001E00
001E00
001C00
001C00
001C00
003C00
003C00
003800
003800
003800
007800
007800
007000
007000
00F000
00E000
40E000
40C000
C18000
E30000
FC0000
ENDCHAR
STARTCHAR uni01F4
ENCODING 500
SWIDTH 756 0
DWIDTH 26 0
BBX 23 31 4 0
BITMAP
0003C0
000700
000E00
001800
003000
000000
001FF8
00701E
01E00C
03800C
07000C
0E0000
1E0000
3C0000
3C0000
780000
780000
700000
F00000
F00000
F007FE
F000F0
F000F0
F000E0
F000E0
7001E0
7801E0
7801E0
3C01C0
0F0380
03FC00
ENDCHAR
STARTCHAR uni01F5
ENCODING 501
SWIDTH 602 0
DWIDTH 20 0
BBX 19 31 2 -7
BITMAP
0003C0
000700
000E00
001800
003000
000000
007FE0
0083E0
0101E0
0201C0
0601C0
0E01C0
0C01C0
1C03C0
3C0380
380780
380F80
780B80
781F80
783700
786700
38C700
3F8700
1E0E00
000E00
000E00
800C00
C01C00
601800
7C2000
3FC000
ENDCHAR
STARTCHAR uni01F8
ENCODING 504
SWIDTH 762 0
DWIDTH 26 0
BBX 29 31 1 0
BITMAP
001E0000
000E0000
00070000
00030000
00018000
00000000
07C003F8
01E000E0
01E000C0
01F000C0
01F80080
01780080
013C0080
033C0180
031E0180
031E0100
020F0100
02070100
06078300
06038300
0603C200
0601E200
0401E200
0400F600
0C00F600
0C007E00
0C003C00
08003C00
18001C00
38001C00
FF000C00
ENDCHAR
STARTCHAR uni01F9
ENCODING 505
SWIDTH 631 0
DWIDTH 21 0
BBX 18 24 3 0
BITMAP
078000
038000
01C000
00C000
006000
000000
FE0F00
1E1F80
1C73C0
1CC3C0
1D8380
3D0380
3E0380
3E0380
3C0780
380700
780700
780700
700700
700F00
700E00
F00E00
F00E00
E01FC0
ENDCHAR
STARTCHAR Aringacute
ENCODING 506
SWIDTH 747 0
DWIDTH 25 0
BBX 25 38 0 0
BITMAP
00003C00
00007000
0000E000
00018000
00030000
00000000
00007000
00008800
00008800
00008800
00007000
00000000
00000000
00004000
0000C000
0000E000
0001E000
0002E000
0002E000
0004E000
0004F000
0008F000
0010F000
00107000
00207000
00607800
00407800
00807800
00807800
01FFF800
03003800
02003C00
06003C00
04003C00
08001C00
18001E00
38001E00
FE00FF80
ENDCHAR
STARTCHAR aringacute
ENCODING 507
SWIDTH 608 0
DWIDTH 21 0
BBX 18 31 3 0
BITMAP
0003C0
000700
000E00
001800
003000
000000
000E00
001100
001100
001100
000E00
000000
000000
00FFC0
0107C0
0203C0
040380
0C0380
180380
380780
380780
700700
700F00
F01F00
F01F00
F02F00
F06E00
F0CE00
F18E00
7F0E00
3C1FC0
ENDCHAR
STARTCHAR AEacute
ENCODING 508
SWIDTH 907 0
DWIDTH 31 0
BBX 34 31 0 0
BITMAP
000001E000
0000038000
0000070000
00000C0000
0000180000
0000000000
00000FFFC0
00001E00C0
00002E0180
00007E0180
00005E0000
00009E0000
00011C0000
00031C0000
00021C0000
00043C0000
000C3C0400
00183C0C00
00103FFC00
0020380C00
0060780800
00C0780000
01FFF80000
0100700000
0300700000
0600F00000
0C00F00000
0C00F00600
1800F00600
3001F00C00
FC0FFFFC00
ENDCHAR
STARTCHAR aeacute
ENCODING 509
SWIDTH 881 0
DWIDTH 30 0
BBX 27 24 3 0
BITMAP
00003C00
00007000
0000E000
00018000
00030000
00000000
00FFCF80
0107B1C0
0203E1E0
0403C0E0
0C0380E0
180381C0
380701C0
38070380
70070700
700F1E00
F01FF000
F0170000
F0270000
F0470000
F0C70060
F18780C0
7E03C300
3C01FC00
ENDCHAR
STARTCHAR Oslashacute
ENCODING 510
SWIDTH 783 0
DWIDTH 27 0
BBX 28 31 2 0
BITMAP
00003C00
00007000
0000E000
00018000
00030000
00000000
0007F030
001C1E60
00700FC0
00E00780
01C00380
038007C0
07000BC0
0F0013C0
0E0061C0
1E00C3C0
1E0183C0
1C0303C0
3C0603C0
3C0C03C0
3C180380
3C300780
3C600700
3CC00F00
3D800E00
3F001C00
1E003800
0E007000
1F00E000
27838000
C0FE0000
ENDCHAR
STARTCHAR oslashacute
ENCODING 511
SWIDTH 560 0
DWIDTH 19 0
BBX 20 24 1 0
BITMAP
0003C0
000700
000E00
001800
003000
000000
003E30
00C7C0
0303C0
0703C0
0E07C0
0C0DC0
1C19C0
3C11C0
3821C0
3843C0
388380
790380
3A0700
3C0700
380E00
3C0C00
3E3000
CFC000
ENDCHAR
STARTCHAR Scommaaccent
ENCODING 536
SWIDTH 549 0
DWIDTH 19 0
BBX 20 38 2 -13
BITMAP
007F80
01C1F0
038060
070060
070060
0F00E0
0F0000
0F0000
0F0000
078000
03C000
01F000
00F800
007C00
003E00
001F00
000F00
000F00
000F00
600F00
600E00
E00E00
E01C00
F03800
1FC000
000000
01E000
01E000
03E000
03C000
03C000
00C000
01C000
01C000
018000
018000
030000
060000
ENDCHAR
STARTCHAR scommaaccent
ENCODING 537
SWIDTH 440 0
DWIDTH 15 0
BBX 14 31 2 -13
BITMAP
03F8
061C
0C0C
1C0C
1C08
1E00
0F00
0F80
07C0
03E0
01E0
00F0
0070
4070
C070
C070
F0E0
3F80
0000
0780
0780
0F80
0F00
0F00
0300
0700
0700
0600
0600
0C00
1800
ENDCHAR
STARTCHAR Tcommaaccent
ENCODING 538
SWIDTH 663 0
DWIDTH 23 0
BBX 22 38 5 -13
BITMAP
7FFFFC
60780C
C07808
C07018
007000
007000
00F000
00F000
00E000
00E000
00E000
01E000
01E000
01E000
01C000
01C000
03C000
03C000
03C000
038000
038000
078000
078000
0F8000
7FF000
000000
01E000
01E000
03E000
03C000
03C000
00C000
01C000
01C000
018000
018000
030000
060000
ENDCHAR
STARTCHAR tcommaaccent
ENCODING 539
SWIDTH 355 0
DWIDTH 12 0
BBX 11 36 4 -13
BITMAP
0200
0E00
1E00
1E00
1C00
FFE0
1C00
1C00
3C00
3800
3800
3800
7800
7800
7000
7000
7000
F000
F000
F000
7000
7000
3E00
0000
3C00
3C00
7C00
7800
7800
1800
3800
3800
3000
3000
6000
C000
ENDCHAR
STARTCHAR uni021E
ENCODING 542
SWIDTH 776 0
DWIDTH 26 0
BBX 30 31 1 0
BITMAP
00180C00
000C3800
000E7000
0007E000
0007C000
00000000
07FE0FFC
01F001F0
01E001E0
01E001C0
01E001C0
01C003C0
01C003C0
01C00380
03C00380
03C00380
03C00780
03800780
03FFFF00
07800700
07800700
07800F00
07000F00
07000E00
0F000E00
0F000E00
0F001E00
0E001E00
1E001E00
3E003E00
FFC1FF80
ENDCHAR
STARTCHAR uni021F
ENCODING 543
SWIDTH 631 0
DWIDTH 21 0
BBX 18 32 3 0
BITMAP
301800
187000
1CE000
0FC000
0F8000
000000
3F0000
070000
070000
0F0000
0F0000
0E0000
0E0000
0E0000
1E0F00
1E1F80
1C73C0
1CC3C0
1D8380
3D0380
3E0380
3E0380
3C0780
380700
780700
780700
700700
700F00
700E00
F00E00
F00E00
E01FC0
ENDCHAR
STARTCHAR uni0226
ENCODING 550
SWIDTH 747 0
DWIDTH 25 0
BBX 25 29 0 0
BITMAP
0001C000
0003C000
00038000
00000000
00004000
0000C000
0000E000
0001E000
0002E000
0002E000
0004E000
0004F000
0008F000
0010F000
00107000
00207000
00607800
00407800
00807800
00807800
01FFF800
03003800
02003C00
06003C00
04003C00
08001C00
18001E00
38001E00
FE00FF80
ENDCHAR
STARTCHAR uni0227
ENCODING 551
SWIDTH 608 0
DWIDTH 21 0
BBX 18 22 3 0
BITMAP
001C00
003C00
003800
000000
00FFC0
0107C0
0203C0
040380
0C0380
180380
380780
380780
700700
700F00
F01F00
F01F00
F02F00
F06E00
F0CE00
F18E00
7F0E00
3C1FC0
ENDCHAR
STARTCHAR uni0228
ENCODING 552
SWIDTH 569 0
DWIDTH 19 0
BBX 22 32 1 -7
BITMAP
07FFFC
00E00C
00E018
01E018
01E000
01E000
01C000
01C000
01C000
03C000
03C040
03C0C0
03FFC0
078080
078080
078000
070000
070000
0F0000
0F0000
0F0000
0E0060
1E0060
3F00C0
FFFFC0
004000
00E000
007000
003000
003000
007000
01E000
ENDCHAR
STARTCHAR uni0229
ENCODING 553
SWIDTH 518 0
DWIDTH 18 0
BBX 15 25 3 -7
BITMAP
00F8
031C
041E
0C0E
181E
381C
701C
7038
7070
F1E0
FF00
E000
E000
F000
F006
700C
3C30
1FC0
0200
0700
0380
0180
0180
0380
0F00
ENDCHAR
STARTCHAR uni022A
ENCODING 554
SWIDTH 783 0
DWIDTH 27 0
BBX 24 31 4 0
BITMAP
007FE0
000000
003870
0038F0
000000
000000
001FC0
007070
01C03C
03801C
07000E
0E000E
1C000F
3C000F
38000F
78000F
78000F
70000F
F0000F
F0000E
F0001E
F0001E
F0001C
F0003C
F00038
F00070
7000E0
7801C0
3C0380
0E0E00
03F800
ENDCHAR
STARTCHAR uni022B
ENCODING 555
SWIDTH 560 0
DWIDTH 19 0
BBX 17 24 3 0
BITMAP
03FF00
000000
01C380
01C780
000000
000000
00FC00
030E00
0E0700
1C0700
1C0780
380780
780780
700780
700780
F00700
F00700
F00F00
F00E00
F01C00
F01800
703000
78E000
1F8000
ENDCHAR
STARTCHAR uni022C
ENCODING 556
SWIDTH 783 0
DWIDTH 27 0
BBX 24 33 4 0
BITMAP
007FE0
000000
000E08
001F98
0033F0
0021E0
000000
000000
001FC0
007070
01C03C
03801C
07000E
0E000E
1C000F
3C000F
38000F
78000F
78000F
70000F
F0000F
F0000E
F0001E
F0001E
F0001C
F0003C
F00038
F00070
7000E0
7801C0
3C0380
0E0E00
03F800
ENDCHAR
STARTCHAR uni022D
ENCODING 557
SWIDTH 560 0
DWIDTH 19 0
BBX 18 26 3 0
BITMAP
03FF00
000000
007040
00FCC0
019F80
010F00
000000
000000
00FC00
030E00
0E0700
1C0700
1C0780
380780
780780
700780
700780
F00700
F00700
F00F00
F00E00
F01C00
F01800
703000
78E000
1F8000
ENDCHAR
STARTCHAR uni022E
ENCODING 558
SWIDTH 783 0
DWIDTH 27 0
BBX 24 29 4 0
BITMAP
000700
000F00
000E00
000000
001FC0
007070
01C03C
03801C
07000E
0E000E
1C000F
3C000F
38000F
78000F
78000F
70000F
F0000F
F0000E
F0001E
F0001E
F0001C
F0003C
F00038
F00070
7000E0
7801C0
3C0380
0E0E00
03F800
ENDCHAR
STARTCHAR uni022F
ENCODING 559
SWIDTH 560 0
DWIDTH 19 0
BBX 17 22 3 0
BITMAP
007000
00F000
00E000
000000
00FC00
030E00
0E0700
1C0700
1C0780
380780
780780
700780
700780
F00700
F00700
F00F00
F00E00
F01C00
F01800
703000
78E000
1F8000
ENDCHAR
STARTCHAR uni0230
ENCODING 560
SWIDTH 783 0
DWIDTH 27 0
BBX 24 31 4 0
BITMAP
007FE0
000000
000700
000F00
000E00
000000
001FC0
007070
01C03C
03801C
07000E
0E000E
1C000F
3C000F
38000F
78000F
78000F
70000F
F0000F
F0000E
F0001E
F0001E
F0001C
F0003C
F00038
F00070
7000E0
7801C0
3C0380
0E0E00
03F800
ENDCHAR
STARTCHAR uni0231
ENCODING 561
SWIDTH 560 0
DWIDTH 19 0
BBX 17 24 3 0
BITMAP
07FE00
000000
007000
00F000
00E000
000000
00FC00
030E00
0E0700
1C0700
1C0780
380780
780780
700780
700780
F00700
F00700
F00F00
F00E00
F01C00
F01800
703000
78E000
1F8000
ENDCHAR
STARTCHAR uni0232
ENCODING 562
SWIDTH 663 0
DWIDTH 23 0
BBX 23 27 4 0
BITMAP
07FE00
000000
FF80FE
3E0038
3E0030
1E0060
1E0040
0F0080
0F0100
070200
078600
078400
038800
03D000
01E000
01E000
01C000
01C000
01C000
03C000
03C000
038000
038000
078000
078000
0F8000
3FF000
ENDCHAR
STARTCHAR uni0233
ENCODING 563
SWIDTH 558 0
DWIDTH 19 0
BBX 21 27 0 -7
BITMAP
03FF00
000000
3F0078
0F8038
078038
038038
038030
03C070
01C060
01C0C0
01C080
01C100
01E300
00E600
00E400
00E800
00F000
00F000
00E000
00C000
008000
010000
030000
0E0000
1C0000
380000
F80000
ENDCHAR
STARTCHAR uni0250
ENCODING 592
SWIDTH 608 0
DWIDTH 21 0
BBX 18 18 3 0
BITMAP
FE0F00
1C3F80
1C63C0
1CC3C0
1D83C0
3D03C0
3E03C0
3E03C0
3C0380
380380
780700
780700
700600
700C00
700800
F01000
F82000
FFC000
ENDCHAR
STARTCHAR uni0259
ENCODING 601
SWIDTH 518 0
DWIDTH 18 0
BBX 15 18 3 0
BITMAP
07F0
1878
601C
C01E
001E
000E
000E
01FE
0F1E
1C1C
381C
701C
7038
F030
E060
F040
7180
3E00
ENDCHAR
STARTCHAR uni025F
ENCODING 607
SWIDTH 380 0
DWIDTH 13 0
BBX 17 34 2 -16
BITMAP
000380
000780
000780
000700
000700
000700
000F00
000F00
000E00
000E00
000E00
001E00
001E00
001C00
001C00
001C00
001C00
003C00
003800
003800
003800
003800
007800
007000
0FFE00
007000
00F000
00E000
00E000
60C000
41C000
C18000
C30000
FC0000
ENDCHAR
STARTCHAR uni0265
ENCODING 613
SWIDTH 631 0
DWIDTH 21 0
BBX 18 26 3 -8
BITMAP
FE01C0
1C03C0
1C03C0
1C0380
3C0380
380380
380780
380780
380700
780F00
701F00
701F00
702F00
706E00
F0CE00
F38E00
7E1E00
3C1E00
001C00
001C00
001C00
003C00
003C00
003800
003800
003F00
ENDCHAR
STARTCHAR uni0275
ENCODING 629
SWIDTH 560 0
DWIDTH 19 0
BBX 17 18 3 0
BITMAP
00FC00
030E00
0E0700
1C0700
1C0780
380780
780780
700780
FFFF80
FFFF80
F00700
F00F00
F00E00
F01C00
F01800
703000
78E000
1F8000
ENDCHAR
STARTCHAR uni0279
ENCODING 633
SWIDTH 470 0
DWIDTH 16 0
BBX 15 18 4 0
BITMAP
000E
001E
001E
001C
001C
001C
003C
003C
0038
0078
0078
00B8
0178
0670
3E70
7C70
7070
E0FE
ENDCHAR
STARTCHAR uni0287
ENCODING 647
SWIDTH 355 0
DWIDTH 12 0
BBX 11 23 4 0
BITMAP
0F80
01C0
01C0
01E0
01E0
01E0
01C0
01C0
01C0
03C0
03C0
0380
0380
0380
0780
0700
0700
FFE0
0700
0F00
0F00
0E00
0800
ENDCHAR
STARTCHAR uni0289
ENCODING 649
SWIDTH 630 0
DWIDTH 21 0
BBX 18 18 3 0
BITMAP
FE1FC0
1C03C0
1C0380
1C0380
3C0380
380380
380780
380700
FFFFC0
FFFFC0
700F00
701F00
702E00
704E00
F08E00
F10E00
7E1E00
381FC0
ENDCHAR
STARTCHAR uni028C
ENCODING 652
SWIDTH 558 0
DWIDTH 19 0
BBX 19 18 2 0
BITMAP
001800
003800
003800
007800
00B800
013800
023800
063800
0C3800
183C00
101C00
301C00
601E00
E01E00
E01E00
E00F00
E00F80
F007E0
ENDCHAR
STARTCHAR uni028D
ENCODING 653
SWIDTH 805 0
DWIDTH 27 0
BBX 27 18 2 0
BITMAP
00300C00
00300C00
00701C00
00F03C00
01F03C00
01707C00
02705C00
0670DC00
04719C00
08791C00
183B1E00
103A0E00
303E0E00
703C0E00
601C0F00
E01C0700
E0180780
F00807E0
ENDCHAR
STARTCHAR uni028E
ENCODING 654
SWIDTH 558 0
DWIDTH 19 0
BBX 21 25 0 0
BITMAP
0000F8
0000E0
0001C0
000380
000600
000400
000800
001800
003800
007800
007800
00B800
013800
033800
063C00
041C00
081C00
181C00
301C00
701E00
600E00
E00E00
E00F00
E00F80
F007E0
ENDCHAR
STARTCHAR uni029E
ENCODING 670
SWIDTH 560 0
DWIDTH 19 0
BBX 17 26 3 -8
BITMAP
FC0380
3E0780
1F0780
0F0700
078700
03C700
03CF00
01EF00
00EE00
00FE00
004E00
019E00
061E00
1C1C00
381C00
701C00
703C00
F03C00
003800
003800
003800
007800
007800
007000
007000
007E00
ENDCHAR
STARTCHAR uni02BB
ENCODING 699
SWIDTH 265 0
DWIDTH 9 0
BBX 6 10 6 16
BITMAP
0C
38
30
70
70
60
78
F8
F0
F0
ENDCHAR
STARTCHAR afii57929
ENCODING 700
SWIDTH 265 0
DWIDTH 9 0
BBX 6 10 6 16
BITMAP
3C
3C
7C
78
18
38
30
30
E0
C0
ENDCHAR
STARTCHAR afii64937
ENCODING 701
SWIDTH 265 0
DWIDTH 9 0
BBX 6 10 6 16
BITMAP
F0
F0
F8
78
60
70
30
30
1C
0C
ENDCHAR
STARTCHAR circumflex
ENCODING 710
SWIDTH 560 0
DWIDTH 19 0
BBX 11 5 9 21
BITMAP
0F80
1F80
39C0
70C0
C060
ENDCHAR
STARTCHAR caron
ENCODING 711
SWIDTH 560 0
DWIDTH 19 0
BBX 11 5 10 21
BITMAP
C060
61C0
7380
3F00
3E00
ENDCHAR
STARTCHAR uni02C8
ENCODING 712
SWIDTH 231 0
DWIDTH 8 0
BBX 4 10 6 16
BITMAP
F0
F0
F0
70
60
60
60
60
60
20
ENDCHAR
STARTCHAR macron
ENCODING 713
SWIDTH 560 0
DWIDTH 19 0
BBX 10 1 9 24
BITMAP
FFC0
ENDCHAR
STARTCHAR uni02CA
ENCODING 714
SWIDTH 560 0
DWIDTH 19 0
BBX 8 5 12 21
BITMAP
0F
1C
38
60
C0
ENDCHAR
STARTCHAR uni02CB
ENCODING 715
SWIDTH 560 0
DWIDTH 19 0
BBX 6 5 11 21
BITMAP
F0
70
38
18
0C
ENDCHAR
STARTCHAR uni02CD
ENCODING 717
SWIDTH 560 0
DWIDTH 19 0
BBX 10 1 9 -2
BITMAP
FFC0
ENDCHAR
STARTCHAR uni02CE
ENCODING 718
SWIDTH 560 0
DWIDTH 19 0
BBX 6 5 11 -6
BITMAP
F0
70
38
18
0C
ENDCHAR
STARTCHAR uni02CF
ENCODING 719
SWIDTH 560 0
DWIDTH 19 0
BBX 8 5 12 -6
BITMAP
0F
1C
38
60
C0
ENDCHAR
STARTCHAR breve
ENCODING 728
SWIDTH 560 0
DWIDTH 19 0
BBX 11 5 10 21
BITMAP
8020
C040
E380
7F00
3E00
ENDCHAR
STARTCHAR dotaccent
ENCODING 729
SWIDTH 560 0
DWIDTH 19 0
BBX 4 3 12 22
BITMAP
70
F0
E0
ENDCHAR
STARTCHAR ring
ENCODING 730
SWIDTH 560 0
DWIDTH 19 0
BBX 5 5 12 21
BITMAP
70
88
88
88
70
ENDCHAR
STARTCHAR ogonek
ENCODING 731
SWIDTH 560 0
DWIDTH 19 0
BBX 5 5 6 -6
BITMAP
30
60
C0
E0
78
ENDCHAR
STARTCHAR tilde
ENCODING 732
SWIDTH 560 0
DWIDTH 19 0
BBX 11 4 9 21
BITMAP
3820
7E60
CFC0
8780
ENDCHAR
STARTCHAR hungarumlaut
ENCODING 733
SWIDTH 560 0
DWIDTH 19 0
BBX 11 5 11 21
BITMAP
0EE0
1980
3300
6600
CC00
ENDCHAR
STARTCHAR uni02EE
ENCODING 750
SWIDTH 457 0
DWIDTH 16 0
BBX 13 10 6 16
BITMAP
3C78
3C78
7CF0
78F0
1870
3870
3060
30E0
E1C0
8100
ENDCHAR
STARTCHAR uni037E
ENCODING 894
SWIDTH 265 0
DWIDTH 9 0
BBX 9 25 1 -7
BITMAP
0780
0780
0F00
0F00
0000
0000
0000
0000
0000
0000
0000
0000
0000
0000
0000
0000
3C00
7C00
1C00
3800
3800
3800
3000
7000
E000
ENDCHAR
STARTCHAR tonos
ENCODING 900
SWIDTH 560 0
DWIDTH 19 0
BBX 8 5 12 21
BITMAP
0F
1C
38
60
C0
ENDCHAR
STARTCHAR dieresistonos
ENCODING 901
SWIDTH 560 0
DWIDTH 19 0
BBX 11 8 10 23
BITMAP
01E0
0380
0700
0C00
1800
0000
E1C0
E3C0
ENDCHAR
STARTCHAR anoteleia
ENCODING 903
SWIDTH 608 0
DWIDTH 21 0
BBX 4 3 10 9
BITMAP
70
F0
F0
ENDCHAR
STARTCHAR mu
ENCODING 956
SWIDTH 663 0
DWIDTH 23 0
BBX 19 24 3 -6
BITMAP
7F07E0
0E01E0
0E01E0
0E01C0
0E01C0
1E01C0
1C01C0
1C03C0
1C0380
1C0780
3C0780
380B80
381F80
383700
387700
3CE700
7FC700
778FE0
700000
700000
700000
F00000
E00000
E00000
ENDCHAR
STARTCHAR uni1E00
ENCODING 7680
SWIDTH 747 0
DWIDTH 25 0
BBX 25 31 0 -6
BITMAP
00004000
0000C000
0000E000
0001E000
0002E000
0002E000
0004E000
0004F000
0008F000
0010F000
00107000
00207000
00607800
00407800
00807800
00807800
01FFF800
03003800
02003C00
06003C00
04003C00
08001C00
18001E00
38001E00
FE00FF80
00000000
00070000
00088000
00088000
00088000
00070000
ENDCHAR
STARTCHAR uni1E01
ENCODING 7681
SWIDTH 608 0
DWIDTH 21 0
BBX 18 24 3 -6
BITMAP
00FFC0
0107C0
0203C0
040380
0C0380
180380
380780
380780
700700
700F00
F01F00
F01F00
F02F00
F06E00
F0CE00
F18E00
7F0E00
3C1FC0
000000
01C000
022000
022000
022000
01C000
ENDCHAR
STARTCHAR uni1E02
ENCODING 7682
SWIDTH 606 0
DWIDTH 21 0
BBX 21 29 1 0
BITMAP
000E00
001E00
001C00
000000
07FFC0
01E1F0
01E078
01E078
01E078
01C078
01C078
01C070
03C070
03C0E0
03C1C0
038700
03FE00
078780
0781C0
0700E0
0700F0
0700F0
0F00F0
0F00E0
0E00E0
0E01E0
1E03C0
3E0F80
FFFC00
ENDCHAR
STARTCHAR uni1E03
ENCODING 7683
SWIDTH 596 0
DWIDTH 20 0
BBX 18 30 3 0
BITMAP
038000
078000
070000
000000
3F0000
070000
070000
0F0000
0F0000
0E0000
0E0000
0E0000
0E0F00
1E1F80
1C63C0
1CC3C0
1C83C0
1D03C0
3E03C0
3A03C0
3C0380
380380
380700
780700
700600
700C00
700800
701000
F82000
FFC000
ENDCHAR
STARTCHAR uni1E04
ENCODING 7684
SWIDTH 606 0
DWIDTH 21 0
BBX 21 29 1 -4
BITMAP
07FFC0
01E1F0
01E078
01E078
01E078
01C078
01C078
01C070
03C070
03C0E0
03C1C0
038700
03FE00
078780
0781C0
0700E0
0700F0
0700F0
0F00F0
0F00E0
0E00E0
0E01E0
1E03C0
3E0F80
FFFC00
000000
007000
00F000
00E000
ENDCHAR
STARTCHAR uni1E05
ENCODING 7685
SWIDTH 596 0
DWIDTH 20 0
BBX 18 30 3 -4
BITMAP
3F0000
070000
070000
0F0000
0F0000
0E0000
0E0000
0E0000
0E0F00
1E1F80
1C63C0
1CC3C0
1C83C0
1D03C0
3E03C0
3A03C0
3C0380
380380
380700
780700
700600
700C00
700800
701000
F82000
FFC000
000000
038000
078000
070000
ENDCHAR
STARTCHAR uni1E06
ENCODING 7686
SWIDTH 606 0
DWIDTH 21 0
BBX 21 27 1 -2
BITMAP
07FFC0
01E1F0
01E078
01E078
01E078
01C078
01C078
01C070
03C070
03C0E0
03C1C0
038700
03FE00
078780
0781C0
0700E0
0700F0
0700F0
0F00F0
0F00E0
0E00E0
0E01E0
1E03C0
3E0F80
FFFC00
000000
07FE00
ENDCHAR
STARTCHAR uni1E07
ENCODING 7687
SWIDTH 596 0
DWIDTH 20 0
BBX 18 28 3 -2
BITMAP
3F0000
070000
070000
0F0000
0F0000
0E0000
0E0000
0E0000
0E0F00
1E1F80
1C63C0
1CC3C0
1C83C0
1D03C0
3E03C0
3A03C0
3C0380
380380
380700
780700
700600
700C00
700800
701000
F82000
FFC000
000000
3FF000
ENDCHAR
STARTCHAR uni1E08
ENCODING 7688
SWIDTH 714 0
DWIDTH 24 0
BBX 23 38 4 -7
BITMAP
0003C0
000700
000E00
001800
003000
000000
000FF8
00783E
01E00E
03800C
07000C
0E000C
1E0000
3C0000
3C0000
780000
780000
700000
F00000
F00000
F00000
F00000
F00000
F00000
F00000
700000
780000
380000
3C0060
0F03C0
03FC00
010000
038000
01C000
00C000
00C000
01C000
078000
ENDCHAR
STARTCHAR uni1E09
ENCODING 7689
SWIDTH 487 0
DWIDTH 17 0
BBX 15 31 3 -7
BITMAP
003C
0070
00E0
0180
0300
0000
00FE
030E
0406
0C06
1806
3800
7000
7000
7000
F000
F000
F000
F000
F000
F000
7008
3830
1FC0
0800
1C00
0E00
0600
0600
0E00
3C00
ENDCHAR
STARTCHAR uni1E0A
ENCODING 7690
SWIDTH 770 0
DWIDTH 26 0
BBX 26 29 1 0
BITMAP
00038000
00078000
00070000
00000000
07FFF800
01E03E00
01E00F00
01E00780
01C00380
01C003C0
01C003C0
03C003C0
03C003C0
038003C0
038003C0
038003C0
078003C0
07800380
07800380
07000780
07000700
0F000F00
0F000E00
0F001E00
0E003C00
0E007800
1E00F000
3F03C000
FFFE0000
ENDCHAR
STARTCHAR uni1E0B
ENCODING 7691
SWIDTH 608 0
DWIDTH 21 0
BBX 20 30 3 0
BITMAP
000380
000780
000700
000000
0007F0
0000F0
0000E0
0000E0
0000E0
0000E0
0001E0
0001C0
00FFC0
0103C0
0201C0
0403C0
0C0380
180380
380380
380380
700780
700F00
F00F00
F01700
F03700
F06F00
F0CE00
F18E00
7F0E00
3C1FC0
ENDCHAR
STARTCHAR uni1E0C
ENCODING 7692
SWIDTH 770 0
DWIDTH 26 0
BBX 26 29 1 -4
BITMAP
07FFF800
01E03E00
01E00F00
01E00780
01C00380
01C003C0
01C003C0
03C003C0
03C003C0
038003C0
038003C0
038003C0
078003C0
07800380
07800380
07000780
07000700
0F000F00
0F000E00
0F001E00
0E003C00
0E007800
1E00F000
3F03C000
FFFE0000
00000000
00380000
00780000
00700000
ENDCHAR
STARTCHAR uni1E0D
ENCODING 7693
SWIDTH 608 0
DWIDTH 21 0
BBX 20 30 3 -4
BITMAP
0007F0
0000F0
0000E0
0000E0
0000E0
0000E0
0001E0
0001C0
00FFC0
0103C0
0201C0
0403C0
0C0380
180380
380380
380380
700780
700F00
F00F00
F01700
F03700
F06F00
F0CE00
F18E00
7F0E00
3C1FC0
000000
01C000
03C000
038000
ENDCHAR
STARTCHAR uni1E0E
ENCODING 7694
SWIDTH 770 0
DWIDTH 26 0
BBX 26 27 1 -2
BITMAP
07FFF800
01E03E00
01E00F00
01E00780
01C00380
01C003C0
01C003C0
03C003C0
03C003C0
038003C0
038003C0
038003C0
078003C0
07800380
07800380
07000780
07000700
0F000F00
0F000E00
0F001E00
0E003C00
0E007800
1E00F000
3F03C000
FFFE0000
00000000
01FF8000
ENDCHAR
STARTCHAR uni1E0F
ENCODING 7695
SWIDTH 608 0
DWIDTH 21 0
BBX 20 28 3 -2
BITMAP
0007F0
0000F0
0000E0
0000E0
0000E0
0000E0
0001E0
0001C0
00FFC0
0103C0
0201C0
0403C0
0C0380
180380
380380
380380
700780
700F00
F00F00
F01700
F03700
F06F00
F0CE00
F18E00
7F0E00
3C1FC0
000000
0FFC00
ENDCHAR
STARTCHAR uni1E10
ENCODING 7696
SWIDTH 770 0
DWIDTH 26 0
BBX 26 32 1 -7
BITMAP
07FFF800
01E03E00
01E00F00
01E00780
01C00380
01C003C0
01C003C0
03C003C0
03C003C0
038003C0
038003C0
038003C0
078003C0
07800380
07800380
07000780
07000700
0F000F00
0F000E00
0F001E00
0E003C00
0E007800
1E00F000
3F03C000
FFFE0000
00100000
00380000
001C0000
000C0000
000C0000
001C0000
00780000
ENDCHAR
STARTCHAR uni1E11
ENCODING 7697
SWIDTH 608 0
DWIDTH 21 0
BBX 20 33 3 -7
BITMAP
0007F0
0000F0
0000E0
0000E0
0000E0
0000E0
0001E0
0001C0
00FFC0
0103C0
0201C0
0403C0
0C0380
180380
380380
380380
700780
700F00
F00F00
F01700
F03700
F06F00
F0CE00
F18E00
7F0E00
3C5FC0
008000
01C000
00E000
006000
006000
00E000
03C000
ENDCHAR
STARTCHAR uni1E12
ENCODING 7698
SWIDTH 770 0
DWIDTH 26 0
BBX 26 31 1 -6
BITMAP
07FFF800
01E03E00
01E00F00
01E00780
01C00380
01C003C0
01C003C0
03C003C0
03C003C0
038003C0
038003C0
038003C0
078003C0
07800380
07800380
07000780
07000700
0F000F00
0F000E00
0F001E00
0E003C00
0E007800
1E00F000
3F03C000
FFFE0000
00000000
003E0000
007E0000
00E70000
01C30000
03018000
ENDCHAR
STARTCHAR uni1E13
ENCODING 7699
SWIDTH 608 0
DWIDTH 21 0
BBX 20 32 3 -6
BITMAP
0007F0
0000F0
0000E0
0000E0
0000E0
0000E0
0001E0
0001C0
00FFC0
0103C0
0201C0
0403C0
0C0380
180380
380380
380380
700780
700F00
F00F00
F01700
F03700
F06F00
F0CE00
F18E00
7F0E00
3C1FC0
000000
01F000
03F000
073800
0E1800
180C00
ENDCHAR
STARTCHAR uni1E14
ENCODING 7700
SWIDTH 569 0
DWIDTH 19 0
BBX 22 33 1 0
BITMAP
00F000
007000
003800
001800
000C00
000000
01FF80
000000
07FFFC
00E00C
00E018
01E018
01E000
01E000
01C000
01C000
01C000
03C000
03C040
03C0C0
03FFC0
078080
078080
078000
070000
070000
0F0000
0F0000
0F0000
0E0060
1E0060
3F00C0
FFFFC0
ENDCHAR
STARTCHAR uni1E15
ENCODING 7701
SWIDTH 518 0
DWIDTH 18 0
BBX 15 26 3 0
BITMAP
0780
0380
01C0
00C0
0060
0000
0FFC
0000
00F8
031C
041E
0C0E
181E
381C
701C
7038
7070
F1E0
FF00
E000
E000
F000
F006
700C
3C30
1FC0
ENDCHAR
STARTCHAR uni1E16
ENCODING 7702
SWIDTH 569 0
DWIDTH 19 0
BBX 22 33 1 0
BITMAP
0003C0
000700
000E00
001800
003000
000000
01FF80
000000
07FFFC
00E00C
00E018
01E018
01E000
01E000
01C000
01C000
01C000
03C000
03C040
03C0C0
03FFC0
078080
078080
078000
070000
070000
0F0000
0F0000
0F0000
0E0060
1E0060
3F00C0
FFFFC0
ENDCHAR
STARTCHAR uni1E17
ENCODING 7703
SWIDTH 518 0
DWIDTH 18 0
BBX 15 26 3 0
BITMAP
001E
0038
0070
00C0
0180
0000
0FFC
0000
00F8
031C
041E
0C0E
181E
381C
701C
7038
7070
F1E0
FF00
E000
E000
F000
F006
700C
3C30
1FC0
ENDCHAR
STARTCHAR uni1E18
ENCODING 7704
SWIDTH 569 0
DWIDTH 19 0
BBX 22 31 1 -6
BITMAP
07FFFC
00E00C
00E018
01E018
01E000
01E000
01C000
01C000
01C000
03C000
03C040
03C0C0
03FFC0
078080
078080
078000
070000
070000
0F0000
0F0000
0F0000
0E0060
1E0060
3F00C0
FFFFC0
000000
01F000
03F000
073800
0E1800
180C00
ENDCHAR
STARTCHAR uni1E19
ENCODING 7705
SWIDTH 518 0
DWIDTH 18 0
BBX 15 24 3 -6
BITMAP
00F8
031C
041E
0C0E
181E
381C
701C
7038
7070
F1E0
FF00
E000
E000
F000
F006
700C
3C30
1FC0
0000
0F80
1F80
39C0
70C0
C060
ENDCHAR
STARTCHAR uni1E1A
ENCODING 7706
SWIDTH 569 0
DWIDTH 19 0
BBX 22 30 1 -5
BITMAP
07FFFC
00E00C
00E018
01E018
01E000
01E000
01C000
01C000
01C000
03C000
03C040
03C0C0
03FFC0
078080
078080
078000
070000
070000
0F0000
0F0000
0F0000
0E0060
1E0060
3F00C0
FFFFC0
000000
038200
07E600
0CFC00
087800
ENDCHAR
STARTCHAR uni1E1B
ENCODING 7707
SWIDTH 518 0
DWIDTH 18 0
BBX 15 23 3 -5
BITMAP
00F8
031C
041E
0C0E
181E
381C
701C
7038
7070
F1E0
FF00
E000
E000
F000
F006
700C
3C30
1FC0
0000
1C10
3F30
67E0
43C0
ENDCHAR
STARTCHAR uni1E1C
ENCODING 7708
SWIDTH 569 0
DWIDTH 19 0
BBX 22 38 1 -7
BITMAP
010040
018080
01C700
00FE00
007C00
000000
07FFFC
00E00C
00E018
01E018
01E000
01E000
01C000
01C000
01C000
03C000
03C040
03C0C0
03FFC0
078080
078080
078000
070000
070000
0F0000
0F0000
0F0000
0E0060
1E0060
3F00C0
FFFFC0
004000
00E000
007000
003000
003000
007000
01E000
ENDCHAR
STARTCHAR uni1E1D
ENCODING 7709
SWIDTH 518 0
DWIDTH 18 0
BBX 15 31 3 -7
BITMAP
0802
0C04
0E38
07F0
03E0
0000
00F8
031C
041E
0C0E
181E
381C
701C
7038
7070
F1E0
FF00
E000
E000
F000
F006
700C
3C30
1FC0
0200
0700
0380
0180
0180
0380
0F00
ENDCHAR
STARTCHAR uni1E1E
ENCODING 7710
SWIDTH 551 0
DWIDTH 19 0
BBX 22 29 1 0
BITMAP
001C00
003C00
003800
000000
07FFFC
00E00C
00E018
01E018
01E000
01E000
01C000
01C000
03C000
03C000
03C040
03C0C0
03FF80
078080
078080
078000
070000
070000
0F0000
0F0000
0F0000
0E0000
1E0000
3F0000
FFE000
ENDCHAR
STARTCHAR uni1E1F
ENCODING 7711
SWIDTH 380 0
DWIDTH 13 0
BBX 17 38 2 -7
BITMAP
007000
00F000
00E000
000000
001F80
006180
00C180
01C100
018300
038000
038000
078000
070000
3FF800
070000
0F0000
0E0000
0E0000
0E0000
0E0000
1E0000
1C0000
1C0000
1C0000
1C0000
3C0000
3C0000
380000
380000
380000
780000
780000
700000
700000
700000
F00000
F00000
E00000
ENDCHAR
STARTCHAR uni1E20
ENCODING 7712
SWIDTH 756 0
DWIDTH 26 0
BBX 23 27 4 0
BITMAP
01FF80
000000
001FF8
00701E
01E00C
03800C
07000C
0E0000
1E0000
3C0000
3C0000
780000
780000
700000
F00000
F00000
F007FE
F000F0
F000F0
F000E0
F000E0
7001E0
7801E0
7801E0
3C01C0
0F0380
03FC00
ENDCHAR
STARTCHAR uni1E21
ENCODING 7713
SWIDTH 602 0
DWIDTH 20 0
BBX 19 27 2 -7
BITMAP
01FF80
000000
007FE0
0083E0
0101E0
0201C0
0601C0
0E01C0
0C01C0
1C03C0
3C0380
380780
380F80
780B80
781F80
783700
786700
38C700
3F8700
1E0E00
000E00
000E00
800C00
C01C00
601800
7C2000
3FC000
ENDCHAR
STARTCHAR uni1E22
ENCODING 7714
SWIDTH 776 0
DWIDTH 26 0
BBX 30 29 1 0
BITMAP
0000E000
0001E000
0001C000
00000000
07FE0FFC
01F001F0
01E001E0
01E001C0
01E001C0
01C003C0
01C003C0
01C00380
03C00380
03C00380
03C00780
03800780
03FFFF00
07800700
07800700
07800F00
07000F00
07000E00
0F000E00
0F000E00
0F001E00
0E001E00
1E001E00
3E003E00
FFC1FF80
ENDCHAR
STARTCHAR uni1E23
ENCODING 7715
SWIDTH 631 0
DWIDTH 21 0
BBX 18 30 3 0
BITMAP
038000
078000
070000
000000
3F0000
070000
070000
0F0000
0F0000
0E0000
0E0000
0E0000
1E0F00
1E1F80
1C73C0
1CC3C0
1D8380
3D0380
3E0380
3E0380
3C0780
380700
780700
780700
700700
700F00
700E00
F00E00
F00E00
E01FC0
ENDCHAR
STARTCHAR uni1E24
ENCODING 7716
SWIDTH 776 0
DWIDTH 26 0
BBX 30 29 1 -4
BITMAP
07FE0FFC
01F001F0
01E001E0
01E001C0
01E001C0
01C003C0
01C003C0
01C00380
03C00380
03C00380
03C00780
03800780
03FFFF00
07800700
07800700
07800F00
07000F00
07000E00
0F000E00
0F000E00
0F001E00
0E001E00
1E001E00
3E003E00
FFC1FF80
00000000
000E0000
001E0000
001C0000
ENDCHAR
STARTCHAR uni1E25
ENCODING 7717
SWIDTH 631 0
DWIDTH 21 0
BBX 18 30 3 -4
BITMAP
3F0000
070000
070000
0F0000
0F0000
0E0000
0E0000
0E0000
1E0F00
1E1F80
1C73C0
1CC3C0
1D8380
3D0380
3E0380
3E0380
3C0780
380700
780700
780700
700700
700F00
700E00
F00E00
F00E00
E01FC0
000000
01C000
03C000
038000
ENDCHAR
STARTCHAR uni1E26
ENCODING 7718
SWIDTH 776 0
DWIDTH 26 0
BBX 30 28 1 0
BITMAP
001C3800
001C7800
00000000
07FE0FFC
01F001F0
01E001E0
01E001C0
01E001C0
01C003C0
01C003C0
01C00380
03C00380
03C00380
03C00780
03800780
03FFFF00
07800700
07800700
07800F00
07000F00
07000E00
0F000E00
0F000E00
0F001E00
0E001E00
1E001E00
3E003E00
FFC1FF80
ENDCHAR
STARTCHAR uni1E27
ENCODING 7719
SWIDTH 631 0
DWIDTH 21 0
BBX 18 29 3 0
BITMAP
387000
38F000
000000
3F0000
070000
070000
0F0000
0F0000
0E0000
0E0000
0E0000
1E0F00
1E1F80
1C73C0
1CC3C0
1D8380
3D0380
3E0380
3E0380
3C0780
380700
780700
780700
700700
700F00
700E00
F00E00
F00E00
E01FC0
ENDCHAR
STARTCHAR uni1E28
ENCODING 7720
SWIDTH 776 0
DWIDTH 26 0
BBX 30 32 1 -7
BITMAP
07FE0FFC
01F001F0
01E001E0
01E001C0
01E001C0
01C003C0
01C003C0
01C00380
03C00380
03C00380
03C00780
03800780
03FFFF00
07800700
07800700
07800F00
07000F00
07000E00
0F000E00
0F000E00
0F001E00
0E001E00
1E001E00
3E003E00
FFC3FF80
00040000
000E0000
00070000
00030000
00030000
00070000
001E0000
ENDCHAR
STARTCHAR uni1E29
ENCODING 7721
SWIDTH 631 0
DWIDTH 21 0
BBX 18 33 3 -7
BITMAP
3F0000
070000
070000
0F0000
0F0000
0E0000
0E0000
0E0000
1E0F00
1E1F80
1C73C0
1CC3C0
1D8380
3D0380
3E0380
3E0380
3C0780
380700
780700
780700
700700
700F00
700E00
F00E00
F00E00
E05FC0
008000
01C000
00E000
006000
006000
00E000
03C000
ENDCHAR
STARTCHAR uni1E2A
ENCODING 7722
SWIDTH 776 0
DWIDTH 26 0
BBX 30 31 1 -6
BITMAP
07FE0FFC
01F001F0
01E001E0
01E001C0
01E001C0
01C003C0
01C003C0
01C00380
03C00380
03C00380
03C00780
03800780
03FFFF00
07800700
07800700
07800F00
07000F00
07000E00
0F000E00
0F000E00
0F001E00
0E001E00
1E001E00
3E003E00
FFC1FF80
00000000
00401000
00602000
0071C000
003F8000
001F0000
ENDCHAR
STARTCHAR uni1E2B
ENCODING 7723
SWIDTH 631 0
DWIDTH 21 0
BBX 18 32 3 -6
BITMAP
3F0000
070000
070000
0F0000
0F0000
0E0000
0E0000
0E0000
1E0F00
1E1F80
1C73C0
1CC3C0
1D8380
3D0380
3E0380
3E0380
3C0780
380700
780700
780700
700700
700F00
700E00
F00E00
F00E00
E01FC0
000000
080200
0C0400
0E3800
07F000
03E000
ENDCHAR
STARTCHAR uni1E2C
ENCODING 7724
SWIDTH 325 0
DWIDTH 11 0
BBX 15 30 1 -5
BITMAP
07FE
00F8
00F0
00E0
01E0
01E0
01C0
01C0
01C0
03C0
03C0
0380
0380
0380
0780
0780
0700
0700
0F00
0F00
0F00
0E00
1E00
3E00
FFC0
0000
1C10
3F30
67E0
43C0
ENDCHAR
STARTCHAR uni1E2D
ENCODING 7725
SWIDTH 289 0
DWIDTH 10 0
BBX 11 30 2 -5
BITMAP
01C0
03C0
0380
0000
0000
0000
0000
3F80
0700
0700
0700
0700
0F00
0E00
0E00
0E00
0E00
1E00
1C00
1C00
1C00
1C00
3C00
3C00
3F00
0000
3820
7E60
CFC0
8780
ENDCHAR
STARTCHAR uni1E2E
ENCODING 7726
SWIDTH 325 0
DWIDTH 11 0
BBX 16 35 1 0
BITMAP
001E
0038
0070
00C0
0180
0000
0387
038F
0000
0000
07FE
00F8
00F0
00E0
01E0
01E0
01C0
01C0
01C0
03C0
03C0
0380
0380
0380
0780
0780
0700
0700
0F00
0F00
0F00
0E00
1E00
3E00
FFC0
ENDCHAR
STARTCHAR uni1E2F
ENCODING 7727
SWIDTH 289 0
DWIDTH 10 0
BBX 12 28 3 0
BITMAP
01E0
0380
0700
0C00
1800
0000
3870
38F0
0000
0000
FE00
1E00
1C00
1C00
1C00
1C00
3C00
3800
3800
3800
3800
7800
7000
7000
7000
7000
F000
FE00
ENDCHAR
STARTCHAR uni1E30
ENCODING 7728
SWIDTH 698 0
DWIDTH 24 0
BBX 26 31 1 0
BITMAP
0001E000
00038000
00070000
000C0000
00180000
00000000
07FE1FC0
01F00700
01E00C00
01E01800
01E03000
01C06000
01C08000
01C10000
03C20000
03CC0000
03980000
03B80000
03F80000
07BC0000
079E0000
079E0000
070F0000
07078000
0F078000
0F03C000
0F01E000
0E01E000
1E00F000
3E00F800
FFC3FE00
ENDCHAR
STARTCHAR uni1E31
ENCODING 7729
SWIDTH 560 0
DWIDTH 19 0
BBX 17 32 3 0
BITMAP
00F000
01C000
038000
060000
0C0000
000000
3F0000
070000
070000
0F0000
0F0000
0E0000
0E0000
0E0000
1E0780
1E0700
1C0700
1C0E00
1C1C00
3C3000
3CC000
390000
3F8000
3B8000
7BC000
79E000
71E000
70F000
707800
F07C00
F03E00
E01F80
ENDCHAR
STARTCHAR uni1E32
ENCODING 7730
SWIDTH 698 0
DWIDTH 24 0
BBX 26 29 1 -4
BITMAP
07FE1FC0
01F00700
01E00C00
01E01800
01E03000
01C06000
01C08000
01C10000
03C20000
03CC0000
03980000
03B80000
03F80000
07BC0000
079E0000
079E0000
070F0000
07078000
0F078000
0F03C000
0F01E000
0E01E000
1E00F000
3E00F800
FFC3FE00
00000000
001C0000
003C0000
00380000
ENDCHAR
STARTCHAR uni1E33
ENCODING 7731
SWIDTH 560 0
DWIDTH 19 0
BBX 17 30 3 -4
BITMAP
3F0000
070000
070000
0F0000
0F0000
0E0000
0E0000
0E0000
1E0780
1E0700
1C0700
1C0E00
1C1C00
3C3000
3CC000
390000
3F8000
3B8000
7BC000
79E000
71E000
70F000
707800
F07C00
F03E00
E01F80
000000
038000
078000
070000
ENDCHAR
STARTCHAR uni1E34
ENCODING 7732
SWIDTH 698 0
DWIDTH 24 0
BBX 26 27 1 -2
BITMAP
07FE1FC0
01F00700
01E00C00
01E01800
01E03000
01C06000
01C08000
01C10000
03C20000
03CC0000
03980000
03B80000
03F80000
07BC0000
079E0000
079E0000
070F0000
07078000
0F078000
0F03C000
0F01E000
0E01E000
1E00F000
3E00F800
FFC3FE00
00000000
01FF8000
ENDCHAR
STARTCHAR uni1E35
ENCODING 7733
SWIDTH 560 0
DWIDTH 19 0
BBX 17 28 3 -2
BITMAP
3F0000
070000
070000
0F0000
0F0000
0E0000
0E0000
0E0000
1E0780
1E0700
1C0700
1C0E00
1C1C00
3C3000
3CC000
390000
3F8000
3B8000
7BC000
79E000
71E000
70F000
707800
F07C00
F03E00
E01F80
000000
1FF800
ENDCHAR
STARTCHAR uni1E36
ENCODING 7734
SWIDTH 572 0
DWIDTH 19 0
BBX 19 29 1 -4
BITMAP
07FE00
01F000
01E000
01E000
01E000
01C000
01C000
01C000
03C000
03C000
038000
038000
038000
078000
078000
070000
070000
070000
0F0000
0F0000
0F0000
0E0060
1E0060
3E00C0
FFFFC0
000000
01C000
03C000
038000
ENDCHAR
STARTCHAR uni1E37
ENCODING 7735
SWIDTH 289 0
DWIDTH 10 0
BBX 9 30 3 -4
BITMAP
3F80
0780
0700
0700
0700
0F00
0F00
0E00
0E00
1E00
1E00
1E00
1C00
1C00
3C00
3C00
3C00
3800
3800
7800
7800
7000
7000
7000
F000
FE00
0000
3800
7800
7000
ENDCHAR
STARTCHAR uni1E38
ENCODING 7736
SWIDTH 572 0
DWIDTH 19 0
BBX 19 31 1 -4
BITMAP
0FFC00
000000
07FE00
01F000
01E000
01E000
01E000
01C000
01C000
01C000
03C000
03C000
038000
038000
038000
078000
078000
070000
070000
070000
0F0000
0F0000
0F0000
0E0060
1E0060
3E00C0
FFFFC0
000000
01C000
03C000
038000
ENDCHAR
STARTCHAR uni1E39
ENCODING 7737
SWIDTH 289 0
DWIDTH 10 0
BBX 11 32 3 -4
BITMAP
7FE0
0000
3F80
0780
0700
0700
0700
0F00
0F00
0E00
0E00
1E00
1E00
1E00
1C00
1C00
3C00
3C00
3C00
3800
3800
7800
7800
7000
7000
7000
F000
FE00
0000
3800
7800
7000
ENDCHAR
STARTCHAR uni1E3A
ENCODING 7738
SWIDTH 572 0
DWIDTH 19 0
BBX 19 27 1 -2
BITMAP
07FE00
01F000
01E000
01E000
01E000
01C000
01C000
01C000
03C000
03C000
038000
038000
038000
078000
078000
070000
070000
070000
0F0000
0F0000
0F0000
0E0060
1E0060
3E00C0
FFFFC0
000000
0FFC00
ENDCHAR
STARTCHAR uni1E3B
ENCODING 7739
SWIDTH 289 0
DWIDTH 10 0
BBX 11 28 1 -2
BITMAP
0FE0
01E0
01C0
01C0
01C0
03C0
03C0
0380
0380
0780
0780
0780
0700
0700
0F00
0F00
0F00
0E00
0E00
1E00
1E00
1C00
1C00
1C00
3C00
3F80
0000
FFC0
ENDCHAR
STARTCHAR uni1E3C
ENCODING 7740
SWIDTH 572 0
DWIDTH 19 0
BBX 19 31 1 -6
BITMAP
07FE00
01F000
01E000
01E000
01E000
01C000
01C000
01C000
03C000
03C000
038000
038000
038000
078000
078000
070000
070000
070000
0F0000
0F0000
0F0000
0E0060
1E0060
3E00C0
FFFFC0
000000
01F000
03F000
073800
0E1800
180C00
ENDCHAR
STARTCHAR uni1E3D
ENCODING 7741
SWIDTH 289 0
DWIDTH 10 0
BBX 12 32 0 -6
BITMAP
07F0
00F0
00E0
00E0
00E0
01E0
01E0
01C0
01C0
03C0
03C0
03C0
0380
0380
0780
0780
0780
0700
0700
0F00
0F00
0E00
0E00
0E00
1E00
1FC0
0000
0F80
1F80
39C0
70C0
C060
ENDCHAR
STARTCHAR uni1E3E
ENCODING 7742
SWIDTH 865 0
DWIDTH 29 0
BBX 33 31 1 0
BITMAP
00001E0000
0000380000
0000700000
0000C00000
0001800000
0000000000
07E0003F80
00F0003E00
00F0007C00
01F000F800
01F000B800
01F8013800
01F8017800
0138027000
0338067000
033C047000
033C087000
031C08F000
021C10E000
061E30E000
061E20E000
060E40E000
060EC1E000
040E81C000
0C0F81C000
0C0701C000
0C0601C000
0C0603C000
1C0003C000
3C0007C000
FF001FF000
ENDCHAR
STARTCHAR uni1E3F
ENCODING 7743
SWIDTH 944 0
DWIDTH 32 0
BBX 29 24 3 0
BITMAP
00007800
0000E000
0001C000
00030000
00060000
00000000
FE0F01E0
1E1F83F0
1C738E70
1CC39C78
1D839870
1D03B070
3F03E070
3E07C070
3C0780F0
380780E0
380700E0
780700E0
700F01E0
700E01E0
700E01C0
700E01C0
F01E01C0
E01E03F8
ENDCHAR
STARTCHAR uni1E40
ENCODING 7744
SWIDTH 865 0
DWIDTH 29 0
BBX 33 29 1 0
BITMAP
0000700000
0000F00000
0000E00000
0000000000
07E0003F80
00F0003E00
00F0007C00
01F000F800
01F000B800
01F8013800
01F8017800
0138027000
0338067000
033C047000
033C087000
031C08F000
021C10E000
061E30E000
061E20E000
060E40E000
060EC1E000
040E81C000
0C0F81C000
0C0701C000
0C0601C000
0C0603C000
1C0003C000
3C0007C000
FF001FF000
ENDCHAR
STARTCHAR uni1E41
ENCODING 7745
SWIDTH 944 0
DWIDTH 32 0
BBX 29 22 3 0
BITMAP
00038000
00078000
00070000
00000000
FE0F01E0
1E1F83F0
1C738E70
1CC39C78
1D839870
1D03B070
3F03E070
3E07C070
3C0780F0
380780E0
380700E0
780700E0
700F01E0
700E01E0
700E01C0
700E01C0
F01E01C0
E01E03F8
ENDCHAR
STARTCHAR uni1E42
ENCODING 7746
SWIDTH 865 0
DWIDTH 29 0
BBX 33 29 1 -4
BITMAP
07E0003F80
00F0003E00
00F0007C00
01F000F800
01F000B800
01F8013800
01F8017800
0138027000
0338067000
033C047000
033C087000
031C08F000
021C10E000
061E30E000
061E20E000
060E40E000
060EC1E000
040E81C000
0C0F81C000
0C0701C000
0C0601C000
0C0603C000
1C0003C000
3C0007C000
FF001FF000
0000000000
0003800000
0007800000
0007000000
ENDCHAR
STARTCHAR uni1E43
ENCODING 7747
SWIDTH 944 0
DWIDTH 32 0
BBX 29 22 3 -4
BITMAP
FE0F01E0
1E1F83F0
1C738E70
1CC39C78
1D839870
1D03B070
3F03E070
3E07C070
3C0780F0
380780E0
380700E0
780700E0
700F01E0
700E01E0
700E01C0
700E01C0
F01E01C0
E01E03F8
00000000
00070000
000F0000
000E0000
ENDCHAR
STARTCHAR uni1E44
ENCODING 7748
SWIDTH 762 0
DWIDTH 26 0
BBX 29 29 1 0
BITMAP
00038000
00078000
00070000
00000000
07C003F8
01E000E0
01E000C0
01F000C0
01F80080
01780080
013C0080
033C0180
031E0180
031E0100
020F0100
02070100
06078300
06038300
0603C200
0601E200
0401E200
0400F600
0C00F600
0C007E00
0C003C00
08003C00
18001C00
38001C00
FF000C00
ENDCHAR
STARTCHAR uni1E45
ENCODING 7749
SWIDTH 631 0
DWIDTH 21 0
BBX 18 22 3 0
BITMAP
007000
00F000
00E000
000000
FE0F00
1E1F80
1C73C0
1CC3C0
1D8380
3D0380
3E0380
3E0380
3C0780
380700
780700
780700
700700
700F00
700E00
F00E00
F00E00
E01FC0
ENDCHAR
STARTCHAR uni1E46
ENCODING 7750
SWIDTH 762 0
DWIDTH 26 0
BBX 29 29 1 -4
BITMAP
07C003F8
01E000E0
01E000C0
01F000C0
01F80080
01780080
013C0080
033C0180
031E0180
031E0100
020F0100
02070100
06078300
06038300
0603C200
0601E200
0401E200
0400F600
0C00F600
0C007E00
0C003C00
08003C00
18001C00
38001C00
FF000C00
00000000
000E0000
001E0000
001C0000
ENDCHAR
STARTCHAR uni1E47
ENCODING 7751
SWIDTH 631 0
DWIDTH 21 0
BBX 18 22 3 -4
BITMAP
FE0F00
1E1F80
1C73C0
1CC3C0
1D8380
3D0380
3E0380
3E0380
3C0780
380700
780700
780700
700700
700F00
700E00
F00E00
F00E00
E01FC0
000000
01C000
03C000
038000
ENDCHAR
STARTCHAR uni1E48
ENCODING 7752
SWIDTH 762 0
DWIDTH 26 0
BBX 29 27 1 -2
BITMAP
07C003F8
01E000E0
01E000C0
01F000C0
01F80080
01780080
013C0080
033C0180
031E0180
031E0100
020F0100
02070100
06078300
06038300
0603C200
0601E200
0401E200
0400F600
0C00F600
0C007E00
0C003C00
08003C00
18001C00
38001C00
FF000C00
00000000
007FE000
ENDCHAR
STARTCHAR uni1E49
ENCODING 7753
SWIDTH 631 0
DWIDTH 21 0
BBX 18 20 3 -2
BITMAP
FE0F00
1E1F80
1C73C0
1CC3C0
1D8380
3D0380
3E0380
3E0380
3C0780
380700
780700
780700
700700
700F00
700E00
F00E00
F00E00
E01FC0
000000
0FFC00
ENDCHAR
STARTCHAR uni1E4A
ENCODING 7754
SWIDTH 762 0
DWIDTH 26 0
BBX 29 31 1 -6
BITMAP
07C003F8
01E000E0
01E000C0
01F000C0
01F80080
01780080
013C0080
033C0180
031E0180
031E0100
020F0100
02070100
06078300
06038300
0603C200
0601E200
0401E200
0400F600
0C00F600
0C007E00
0C003C00
08003C00
18001C00
38001C00
FF000C00
00000000
000F8000
001F8000
0039C000
0070C000
00C06000
ENDCHAR
STARTCHAR uni1E4B
ENCODING 7755
SWIDTH 631 0
DWIDTH 21 0
BBX 18 24 3 -6
BITMAP
FE0F00
1E1F80
1C73C0
1CC3C0
1D8380
3D0380
3E0380
3E0380
3C0780
380700
780700
780700
700700
700F00
700E00
F00E00
F00E00
E01FC0
000000
01F000
03F000
073800
0E1800
180C00
ENDCHAR
STARTCHAR uni1E4C
ENCODING 7756
SWIDTH 783 0
DWIDTH 27 0
BBX 24 37 4 0
BITMAP
0000F0
0001C0
000380
000600
000C00
000000
000E08
001F98
0033F0
0021E0
000000
000000
001FC0
007070
01C03C
03801C
07000E
0E000E
1C000F
3C000F
38000F
78000F
78000F
70000F
F0000F
F0000E
F0001E
F0001E
F0001C
F0003C
F00038
F00070
7000E0
7801C0
3C0380
0E0E00
03F800
ENDCHAR
STARTCHAR uni1E4D
ENCODING 7757
SWIDTH 560 0
DWIDTH 19 0
BBX 18 30 3 0
BITMAP
000780
000E00
001C00
003000
006000
000000
007040
00FCC0
019F80
010F00
000000
000000
00FC00
030E00
0E0700
1C0700
1C0780
380780
780780
700780
700780
F00700
F00700
F00F00
F00E00
F01C00
F01800
703000
78E000
1F8000
ENDCHAR
STARTCHAR uni1E4E
ENCODING 7758
SWIDTH 783 0
DWIDTH 27 0
BBX 24 34 4 0
BITMAP
0070E0
0071E0
000000
000E08
001F98
0033F0
0021E0
000000
000000
001FC0
007070
01C03C
03801C
07000E
0E000E
1C000F
3C000F
38000F
78000F
78000F
70000F
F0000F
F0000E
F0001E
F0001E
F0001C
F0003C
F00038
F00070
7000E0
7801C0
3C0380
0E0E00
03F800
ENDCHAR
STARTCHAR uni1E4F
ENCODING 7759
SWIDTH 560 0
DWIDTH 19 0
BBX 18 27 3 0
BITMAP
038700
038F00
000000
007040
00FCC0
019F80
010F00
000000
000000
00FC00
030E00
0E0700
1C0700
1C0780
380780
780780
700780
700780
F00700
F00700
F00F00
F00E00
F01C00
F01800
703000
78E000
1F8000
ENDCHAR
STARTCHAR uni1E50
ENCODING 7760
SWIDTH 783 0
DWIDTH 27 0
BBX 24 33 4 0
BITMAP
003C00
001C00
000E00
000600
000300
000000
007FE0
000000
001FC0
007070
01C03C
03801C
07000E
0E000E
1C000F
3C000F
38000F
78000F
78000F
70000F
F0000F
F0000E
F0001E
F0001E
F0001C
F0003C
F00038
F00070
7000E0
7801C0
3C0380
0E0E00
03F800
ENDCHAR
STARTCHAR uni1E51
ENCODING 7761
SWIDTH 560 0
DWIDTH 19 0
BBX 17 26 3 0
BITMAP
03C000
01C000
00E000
006000
003000
000000
07FE00
000000
00FC00
030E00
0E0700
1C0700
1C0780
380780
780780
700780
700780
F00700
F00700
F00F00
F00E00
F01C00
F01800
703000
78E000
1F8000
ENDCHAR
STARTCHAR uni1E52
ENCODING 7762
SWIDTH 783 0
DWIDTH 27 0
BBX 24 33 4 0
BITMAP
0001E0
000380
000700
000C00
001800
000000
007FE0
000000
001FC0
007070
01C03C
03801C
07000E
0E000E
1C000F
3C000F
38000F
78000F
78000F
70000F
F0000F
F0000E
F0001E
F0001E
F0001C
F0003C
F00038
F00070
7000E0
7801C0
3C0380
0E0E00
03F800
ENDCHAR
STARTCHAR uni1E53
ENCODING 7763
SWIDTH 560 0
DWIDTH 19 0
BBX 17 26 3 0
BITMAP
001E00
003800
007000
00C000
018000
000000
07FE00
000000
00FC00
030E00
0E0700
1C0700
1C0780
380780
780780
700780
700780
F00700
F00700
F00F00
F00E00
F01C00
F01800
703000
78E000
1F8000
ENDCHAR
STARTCHAR uni1E54
ENCODING 7764
SWIDTH 579 0
DWIDTH 20 0
BBX 22 31 1 0
BITMAP
0001E0
000380
000700
000C00
001800
000000
07FFE0
01E078
01E038
01E03C
01E03C
01C03C
01C03C
01C03C
03C038
03C078
038070
0380F0
0381C0
078780
07FC00
078000
070000
070000
0F0000
0F0000
0F0000
0E0000
1E0000
3E0000
FFC000
ENDCHAR
STARTCHAR uni1E55
ENCODING 7765
SWIDTH 608 0
DWIDTH 21 0
BBX 20 31 2 -7
BITMAP
000780
000E00
001C00
003000
006000
000000
3F03C0
0F0FE0
0F18F0
0F30F0
0F60F0
0EC0F0
0E80F0
0F00F0
1E00E0
1E00E0
1C01C0
1C01C0
1C0180
3C0300
380200
380400
3C0800
3FF000
780000
700000
700000
700000
700000
F00000
E00000
ENDCHAR
STARTCHAR uni1E56
ENCODING 7766
SWIDTH 579 0
DWIDTH 20 0
BBX 22 29 1 0
BITMAP
000E00
001E00
001C00
000000
07FFE0
01E078
01E038
01E03C
01E03C
01C03C
01C03C
01C03C
03C038
03C078
038070
0380F0
0381C0
078780
07FC00
078000
070000
070000
0F0000
0F0000
0F0000
0E0000
1E0000
3E0000
FFC000
ENDCHAR
STARTCHAR uni1E57
ENCODING 7767
SWIDTH 608 0
DWIDTH 21 0
BBX 20 29 2 -7
BITMAP
003800
007800
007000
000000
3F03C0
0F0FE0
0F18F0
0F30F0
0F60F0
0EC0F0
0E80F0
0F00F0
1E00E0
1E00E0
1C01C0
1C01C0
1C0180
3C0300
380200
380400
3C0800
3FF000
780000
700000
700000
700000
700000
F00000
E00000
ENDCHAR
STARTCHAR uni1E58
ENCODING 7768
SWIDTH 686 0
DWIDTH 23 0
BBX 23 29 1 0
BITMAP
000700
000F00
000E00
000000
07FFE0
00E0F8
00E03C
00E03C
01E01C
01E03C
01C03C
01C03C
01C038
03C078
03C0F0
0383C0
03FF00
078F00
078F00
078780
070780
0703C0
0F03C0
0F01E0
0F01E0
0E00F0
1E00F0
3E0078
FFC07E
ENDCHAR
STARTCHAR uni1E59
ENCODING 7769
SWIDTH 470 0
DWIDTH 16 0
BBX 15 22 4 0
BITMAP
01C0
03C0
0380
0000
FE0E
1C1C
1C7C
1CF8
1CC0
3D00
3A00
3C00
3C00
3800
7800
7800
7000
7000
7000
F000
F000
E000
ENDCHAR
STARTCHAR uni1E5A
ENCODING 7770
SWIDTH 686 0
DWIDTH 23 0
BBX 23 29 1 -4
BITMAP
07FFE0
00E0F8
00E03C
00E03C
01E01C
01E03C
01C03C
01C03C
01C038
03C078
03C0F0
0383C0
03FF00
078F00
078F00
078780
070780
0703C0
0F03C0
0F01E0
0F01E0
0E00F0
1E00F0
3E0078
FFC07E
000000
003800
007800
007000
ENDCHAR
STARTCHAR uni1E5B
ENCODING 7771
SWIDTH 470 0
DWIDTH 16 0
BBX 15 22 4 -4
BITMAP
FE0E
1C1C
1C7C
1CF8
1CC0
3D00
3A00
3C00
3C00
3800
7800
7800
7000
7000
7000
F000
F000
E000
0000
1C00
3C00
3800
ENDCHAR
STARTCHAR uni1E5C
ENCODING 7772
SWIDTH 686 0
DWIDTH 23 0
BBX 23 31 1 -4
BITMAP
00FFC0
000000
07FFE0
00E0F8
00E03C
00E03C
01E01C
01E03C
01C03C
01C03C
01C038
03C078
03C0F0
0383C0
03FF00
078F00
078F00
078780
070780
0703C0
0F03C0
0F01E0
0F01E0
0E00F0
1E00F0
3E0078
FFC07E
000000
003800
007800
007000
ENDCHAR
STARTCHAR uni1E5D
ENCODING 7773
SWIDTH 470 0
DWIDTH 16 0
BBX 15 24 4 -4
BITMAP
3FF0
0000
FE0E
1C1C
1C7C
1CF8
1CC0
3D00
3A00
3C00
3C00
3800
7800
7800
7000
7000
7000
F000
F000
E000
0000
1C00
3C00
3800
ENDCHAR
STARTCHAR uni1E5E
ENCODING 7774
SWIDTH 686 0
DWIDTH 23 0
BBX 23 27 1 -2
BITMAP
07FFE0
00E0F8
00E03C
00E03C
01E01C
01E03C
01C03C
01C03C
01C038
03C078
03C0F0
0383C0
03FF00
078F00
078F00
078780
070780
0703C0
0F03C0
0F01E0
0F01E0
0E00F0
1E00F0
3E0078
FFC07E
000000
03FF00
ENDCHAR
STARTCHAR uni1E5F
ENCODING 7775
SWIDTH 470 0
DWIDTH 16 0
BBX 16 20 3 -2
BITMAP
7F07
0E0E
0E3E
0E7C
0E60
1E80
1D00
1E00
1E00
1C00
3C00
3C00
3800
3800
3800
7800
7800
7000
0000
FFC0
ENDCHAR
STARTCHAR uni1E60
ENCODING 7776
SWIDTH 549 0
DWIDTH 19 0
BBX 20 29 2 0
BITMAP
003800
007800
007000
000000
007F80
01C1F0
038060
070060
070060
0F00E0
0F0000
0F0000
0F0000
078000
03C000
01F000
00F800
007C00
003E00
001F00
000F00
000F00
000F00
600F00
600E00
E00E00
E01C00
F03800
1FC000
ENDCHAR
STARTCHAR uni1E61
ENCODING 7777
SWIDTH 440 0
DWIDTH 15 0
BBX 14 22 2 0
BITMAP
01C0
03C0
0380
0000
03F8
061C
0C0C
1C0C
1C08
1E00
0F00
0F80
07C0
03E0
01E0
00F0
0070
4070
C070
C070
F0E0
3F80
ENDCHAR
STARTCHAR uni1E62
ENCODING 7778
SWIDTH 549 0
DWIDTH 19 0
BBX 20 29 2 -4
BITMAP
007F80
01C1F0
038060
070060
070060
0F00E0
0F0000
0F0000
0F0000
078000
03C000
01F000
00F800
007C00
003E00
001F00
000F00
000F00
000F00
600F00
600E00
E00E00
E01C00
F03800
1FC000
000000
01C000
03C000
038000
ENDCHAR
STARTCHAR uni1E63
ENCODING 7779
SWIDTH 440 0
DWIDTH 15 0
BBX 14 22 2 -4
BITMAP
03F8
061C
0C0C
1C0C
1C08
1E00
0F00
0F80
07C0
03E0
01E0
00F0
0070
4070
C070
C070
F0E0
3F80
0000
0700
0F00
0E00
ENDCHAR
STARTCHAR uni1E64
ENCODING 7780
SWIDTH 549 0
DWIDTH 19 0
BBX 20 35 2 0
BITMAP
001C00
003C00
003800
000000
000780
000E00
001C00
003000
006000
000000
007F80
01C1F0
038060
070060
070060
0F00E0
0F0000
0F0000
0F0000
078000
03C000
01F000
00F800
007C00
003E00
001F00
000F00
000F00
000F00
600F00
600E00
E00E00
E01C00
F03800
1FC000
ENDCHAR
STARTCHAR uni1E65
ENCODING 7781
SWIDTH 440 0
DWIDTH 15 0
BBX 14 28 2 0
BITMAP
00E0
01E0
01C0
0000
003C
0070
00E0
0180
0300
0000
03F8
061C
0C0C
1C0C
1C08
1E00
0F00
0F80
07C0
03E0
01E0
00F0
0070
4070
C070
C070
F0E0
3F80
ENDCHAR
STARTCHAR uni1E66
ENCODING 7782
SWIDTH 549 0
DWIDTH 19 0
BBX 20 36 2 0
BITMAP
000E00
001E00
001C00
000000
006030
0030E0
0039C0
001F80
001F00
000000
000000
007F80
01C1F0
038060
070060
070060
0F00E0
0F0000
0F0000
0F0000
078000
03C000
01F000
00F800
007C00
003E00
001F00
000F00
000F00
000F00
600F00
600E00
E00E00
E01C00
F03800
1FC000
ENDCHAR
STARTCHAR uni1E67
ENCODING 7783
SWIDTH 440 0
DWIDTH 15 0
BBX 18 29 2 0
BITMAP
003800
007800
007000
000000
0180C0
00C380
00E700
007E00
007C00
000000
000000
03F800
061C00
0C0C00
1C0C00
1C0800
1E0000
0F0000
0F8000
07C000
03E000
01E000
00F000
007000
407000
C07000
C07000
F0E000
3F8000
ENDCHAR
STARTCHAR uni1E68
ENCODING 7784
SWIDTH 549 0
DWIDTH 19 0
BBX 20 33 2 -4
BITMAP
003800
007800
007000
000000
007F80
01C1F0
038060
070060
070060
0F00E0
0F0000
0F0000
0F0000
078000
03C000
01F000
00F800
007C00
003E00
001F00
000F00
000F00
000F00
600F00
600E00
E00E00
E01C00
F03800
1FC000
000000
01C000
03C000
038000
ENDCHAR
STARTCHAR uni1E69
ENCODING 7785
SWIDTH 440 0
DWIDTH 15 0
BBX 14 26 2 -4
BITMAP
01C0
03C0
0380
0000
03F8
061C
0C0C
1C0C
1C08
1E00
0F00
0F80
07C0
03E0
01E0
00F0
0070
4070
C070
C070
F0E0
3F80
0000
0700
0F00
0E00
ENDCHAR
STARTCHAR uni1E6A
ENCODING 7786
SWIDTH 663 0
DWIDTH 23 0
BBX 22 29 5 0
BITMAP
003800
007800
007000
000000
7FFFFC
60780C
C07808
C07018
007000
007000
00F000
00F000
00E000
00E000
00E000
01E000
01E000
01E000
01C000
01C000
03C000
03C000
03C000
038000
038000
078000
078000
0F8000
7FF000
ENDCHAR
STARTCHAR uni1E6B
ENCODING 7787
SWIDTH 355 0
DWIDTH 12 0
BBX 11 27 4 0
BITMAP
0700
0F00
0E00
0000
0200
0E00
1E00
1E00
1C00
FFE0
1C00
1C00
3C00
3800
3800
3800
7800
7800
7000
7000
7000
F000
F000
F000
7000
7000
3E00
ENDCHAR
STARTCHAR uni1E6C
ENCODING 7788
SWIDTH 663 0
DWIDTH 23 0
BBX 22 29 5 -4
BITMAP
7FFFFC
60780C
C07808
C07018
007000
007000
00F000
00F000
00E000
00E000
00E000
01E000
01E000
01E000
01C000
01C000
03C000
03C000
03C000
038000
038000
078000
078000
0F8000
7FF000
000000
01C000
03C000
038000
ENDCHAR
STARTCHAR uni1E6D
ENCODING 7789
SWIDTH 355 0
DWIDTH 12 0
BBX 11 27 4 -4
BITMAP
0200
0E00
1E00
1E00
1C00
FFE0
1C00
1C00
3C00
3800
3800
3800
7800
7800
7000
7000
7000
F000
F000
F000
7000
7000
3E00
0000
3800
7800
7000
ENDCHAR
STARTCHAR uni1E6E
ENCODING 7790
SWIDTH 663 0
DWIDTH 23 0
BBX 22 27 5 -2
BITMAP
7FFFFC
60780C
C07808
C07018
007000
007000
00F000
00F000
00E000
00E000
00E000
01E000
01E000
01E000
01C000
01C000
03C000
03C000
03C000
038000
038000
078000
078000
0F8000
7FF000
000000
1FF800
ENDCHAR
STARTCHAR uni1E6F
ENCODING 7791
SWIDTH 355 0
DWIDTH 12 0
BBX 12 25 3 -2
BITMAP
0100
0700
0F00
0F00
0E00
7FF0
0E00
0E00
1E00
1C00
1C00
1C00
3C00
3C00
3800
3800
3800
7800
7800
7800
3800
3800
1F00
0000
FFC0
ENDCHAR
STARTCHAR uni1E70
ENCODING 7792
SWIDTH 663 0
DWIDTH 23 0
BBX 22 31 5 -6
BITMAP
7FFFFC
60780C
C07808
C07018
007000
007000
00F000
00F000
00E000
00E000
00E000
01E000
01E000
01E000
01C000
01C000
03C000
03C000
03C000
038000
038000
078000
078000
0F8000
7FF000
000000
03E000
07E000
0E7000
1C3000
301800
ENDCHAR
STARTCHAR uni1E71
ENCODING 7793
SWIDTH 355 0
DWIDTH 12 0
BBX 13 29 2 -6
BITMAP
0080
0380
0780
0780
0700
3FF8
0700
0700
0F00
0E00
0E00
0E00
1E00
1E00
1C00
1C00
1C00
3C00
3C00
3C00
1C00
1C00
0F80
0000
0F80
1F80
39C0
70C0
C060
ENDCHAR
STARTCHAR uni1E72
ENCODING 7794
SWIDTH 727 0
DWIDTH 25 0
BBX 24 28 5 -3
BITMAP
FFC0FF
1F001C
1E0018
1C0010
1C0030
3C0030
3C0030
380020
380020
380060
780060
780060
700040
700040
7000C0
F000C0
F000C0
E00080
E00180
E00180
F00300
700200
780600
3C1800
0FE000
000000
0E1C00
0E3C00
ENDCHAR
STARTCHAR uni1E73
ENCODING 7795
SWIDTH 630 0
DWIDTH 21 0
BBX 18 21 3 -3
BITMAP
FE1FC0
1C03C0
1C0380
1C0380
3C0380
380380
380780
380700
380700
780F00
700F00
701F00
702E00
704E00
F08E00
F10E00
7E1E00
381FC0
000000
0E1C00
0E3C00
ENDCHAR
STARTCHAR uni1E74
ENCODING 7796
SWIDTH 727 0
DWIDTH 25 0
BBX 24 30 5 -5
BITMAP
FFC0FF
1F001C
1E0018
1C0010
1C0030
3C0030
3C0030
380020
380020
380060
780060
780060
700040
700040
7000C0
F000C0
F000C0
E00080
E00180
E00180
F00300
700200
780600
3C1800
0FE000
000000
070400
0FCC00
19F800
10F000
ENDCHAR
STARTCHAR uni1E75
ENCODING 7797
SWIDTH 630 0
DWIDTH 21 0
BBX 18 23 3 -5
BITMAP
FE1FC0
1C03C0
1C0380
1C0380
3C0380
380380
380780
380700
380700
780F00
700F00
701F00
702E00
704E00
F08E00
F10E00
7E1E00
381FC0
000000
070400
0FCC00
19F800
10F000
ENDCHAR
STARTCHAR uni1E76
ENCODING 7798
SWIDTH 727 0
DWIDTH 25 0
BBX 24 31 5 -6
BITMAP
FFC0FF
1F001C
1E0018
1C0010
1C0030
3C0030
3C0030
380020
380020
380060
780060
780060
700040
700040
7000C0
F000C0
F000C0
E00080
E00180
E00180
F00300
700200
780600
3C1800
0FE000
000000
01F000
03F000
073800
0E1800
180C00
ENDCHAR
STARTCHAR uni1E77
ENCODING 7799
SWIDTH 630 0
DWIDTH 21 0
BBX 18 24 3 -6
BITMAP
FE1FC0
1C03C0
1C0380
1C0380
3C0380
380380
380780
380700
380700
780F00
700F00
701F00
702E00
704E00
F08E00
F10E00
7E1E00
381FC0
000000
01F000
03F000
073800
0E1800
180C00
ENDCHAR
STARTCHAR uni1E78
ENCODING 7800
SWIDTH 727 0
DWIDTH 25 0
BBX 24 36 5 0
BITMAP
000780
000E00
001C00
003000
006000
000000
01C100
03F300
067E00
043C00
000000
FFC0FF
1F001C
1E0018
1C0010
1C0030
3C0030
3C0030
380020
380020
380060
780060
780060
700040
700040
7000C0
F000C0
F000C0
E00080
E00180
E00180
F00300
700200
780600
3C1800
0FE000
ENDCHAR
STARTCHAR uni1E79
ENCODING 7801
SWIDTH 630 0
DWIDTH 21 0
BBX 18 29 3 0
BITMAP
001E00
003800
007000
00C000
018000
000000
038200
07E600
0CFC00
087800
000000
FE1FC0
1C03C0
1C0380
1C0380
3C0380
380380
380780
380700
380700
780F00
700F00
701F00
702E00
704E00
F08E00
F10E00
7E1E00
381FC0
ENDCHAR
STARTCHAR uni1E7A
ENCODING 7802
SWIDTH 727 0
DWIDTH 25 0
BBX 24 30 5 0
BITMAP
038700
038F00
000000
03FF00
000000
FFC0FF
1F001C
1E0018
1C0010
1C0030
3C0030
3C0030
380020
380020
380060
780060
780060
700040
700040
7000C0
F000C0
F000C0
E00080
E00180
E00180
F00300
700200
780600
3C1800
0FE000
ENDCHAR
STARTCHAR uni1E7B
ENCODING 7803
SWIDTH 630 0
DWIDTH 21 0
BBX 18 23 3 0
BITMAP
0E1C00
0E3C00
000000
0FFC00
000000
FE1FC0
1C03C0
1C0380
1C0380
3C0380
380380
380780
380700
380700
780F00
700F00
701F00
702E00
704E00
F08E00
F10E00
7E1E00
381FC0
ENDCHAR
STARTCHAR uni1E7C
ENCODING 7804
SWIDTH 656 0
DWIDTH 22 0
BBX 24 30 4 0
BITMAP
01C100
03F300
067E00
043C00
000000
FF803F
3C000C
3C0008
3C0010
1C0010
1C0020
1C0020
1E0040
1E00C0
1E0080
0E0100
0E0100
0F0200
0F0600
0F0400
070800
070800
071000
07B000
07A000
03C000
03C000
038000
038000
030000
ENDCHAR
STARTCHAR uni1E7D
ENCODING 7805
SWIDTH 558 0
DWIDTH 19 0
BBX 19 23 2 0
BITMAP
038200
07E600
0CFC00
087800
000000
FC01E0
3E00E0
1E00E0
0F00E0
0F00E0
0F00C0
070180
070100
078300
038600
038C00
038800
039000
03A000
03C000
038000
038000
030000
ENDCHAR
STARTCHAR uni1E7E
ENCODING 7806
SWIDTH 656 0
DWIDTH 22 0
BBX 24 29 4 -4
BITMAP
FF803F
3C000C
3C0008
3C0010
1C0010
1C0020
1C0020
1E0040
1E00C0
1E0080
0E0100
0E0100
0F0200
0F0600
0F0400
070800
070800
071000
07B000
07A000
03C000
03C000
038000
038000
030000
000000
00E000
01E000
01C000
ENDCHAR
STARTCHAR uni1E7F
ENCODING 7807
SWIDTH 558 0
DWIDTH 19 0
BBX 19 22 2 -4
BITMAP
FC01E0
3E00E0
1E00E0
0F00E0
0F00E0
0F00C0
070180
070100
078300
038600
038C00
038800
039000
03A000
03C000
038000
038000
030000
000000
01C000
03C000
038000
ENDCHAR
STARTCHAR Wgrave
ENCODING 7808
SWIDTH 878 0
DWIDTH 30 0
BBX 31 31 4 0
BITMAP
003C0000
001C0000
000E0000
00060000
00030000
00000000
FF8180FE
3C018018
3C038030
3C038020
3C078020
3C078040
3C0FC040
3C0BC080
1C1BC080
1C13C100
1C11C100
1C21C200
1C21C200
1C41C400
1C41C400
1C81C800
1C81C800
1D01D000
1D01D000
1E01E000
1E01E000
1C01C000
1C01C000
18018000
18008000
ENDCHAR
STARTCHAR wgrave
ENCODING 7809
SWIDTH 805 0
DWIDTH 27 0
BBX 27 24 2 0
BITMAP
003C0000
001C0000
000E0000
00060000
00030000
00000000
FC0201E0
3C0300E0
1C0700E0
1E0700C0
0E0781C0
0E0F8180
0E0B8100
0F1B8300
0713C200
0731C400
0761CC00
0741C800
07C1D000
0781F000
0781E000
0701C000
06018000
06018000
ENDCHAR
STARTCHAR Wacute
ENCODING 7810
SWIDTH 878 0
DWIDTH 30 0
BBX 31 31 4 0
BITMAP
0001E000
00038000
00070000
000C0000
00180000
00000000
FF8180FE
3C018018
3C038030
3C038020
3C078020
3C078040
3C0FC040
3C0BC080
1C1BC080
1C13C100
1C11C100
1C21C200
1C21C200
1C41C400
1C41C400
1C81C800
1C81C800
1D01D000
1D01D000
1E01E000
1E01E000
1C01C000
1C01C000
18018000
18008000
ENDCHAR
STARTCHAR wacute
ENCODING 7811
SWIDTH 805 0
DWIDTH 27 0
BBX 27 24 2 0
BITMAP
0001E000
00038000
00070000
000C0000
00180000
00000000
FC0201E0
3C0300E0
1C0700E0
1E0700C0
0E0781C0
0E0F8180
0E0B8100
0F1B8300
0713C200
0731C400
0761CC00
0741C800
07C1D000
0781F000
0781E000
0701C000
06018000
06018000
ENDCHAR
STARTCHAR Wdieresis
ENCODING 7812
SWIDTH 878 0
DWIDTH 30 0
BBX 31 28 4 0
BITMAP
00E1C000
00E3C000
00000000
FF8180FE
3C018018
3C038030
3C038020
3C078020
3C078040
3C0FC040
3C0BC080
1C1BC080
1C13C100
1C11C100
1C21C200
1C21C200
1C41C400
1C41C400
1C81C800
1C81C800
1D01D000
1D01D000
1E01E000
1E01E000
1C01C000
1C01C000
18018000
18008000
ENDCHAR
STARTCHAR wdieresis
ENCODING 7813
SWIDTH 805 0
DWIDTH 27 0
BBX 27 21 2 0
BITMAP
00E1C000
00E3C000
00000000
FC0201E0
3C0300E0
1C0700E0
1E0700C0
0E0781C0
0E0F8180
0E0B8100
0F1B8300
0713C200
0731C400
0761CC00
0741C800
07C1D000
0781F000
0781E000
0701C000
06018000
06018000
ENDCHAR
STARTCHAR uni1E86
ENCODING 7814
SWIDTH 878 0
DWIDTH 30 0
BBX 31 29 4 0
BITMAP
00070000
000F0000
000E0000
00000000
FF8180FE
3C018018
3C038030
3C038020
3C078020
3C078040
3C0FC040
3C0BC080
1C1BC080
1C13C100
1C11C100
1C21C200
1C21C200
1C41C400
1C41C400
1C81C800
1C81C800
1D01D000
1D01D000
1E01E000
1E01E000
1C01C000
1C01C000
18018000
18008000
ENDCHAR
STARTCHAR uni1E87
ENCODING 7815
SWIDTH 805 0
DWIDTH 27 0
BBX 27 22 2 0
BITMAP
00070000
000F0000
000E0000
00000000
FC0201E0
3C0300E0
1C0700E0
1E0700C0
0E0781C0
0E0F8180
0E0B8100
0F1B8300
0713C200
0731C400
0761CC00
0741C800
07C1D000
0781F000
0781E000
0701C000
06018000
06018000
ENDCHAR
STARTCHAR uni1E88
ENCODING 7816
SWIDTH 878 0
DWIDTH 30 0
BBX 31 29 4 -4
BITMAP
FF8180FE
3C018018
3C038030
3C038020
3C078020
3C078040
3C0FC040
3C0BC080
1C1BC080
1C13C100
1C11C100
1C21C200
1C21C200
1C41C400
1C41C400
1C81C800
1C81C800
1D01D000
1D01D000
1E01E000
1E01E000
1C01C000
1C01C000
18018000
18008000
00000000
001C0000
003C0000
00380000
ENDCHAR
STARTCHAR uni1E89
ENCODING 7817
SWIDTH 805 0
DWIDTH 27 0
BBX 27 22 2 -4
BITMAP
FC0201E0
3C0300E0
1C0700E0
1E0700C0
0E0781C0
0E0F8180
0E0B8100
0F1B8300
0713C200
0731C400
0761CC00
0741C800
07C1D000
0781F000
0781E000
0701C000
06018000
06018000
00000000
001C0000
003C0000
00380000
ENDCHAR
STARTCHAR uni1E8A
ENCODING 7818
SWIDTH 624 0
DWIDTH 21 0
BBX 27 29 0 0
BITMAP
00038000
00078000
00070000
00000000
03FE0FE0
01F00380
00F00200
00780400
00780800
00381800
003C1000
003C2000
001E4000
001E8000
000F0000
000F0000
000F0000
000F8000
00178000
0033C000
0063C000
00C1C000
0181E000
0101E000
0200F000
0400F000
0C007800
38007800
FE03FE00
ENDCHAR
STARTCHAR uni1E8B
ENCODING 7819
SWIDTH 510 0
DWIDTH 17 0
BBX 17 22 2 0
BITMAP
00E000
01E000
01C000
000000
7E0700
1E0380
0F0300
070300
078600
038800
03D000
01E000
01E000
01E000
06F000
0CF000
187800
307800
603800
E03C00
E01E00
F01F80
ENDCHAR
STARTCHAR uni1E8C
ENCODING 7820
SWIDTH 624 0
DWIDTH 21 0
BBX 27 28 0 0
BITMAP
0070E000
0071E000
00000000
03FE0FE0
01F00380
00F00200
00780400
00780800
00381800
003C1000
003C2000
001E4000
001E8000
000F0000
000F0000
000F0000
000F8000
00178000
0033C000
0063C000
00C1C000
0181E000
0101E000
0200F000
0400F000
0C007800
38007800
FE03FE00
ENDCHAR
STARTCHAR uni1E8D
ENCODING 7821
SWIDTH 510 0
DWIDTH 17 0
BBX 17 21 2 0
BITMAP
0E1C00
0E3C00
000000
7E0700
1E0380
0F0300
070300
078600
038800
03D000
01E000
01E000
01E000
06F000
0CF000
187800
307800
603800
E03C00
E01E00
F01F80
ENDCHAR
STARTCHAR uni1E8E
ENCODING 7822
SWIDTH 663 0
DWIDTH 23 0
BBX 23 29 4 0
BITMAP
007000
00F000
00E000
000000
FF80FE
3E0038
3E0030
1E0060
1E0040
0F0080
0F0100
070200
078600
078400
038800
03D000
01E000
01E000
01C000
01C000
01C000
03C000
03C000
038000
038000
078000
078000
0F8000
3FF000
ENDCHAR
STARTCHAR uni1E8F
ENCODING 7823
SWIDTH 558 0
DWIDTH 19 0
BBX 21 29 0 -7
BITMAP
001C00
003C00
003800
000000
3F0078
0F8038
078038
038038
038030
03C070
01C060
01C0C0
01C080
01C100
01E300
00E600
00E400
00E800
00F000
00F000
00E000
00C000
008000
010000
030000
0E0000
1C0000
380000
F80000
ENDCHAR
STARTCHAR uni1E90
ENCODING 7824
SWIDTH 633 0
DWIDTH 21 0
BBX 22 31 2 0
BITMAP
001F00
003F00
007380
00E180
0180C0
000000
07FFFC
070038
060078
0600F0
0E01E0
0001C0
000380
000780
000F00
001E00
001C00
003C00
007800
00F000
01E000
01E000
03C000
078000
0F0000
0E0000
1E0000
3C0060
7800C0
F001C0
FFFFC0
ENDCHAR
STARTCHAR uni1E91
ENCODING 7825
SWIDTH 536 0
DWIDTH 18 0
BBX 18 24 2 0
BITMAP
007C00
00FC00
01CE00
038600
060300
000000
0FFFC0
0C0380
080700
180F00
001E00
003C00
007800
00F000
00E000
01C000
038000
078000
0F0000
1E0000
3C0300
780300
700600
FFFE00
ENDCHAR
STARTCHAR uni1E92
ENCODING 7826
SWIDTH 633 0
DWIDTH 21 0
BBX 22 29 2 -4
BITMAP
07FFFC
070038
060078
0600F0
0E01E0
0001C0
000380
000780
000F00
001E00
001C00
003C00
007800
00F000
01E000
01E000
03C000
078000
0F0000
0E0000
1E0000
3C0060
7800C0
F001C0
FFFFC0
000000
00E000
01E000
01C000
ENDCHAR
STARTCHAR uni1E93
ENCODING 7827
SWIDTH 536 0
DWIDTH 18 0
BBX 18 22 2 -4
BITMAP
0FFFC0
0C0380
080700
180F00
001E00
003C00
007800
00F000
00E000
01C000
038000
078000
0F0000
1E0000
3C0300
780300
700600
FFFE00
000000
038000
078000
070000
ENDCHAR
STARTCHAR uni1E94
ENCODING 7828
SWIDTH 633 0
DWIDTH 21 0
BBX 22 27 2 -2
BITMAP
07FFFC
070038
060078
0600F0
0E01E0
0001C0
000380
000780
000F00
001E00
001C00
003C00
007800
00F000
01E000
01E000
03C000
078000
0F0000
0E0000
1E0000
3C0060
7800C0
F001C0
FFFFC0
000000
0FFC00
ENDCHAR
STARTCHAR uni1E95
ENCODING 7829
SWIDTH 536 0
DWIDTH 18 0
BBX 18 20 2 -2
BITMAP
0FFFC0
0C0380
080700
180F00
001E00
003C00
007800
00F000
00E000
01C000
038000
078000
0F0000
1E0000
3C0300
780300
700600
FFFE00
000000
1FF800
ENDCHAR
STARTCHAR uni1E96
ENCODING 7830
SWIDTH 631 0
DWIDTH 21 0
BBX 18 28 3 -2
BITMAP
3F0000
070000
070000
0F0000
0F0000
0E0000
0E0000
0E0000
1E0F00
1E1F80
1C73C0
1CC3C0
1D8380
3D0380
3E0380
3E0380
3C0780
380700
780700
780700
700700
700F00
700E00
F00E00
F00E00
E01FC0
000000
0FFC00
ENDCHAR
STARTCHAR uni1E97
ENCODING 7831
SWIDTH 355 0
DWIDTH 12 0
BBX 11 26 4 0
BITMAP
E1C0
E3C0
0000
0200
0E00
1E00
1E00
1C00
FFE0
1C00
1C00
3C00
3800
3800
3800
7800
7800
7000
7000
7000
F000
F000
F000
7000
7000
3E00
ENDCHAR
STARTCHAR uni1E98
ENCODING 7832
SWIDTH 805 0
DWIDTH 27 0
BBX 27 24 2 0
BITMAP
000E0000
00110000
00110000
00110000
000E0000
00000000
FC0201E0
3C0300E0
1C0700E0
1E0700C0
0E0781C0
0E0F8180
0E0B8100
0F1B8300
0713C200
0731C400
0761CC00
0741C800
07C1D000
0781F000
0781E000
0701C000
06018000
06018000
ENDCHAR
STARTCHAR uni1E99
ENCODING 7833
SWIDTH 558 0
DWIDTH 19 0
BBX 21 31 0 -7
BITMAP
003800
004400
004400
004400
003800
000000
3F0078
0F8038
078038
038038
038030
03C070
01C060
01C0C0
01C080
01C100
01E300
00E600
00E400
00E800
00F000
00F000
00E000
00C000
008000
010000
030000
0E0000
1C0000
380000
F80000
ENDCHAR
STARTCHAR uni1EA0
ENCODING 7840
SWIDTH 747 0
DWIDTH 25 0
BBX 25 29 0 -4
BITMAP
00004000
0000C000
0000E000
0001E000
0002E000
0002E000
0004E000
0004F000
0008F000
0010F000
00107000
00207000
00607800
00407800
00807800
00807800
01FFF800
03003800
02003C00
06003C00
04003C00
08001C00
18001E00
38001E00
FE00FF80
00000000
00070000
000F0000
000E0000
ENDCHAR
STARTCHAR uni1EA1
ENCODING 7841
SWIDTH 608 0
DWIDTH 21 0
BBX 18 22 3 -4
BITMAP
00FFC0
0107C0
0203C0
040380
0C0380
180380
380780
380780
700700
700F00
F01F00
F01F00
F02F00
F06E00
F0CE00
F18E00
7F0E00
3C1FC0
000000
01C000
03C000
038000
ENDCHAR
STARTCHAR uni1EA4
ENCODING 7844
SWIDTH 747 0
DWIDTH 25 0
BBX 25 38 0 0
BITMAP
00003C00
00007000
0000E000
00018000
00030000
00000000
0000F800
0001F800
00039C00
00070C00
000C0600
00000000
00000000
00004000
0000C000
0000E000
0001E000
0002E000
0002E000
0004E000
0004F000
0008F000
0010F000
00107000
00207000
00607800
00407800
00807800
00807800
01FFF800
03003800
02003C00
06003C00
04003C00
08001C00
18001E00
38001E00
FE00FF80
ENDCHAR
STARTCHAR uni1EA5
ENCODING 7845
SWIDTH 608 0
DWIDTH 21 0
BBX 18 31 3 0
BITMAP
000780
000E00
001C00
003000
006000
000000
001F00
003F00
007380
00E180
0180C0
000000
000000
00FFC0
0107C0
0203C0
040380
0C0380
180380
380780
380780
700700
700F00
F01F00
F01F00
F02F00
F06E00
F0CE00
F18E00
7F0E00
3C1FC0
ENDCHAR
STARTCHAR uni1EA6
ENCODING 7846
SWIDTH 747 0
DWIDTH 25 0
BBX 25 38 0 0
BITMAP
000F0000
00070000
00038000
00018000
0000C000
00000000
0000F800
0001F800
00039C00
00070C00
000C0600
00000000
00000000
00004000
0000C000
0000E000
0001E000
0002E000
0002E000
0004E000
0004F000
0008F000
0010F000
00107000
00207000
00607800
00407800
00807800
00807800
01FFF800
03003800
02003C00
06003C00
04003C00
08001C00
18001E00
38001E00
FE00FF80
ENDCHAR
STARTCHAR uni1EA7
ENCODING 7847
SWIDTH 608 0
DWIDTH 21 0
BBX 18 31 3 0
BITMAP
00F000
007000
003800
001800
000C00
000000
001F00
003F00
007380
00E180
0180C0
000000
000000
00FFC0
0107C0
0203C0
040380
0C0380
180380
380780
380780
700700
700F00
F01F00
F01F00
F02F00
F06E00
F0CE00
F18E00
7F0E00
3C1FC0
ENDCHAR
STARTCHAR uni1EAA
ENCODING 7850
SWIDTH 747 0
DWIDTH 25 0
BBX 25 37 0 0
BITMAP
000E0800
001F9800
0033F000
0021E000
00000000
0000F800
0001F800
00039C00
00070C00
000C0600
00000000
00000000
00004000
0000C000
0000E000
0001E000
0002E000
0002E000
0004E000
0004F000
0008F000
0010F000
00107000
00207000
00607800
00407800
00807800
00807800
01FFF800
03003800
02003C00
06003C00
04003C00
08001C00
18001E00
38001E00
FE00FF80
ENDCHAR
STARTCHAR uni1EAB
ENCODING 7851
SWIDTH 608 0
DWIDTH 21 0
BBX 18 30 3 0
BITMAP
00E080
01F980
033F00
021E00
000000
001F00
003F00
007380
00E180
0180C0
000000
000000
00FFC0
0107C0
0203C0
040380
0C0380
180380
380780
380780
700700
700F00
F01F00
F01F00
F02F00
F06E00
F0CE00
F18E00
7F0E00
3C1FC0
ENDCHAR
STARTCHAR uni1EAC
ENCODING 7852
SWIDTH 747 0
DWIDTH 25 0
BBX 25 35 0 -4
BITMAP
0003E000
0007E000
000E7000
001C3000
00301800
00000000
00004000
0000C000
0000E000
0001E000
0002E000
0002E000
0004E000
0004F000
0008F000
0010F000
00107000
00207000
00607800
00407800
00807800
00807800
01FFF800
03003800
02003C00
06003C00
04003C00
08001C00
18001E00
38001E00
FE00FF80
00000000
00070000
000F0000
000E0000
ENDCHAR
STARTCHAR uni1EAD
ENCODING 7853
SWIDTH 608 0
DWIDTH 21 0
BBX 18 28 3 -4
BITMAP
003E00
007E00
00E700
01C300
030180
000000
00FFC0
0107C0
0203C0
040380
0C0380
180380
380780
380780
700700
700F00
F01F00
F01F00
F02F00
F06E00
F0CE00
F18E00
7F0E00
3C1FC0
000000
01C000
03C000
038000
ENDCHAR
STARTCHAR uni1EAE
ENCODING 7854
SWIDTH 747 0
DWIDTH 25 0
BBX 25 37 0 0
BITMAP
0000F000
0001C000
00038000
00060000
000C0000
00000000
00100400
00180800
001C7000
000FE000
0007C000
00000000
00004000
0000C000
0000E000
0001E000
0002E000
0002E000
0004E000
0004F000
0008F000
0010F000
00107000
00207000
00607800
00407800
00807800
00807800
01FFF800
03003800
02003C00
06003C00
04003C00
08001C00
18001E00
38001E00
FE00FF80
ENDCHAR
STARTCHAR uni1EAF
ENCODING 7855
SWIDTH 608 0
DWIDTH 21 0
BBX 18 30 3 0
BITMAP
000780
000E00
001C00
003000
006000
000000
010040
018080
01C700
00FE00
007C00
000000
00FFC0
0107C0
0203C0
040380
0C0380
180380
380780
380780
700700
700F00
F01F00
F01F00
F02F00
F06E00
F0CE00
F18E00
7F0E00
3C1FC0
ENDCHAR
STARTCHAR uni1EB0
ENCODING 7856
SWIDTH 747 0
DWIDTH 25 0
BBX 25 37 0 0
BITMAP
001E0000
000E0000
00070000
00030000
00018000
00000000
00100400
00180800
001C7000
000FE000
0007C000
00000000
00004000
0000C000
0000E000
0001E000
0002E000
0002E000
0004E000
0004F000
0008F000
0010F000
00107000
00207000
00607800
00407800
00807800
00807800
01FFF800
03003800
02003C00
06003C00
04003C00
08001C00
18001E00
38001E00
FE00FF80
ENDCHAR
STARTCHAR uni1EB1
ENCODING 7857
SWIDTH 608 0
DWIDTH 21 0
BBX 18 30 3 0
BITMAP
01E000
00E000
007000
003000
001800
000000
010040
018080
01C700
00FE00
007C00
000000
00FFC0
0107C0
0203C0
040380
0C0380
180380
380780
380780
700700
700F00
F01F00
F01F00
F02F00
F06E00
F0CE00
F18E00
7F0E00
3C1FC0
ENDCHAR
STARTCHAR uni1EB4
ENCODING 7860
SWIDTH 747 0
DWIDTH 25 0
BBX 25 36 0 0
BITMAP
001C1000
003F3000
0067E000
0043C000
00000000
00100400
00180800
001C7000
000FE000
0007C000
00000000
00004000
0000C000
0000E000
0001E000
0002E000
0002E000
0004E000
0004F000
0008F000
0010F000
00107000
00207000
00607800
00407800
00807800
00807800
01FFF800
03003800
02003C00
06003C00
04003C00
08001C00
18001E00
38001E00
FE00FF80
ENDCHAR
STARTCHAR uni1EB5
ENCODING 7861
SWIDTH 608 0
DWIDTH 21 0
BBX 18 29 3 0
BITMAP
01C100
03F300
067E00
043C00
000000
010040
018080
01C700
00FE00
007C00
000000
00FFC0
0107C0
0203C0
040380
0C0380
180380
380780
380780
700700
700F00
F01F00
F01F00
F02F00
F06E00
F0CE00
F18E00
7F0E00
3C1FC0
ENDCHAR
STARTCHAR uni1EB6
ENCODING 7862
SWIDTH 747 0
DWIDTH 25 0
BBX 25 35 0 -4
BITMAP
00100400
00180800
001C7000
000FE000
0007C000
00000000
00004000
0000C000
0000E000
0001E000
0002E000
0002E000
0004E000
0004F000
0008F000
0010F000
00107000
00207000
00607800
00407800
00807800
00807800
01FFF800
03003800
02003C00
06003C00
04003C00
08001C00
18001E00
38001E00
FE00FF80
00000000
00070000
000F0000
000E0000
ENDCHAR
STARTCHAR uni1EB7
ENCODING 7863
SWIDTH 608 0
DWIDTH 21 0
BBX 18 28 3 -4
BITMAP
010040
018080
01C700
00FE00
007C00
000000
00FFC0
0107C0
0203C0
040380
0C0380
180380
380780
380780
700700
700F00
F01F00
F01F00
F02F00
F06E00
F0CE00
F18E00
7F0E00
3C1FC0
000000
01C000
03C000
038000
ENDCHAR
STARTCHAR uni1EB8
ENCODING 7864
SWIDTH 569 0
DWIDTH 19 0
BBX 22 29 1 -4
BITMAP
07FFFC
00E00C
00E018
01E018
01E000
01E000
01C000
01C000
01C000
03C000
03C040
03C0C0
03FFC0
078080
078080
078000
070000
070000
0F0000
0F0000
0F0000
0E0060
1E0060
3F00C0
FFFFC0
000000
00E000
01E000
01C000
ENDCHAR
STARTCHAR uni1EB9
ENCODING 7865
SWIDTH 518 0
DWIDTH 18 0
BBX 15 22 3 -4
BITMAP
00F8
031C
041E
0C0E
181E
381C
701C
7038
7070
F1E0
FF00
E000
E000
F000
F006
700C
3C30
1FC0
0000
0700
0F00
0E00
ENDCHAR
STARTCHAR uni1EBC
ENCODING 7868
SWIDTH 569 0
DWIDTH 19 0
BBX 22 30 1 0
BITMAP
00E080
01F980
033F00
021E00
000000
07FFFC
00E00C
00E018
01E018
01E000
01E000
01C000
01C000
01C000
03C000
03C040
03C0C0
03FFC0
078080
078080
078000
070000
070000
0F0000
0F0000
0F0000
0E0060
1E0060
3F00C0
FFFFC0
ENDCHAR
STARTCHAR uni1EBD
ENCODING 7869
SWIDTH 518 0
DWIDTH 18 0
BBX 15 23 3 0
BITMAP
0382
07E6
0CFC
0878
0000
00F8
031C
041E
0C0E
181E
381C
701C
7038
7070
F1E0
FF00
E000
E000
F000
F006
700C
3C30
1FC0
ENDCHAR
STARTCHAR uni1EBE
ENCODING 7870
SWIDTH 569 0
DWIDTH 19 0
BBX 22 38 1 0
BITMAP
0001E0
000380
000700
000C00
001800
000000
0007C0
000FC0
001CE0
003860
006030
000000
000000
07FFFC
00E00C
00E018
01E018
01E000
01E000
01C000
01C000
01C000
03C000
03C040
03C0C0
03FFC0
078080
078080
078000
070000
070000
0F0000
0F0000
0F0000
0E0060
1E0060
3F00C0
FFFFC0
ENDCHAR
STARTCHAR uni1EBF
ENCODING 7871
SWIDTH 518 0
DWIDTH 18 0
BBX 16 31 3 0
BITMAP
000F
001C
0038
0060
00C0
0000
007C
00FC
01CE
0386
0603
0000
0000
00F8
031C
041E
0C0E
181E
381C
701C
7038
7070
F1E0
FF00
E000
E000
F000
F006
700C
3C30
1FC0
ENDCHAR
STARTCHAR uni1EC0
ENCODING 7872
SWIDTH 569 0
DWIDTH 19 0
BBX 22 38 1 0
BITMAP
007800
003800
001C00
000C00
000600
000000
0007C0
000FC0
001CE0
003860
006030
000000
000000
07FFFC
00E00C
00E018
01E018
01E000
01E000
01C000
01C000
01C000
03C000
03C040
03C0C0
03FFC0
078080
078080
078000
070000
070000
0F0000
0F0000
0F0000
0E0060
1E0060
3F00C0
FFFFC0
ENDCHAR
STARTCHAR uni1EC1
ENCODING 7873
SWIDTH 518 0
DWIDTH 18 0
BBX 16 31 3 0
BITMAP
03C0
01C0
00E0
0060
0030
0000
007C
00FC
01CE
0386
0603
0000
0000
00F8
031C
041E
0C0E
181E
381C
701C
7038
7070
F1E0
FF00
E000
E000
F000
F006
700C
3C30
1FC0
ENDCHAR
STARTCHAR uni1EC4
ENCODING 7876
SWIDTH 569 0
DWIDTH 19 0
BBX 22 37 1 0
BITMAP
003820
007E60
00CFC0
008780
000000
0007C0
000FC0
001CE0
003860
006030
000000
000000
07FFFC
00E00C
00E018
01E018
01E000
01E000
01C000
01C000
01C000
03C000
03C040
03C0C0
03FFC0
078080
078080
078000
070000
070000
0F0000
0F0000
0F0000
0E0060
1E0060
3F00C0
FFFFC0
ENDCHAR
STARTCHAR uni1EC5
ENCODING 7877
SWIDTH 518 0
DWIDTH 18 0
BBX 16 30 3 0
BITMAP
0382
07E6
0CFC
0878
0000
007C
00FC
01CE
0386
0603
0000
0000
00F8
031C
041E
0C0E
181E
381C
701C
7038
7070
F1E0
FF00
E000
E000
F000
F006
700C
3C30
1FC0
ENDCHAR
STARTCHAR uni1EC6
ENCODING 7878
SWIDTH 569 0
DWIDTH 19 0
BBX 22 35 1 -4
BITMAP
003E00
007E00
00E700
01C300
030180
000000
07FFFC
00E00C
00E018
01E018
01E000
01E000
01C000
01C000
01C000
03C000
03C040
03C0C0
03FFC0
078080
078080
078000
070000
070000
0F0000
0F0000
0F0000
0E0060
1E0060
3F00C0
FFFFC0
000000
00E000
01E000
01C000
ENDCHAR
STARTCHAR uni1EC7
ENCODING 7879
SWIDTH 518 0
DWIDTH 18 0
BBX 15 28 3 -4
BITMAP
00F8
01F8
039C
070C
0C06
0000
00F8
031C
041E
0C0E
181E
381C
701C
7038
7070
F1E0
FF00
E000
E000
F000
F006
700C
3C30
1FC0
0000
0700
0F00
0E00
ENDCHAR
STARTCHAR uni1ECA
ENCODING 7882
SWIDTH 325 0
DWIDTH 11 0
BBX 15 29 1 -4
BITMAP
07FE
00F8
00F0
00E0
01E0
01E0
01C0
01C0
01C0
03C0
03C0
0380
0380
0380
0780
0780
0700
0700
0F00
0F00
0F00
0E00
1E00
3E00
FFC0
0000
0700
0F00
0E00
ENDCHAR
STARTCHAR uni1ECB
ENCODING 7883
SWIDTH 289 0
DWIDTH 10 0
BBX 8 29 4 -4
BITMAP
07
0F
0E
00
00
00
00
FE
1C
1C
1C
1C
3C
38
38
38
38
78
70
70
70
70
F0
F0
FC
00
38
78
70
ENDCHAR
STARTCHAR uni1ECC
ENCODING 7884
SWIDTH 783 0
DWIDTH 27 0
BBX 24 29 4 -4
BITMAP
001FC0
007070
01C03C
03801C
07000E
0E000E
1C000F
3C000F
38000F
78000F
78000F
70000F
F0000F
F0000E
F0001E
F0001E
F0001C
F0003C
F00038
F00070
7000E0
7801C0
3C0380
0E0E00
03F800
000000
007000
00F000
00E000
ENDCHAR
STARTCHAR uni1ECD
ENCODING 7885
SWIDTH 560 0
DWIDTH 19 0
BBX 17 22 3 -4
BITMAP
00FC00
030E00
0E0700
1C0700
1C0780
380780
780780
700780
700780
F00700
F00700
F00F00
F00E00
F01C00
F01800
703000
78E000
1F8000
000000
070000
0F0000
0E0000
ENDCHAR
STARTCHAR uni1ED0
ENCODING 7888
SWIDTH 783 0
DWIDTH 27 0
BBX 24 38 4 0
BITMAP
0001E0
000380
000700
000C00
001800
000000
0007C0
000FC0
001CE0
003860
006030
000000
000000
001FC0
007070
01C03C
03801C
07000E
0E000E
1C000F
3C000F
38000F
78000F
78000F
70000F
F0000F
F0000E
F0001E
F0001E
F0001C
F0003C
F00038
F00070
7000E0
7801C0
3C0380
0E0E00
03F800
ENDCHAR
STARTCHAR uni1ED1
ENCODING 7889
SWIDTH 560 0
DWIDTH 19 0
BBX 17 31 3 0
BITMAP
000F00
001C00
003800
006000
00C000
000000
003E00
007E00
00E700
01C300
030180
000000
000000
00FC00
030E00
0E0700
1C0700
1C0780
380780
780780
700780
700780
F00700
F00700
F00F00
F00E00
F01C00
F01800
703000
78E000
1F8000
ENDCHAR
STARTCHAR uni1ED2
ENCODING 7890
SWIDTH 783 0
DWIDTH 27 0
BBX 24 38 4 0
BITMAP
003C00
001C00
000E00
000600
000300
000000
0007C0
000FC0
001CE0
003860
006030
000000
000000
001FC0
007070
01C03C
03801C
07000E
0E000E
1C000F
3C000F
38000F
78000F
78000F
70000F
F0000F
F0000E
F0001E
F0001E
F0001C
F0003C
F00038
F00070
7000E0
7801C0
3C0380
0E0E00
03F800
ENDCHAR
STARTCHAR uni1ED3
ENCODING 7891
SWIDTH 560 0
DWIDTH 19 0
BBX 17 31 3 0
BITMAP
01E000
00E000
007000
003000
001800
000000
003E00
007E00
00E700
01C300
030180
000000
000000
00FC00
030E00
0E0700
1C0700
1C0780
380780
780780
700780
700780
F00700
F00700
F00F00
F00E00
F01C00
F01800
703000
78E000
1F8000
ENDCHAR
STARTCHAR uni1ED6
ENCODING 7894
SWIDTH 783 0
DWIDTH 27 0
BBX 24 37 4 0
BITMAP
003820
007E60
00CFC0
008780
000000
0007C0
000FC0
001CE0
003860
006030
000000
000000
001FC0
007070
01C03C
03801C
07000E
0E000E
1C000F
3C000F
38000F
78000F
78000F
70000F
F0000F
F0000E
F0001E
F0001E
F0001C
F0003C
F00038
F00070
7000E0
7801C0
3C0380
0E0E00
03F800
ENDCHAR
STARTCHAR uni1ED7
ENCODING 7895
SWIDTH 560 0
DWIDTH 19 0
BBX 17 30 3 0
BITMAP
01C100
03F300
067E00
043C00
000000
003E00
007E00
00E700
01C300
030180
000000
000000
00FC00
030E00
0E0700
1C0700
1C0780
380780
780780
700780
700780
F00700
F00700
F00F00
F00E00
F01C00
F01800
703000
78E000
1F8000
ENDCHAR
STARTCHAR uni1ED8
ENCODING 7896
SWIDTH 783 0
DWIDTH 27 0
BBX 24 35 4 -4
BITMAP
000F80
001F80
0039C0
0070C0
00C060
000000
001FC0
007070
01C03C
03801C
07000E
0E000E
1C000F
3C000F
38000F
78000F
78000F
70000F
F0000F
F0000E
F0001E
F0001E
F0001C
F0003C
F00038
F00070
7000E0
7801C0
3C0380
0E0E00
03F800
000000
007000
00F000
00E000
ENDCHAR
STARTCHAR uni1ED9
ENCODING 7897
SWIDTH 560 0
DWIDTH 19 0
BBX 17 28 3 -4
BITMAP
00F800
01F800
039C00
070C00
0C0600
000000
00FC00
030E00
0E0700
1C0700
1C0780
380780
780780
700780
700780
F00700
F00700
F00F00
F00E00
F01C00
F01800
703000
78E000
1F8000
000000
070000
0F0000
0E0000
ENDCHAR
STARTCHAR uni1EDA
ENCODING 7898
SWIDTH 783 0
DWIDTH 27 0
BBX 28 31 4 0
BITMAP
00003C00
00007000
0000E000
00018000
00030000
00000000
001FC0F0
007070F0
01C03DF0
03801DE0
07000E60
0E000EE0
1C000FC0
3C000FC0
38000F80
78000F00
78000F00
70000F00
F0000F00
F0000E00
F0001E00
F0001E00
F0001C00
F0003C00
F0003800
F0007000
7000E000
7801C000
3C038000
0E0E0000
03F80000
ENDCHAR
STARTCHAR uni1EDB
ENCODING 7899
SWIDTH 560 0
DWIDTH 19 0
BBX 21 24 3 0
BITMAP
0003C0
000700
000E00
001800
003000
000000
00FC78
030E78
0E07F8
1C07F0
1C07B0
3807F0
7807E0
7007E0
7007C0
F00780
F00700
F00F00
F00E00
F01C00
F01800
703000
78E000
1F8000
ENDCHAR
STARTCHAR uni1EDC
ENCODING 7900
SWIDTH 783 0
DWIDTH 27 0
BBX 28 31 4 0
BITMAP
00078000
00038000
0001C000
0000C000
00006000
00000000
001FC0F0
007070F0
01C03DF0
03801DE0
07000E60
0E000EE0
1C000FC0
3C000FC0
38000F80
78000F00
78000F00
70000F00
F0000F00
F0000E00
F0001E00
F0001E00
F0001C00
F0003C00
F0003800
F0007000
7000E000
7801C000
3C038000
0E0E0000
03F80000
ENDCHAR
STARTCHAR uni1EDD
ENCODING 7901
SWIDTH 560 0
DWIDTH 19 0
BBX 21 24 3 0
BITMAP
007800
003800
001C00
000C00
000600
000000
00FC78
030E78
0E07F8
1C07F0
1C07B0
3807F0
7807E0
7007E0
7007C0
F00780
F00700
F00F00
F00E00
F01C00
F01800
703000
78E000
1F8000
ENDCHAR
STARTCHAR uni1EE0
ENCODING 7904
SWIDTH 783 0
DWIDTH 27 0
BBX 28 30 4 0
BITMAP
00070400
000FCC00
0019F800
0010F000
00000000
001FC0F0
007070F0
01C03DF0
03801DE0
07000E60
0E000EE0
1C000FC0
3C000FC0
38000F80
78000F00
78000F00
70000F00
F0000F00
F0000E00
F0001E00
F0001E00
F0001C00
F0003C00
F0003800
F0007000
7000E000
7801C000
3C038000
0E0E0000
03F80000
ENDCHAR
STARTCHAR uni1EE1
ENCODING 7905
SWIDTH 560 0
DWIDTH 19 0
BBX 21 23 3 0
BITMAP
007040
00FCC0
019F80
010F00
000000
00FC78
030E78
0E07F8
1C07F0
1C07B0
3807F0
7807E0
7007E0
7007C0
F00780
F00700
F00F00
F00E00
F01C00
F01800
703000
78E000
1F8000
ENDCHAR
STARTCHAR uni1EE2
ENCODING 7906
SWIDTH 783 0
DWIDTH 27 0
BBX 28 29 4 -4
BITMAP
001FC0F0
007070F0
01C03DF0
03801DE0
07000E60
0E000EE0
1C000FC0
3C000FC0
38000F80
78000F00
78000F00
70000F00
F0000F00
F0000E00
F0001E00
F0001E00
F0001C00
F0003C00
F0003800
F0007000
7000E000
7801C000
3C038000
0E0E0000
03F80000
00000000
00380000
00780000
00700000
ENDCHAR
STARTCHAR uni1EE3
ENCODING 7907
SWIDTH 560 0
DWIDTH 19 0
BBX 21 22 3 -4
BITMAP
00FC78
030E78
0E07F8
1C07F0
1C07B0
3807F0
7807E0
7007E0
7007C0
F00780
F00700
F00F00
F00E00
F01C00
F01800
703000
78E000
1F8000
000000
038000
078000
070000
ENDCHAR
STARTCHAR uni1EE4
ENCODING 7908
SWIDTH 727 0
DWIDTH 25 0
BBX 24 29 5 -4
BITMAP
FFC0FF
1F001C
1E0018
1C0010
1C0030
3C0030
3C0030
380020
380020
380060
780060
780060
700040
700040
7000C0
F000C0
F000C0
E00080
E00180
E00180
F00300
700200
780600
3C1800
0FE000
000000
01C000
03C000
038000
ENDCHAR
STARTCHAR uni1EE5
ENCODING 7909
SWIDTH 630 0
DWIDTH 21 0
BBX 18 22 3 -4
BITMAP
FE1FC0
1C03C0
1C0380
1C0380
3C0380
380380
380780
380700
380700
780F00
700F00
701F00
702E00
704E00
F08E00
F10E00
7E1E00
381FC0
000000
01C000
03C000
038000
ENDCHAR
STARTCHAR uni1EE8
ENCODING 7912
SWIDTH 727 0
DWIDTH 25 0
BBX 28 31 5 0
BITMAP
0000F000
0001C000
00038000
00060000
000C0000
00000000
FFC0FFF0
1F001CF0
1E0019F0
1C0011E0
1C003060
3C0030E0
3C0030C0
380020C0
38002380
38006300
78006000
78006000
70004000
70004000
7000C000
F000C000
F000C000
E0008000
E0018000
E0018000
F0030000
70020000
78060000
3C180000
0FE00000
ENDCHAR
STARTCHAR uni1EE9
ENCODING 7913
SWIDTH 630 0
DWIDTH 21 0
BBX 22 24 3 0
BITMAP
0003C0
000700
000E00
001800
003000
000000
FE1FFC
1C03FC
1C03FC
1C03F8
3C0398
3803B8
3807B0
380730
3807E0
780FC0
700F00
701F00
702E00
704E00
F08E00
F10E00
7E1E00
381FC0
ENDCHAR
STARTCHAR uni1EEA
ENCODING 7914
SWIDTH 727 0
DWIDTH 25 0
BBX 28 31 5 0
BITMAP
001E0000
000E0000
00070000
00030000
00018000
00000000
FFC0FFF0
1F001CF0
1E0019F0
1C0011E0
1C003060
3C0030E0
3C0030C0
380020C0
38002380
38006300
78006000
78006000
70004000
70004000
7000C000
F000C000
F000C000
E0008000
E0018000
E0018000
F0030000
70020000
78060000
3C180000
0FE00000
ENDCHAR
STARTCHAR uni1EEB
ENCODING 7915
SWIDTH 630 0
DWIDTH 21 0
BBX 22 24 3 0
BITMAP
00F000
007000
003800
001800
000C00
000000
FE1FFC
1C03FC
1C03FC
1C03F8
3C0398
3803B8
3807B0
380730
3807E0
780FC0
700F00
701F00
702E00
704E00
F08E00
F10E00
7E1E00
381FC0
ENDCHAR
STARTCHAR uni1EEE
ENCODING 7918
SWIDTH 727 0
DWIDTH 25 0
BBX 28 30 5 0
BITMAP
001C1000
003F3000
0067E000
0043C000
00000000
FFC0FFF0
1F001CF0
1E0019F0
1C0011E0
1C003060
3C0030E0
3C0030C0
380020C0
38002380
38006300
78006000
78006000
70004000
70004000
7000C000
F000C000
F000C000
E0008000
E0018000
E0018000
F0030000
70020000
78060000
3C180000
0FE00000
ENDCHAR
STARTCHAR uni1EEF
ENCODING 7919
SWIDTH 630 0
DWIDTH 21 0
BBX 22 23 3 0
BITMAP
007040
00FCC0
019F80
010F00
000000
FE1FFC
1C03FC
1C03FC
1C03F8
3C0398
3803B8
3807B0
380730
3807E0
780FC0
700F00
701F00
702E00
704E00
F08E00
F10E00
7E1E00
381FC0
ENDCHAR
STARTCHAR uni1EF0
ENCODING 7920
SWIDTH 727 0
DWIDTH 25 0
BBX 28 29 5 -4
BITMAP
FFC0FFF0
1F001CF0
1E0019F0
1C0011E0
1C003060
3C0030E0
3C0030C0
380020C0
38002380
38006300
78006000
78006000
70004000
70004000
7000C000
F000C000
F000C000
E0008000
E0018000
E0018000
F0030000
70020000
78060000
3C180000
0FE00000
00000000
00E00000
01E00000
01C00000
ENDCHAR
STARTCHAR uni1EF1
ENCODING 7921
SWIDTH 630 0
DWIDTH 21 0
BBX 22 22 3 -4
BITMAP
FE1FFC
1C03FC
1C03FC
1C03F8
3C0398
3803B8
3807B0
380730
3807E0
780FC0
700F00
701F00
702E00
704E00
F08E00
F10E00
7E1E00
381FC0
000000
00E000
01E000
01C000
ENDCHAR
STARTCHAR Ygrave
ENCODING 7922
SWIDTH 663 0
DWIDTH 23 0
BBX 23 31 4 0
BITMAP
03C000
01C000
00E000
006000
003000
000000
FF80FE
3E0038
3E0030
1E0060
1E0040
0F0080
0F0100
070200
078600
078400
038800
03D000
01E000
01E000
01C000
01C000
01C000
03C000
03C000
038000
038000
078000
078000
0F8000
3FF000
ENDCHAR
STARTCHAR ygrave
ENCODING 7923
SWIDTH 558 0
DWIDTH 19 0
BBX 21 31 0 -7
BITMAP
01E000
00E000
007000
003000
001800
000000
3F0078
0F8038
078038
038038
038030
03C070
01C060
01C0C0
01C080
01C100
01E300
00E600
00E400
00E800
00F000
00F000
00E000
00C000
008000
010000
030000
0E0000
1C0000
380000
F80000
ENDCHAR
STARTCHAR uni1EF4
ENCODING 7924
SWIDTH 663 0
DWIDTH 23 0
BBX 23 29 4 -4
BITMAP
FF80FE
3E0038
3E0030
1E0060
1E0040
0F0080
0F0100
070200
078600
078400
038800
03D000
01E000
01E000
01C000
01C000
01C000
03C000
03C000
038000
038000
078000
078000
0F8000
3FF000
000000
01C000
03C000
038000
ENDCHAR
STARTCHAR uni1EF5
ENCODING 7925
SWIDTH 558 0
DWIDTH 19 0
BBX 21 29 0 -11
BITMAP
3F0078
0F8038
078038
038038
038030
03C070
01C060
01C0C0
01C080
01C100
01E300
00E600
00E400
00E800
00F000
00F000
00E000
00C000
008000
010000
030000
0E0000
1C0000
380000
F80000
000000
070000
0F0000
0E0000
ENDCHAR
STARTCHAR uni1EF8
ENCODING 7928
SWIDTH 663 0
DWIDTH 23 0
BBX 23 30 4 0
BITMAP
01C100
03F300
067E00
043C00
000000
FF80FE
3E0038
3E0030
1E0060
1E0040
0F0080
0F0100
070200
078600
078400
038800
03D000
01E000
01E000
01C000
01C000
01C000
03C000
03C000
038000
038000
078000
078000
0F8000
3FF000
ENDCHAR
STARTCHAR uni1EF9
ENCODING 7929
SWIDTH 558 0
DWIDTH 19 0
BBX 21 30 0 -7
BITMAP
00E080
01F980
033F00
021E00
000000
3F0078
0F8038
078038
038038
038030
03C070
01C060
01C0C0
01C080
01C100
01E300
00E600
00E400
00E800
00F000
00F000
00E000
00C000
008000
010000
030000
0E0000
1C0000
380000
F80000
ENDCHAR
STARTCHAR uni2000
ENCODING 8192
SWIDTH 500 0
DWIDTH 17 0
BBX 1 1 0 0
BITMAP
00
ENDCHAR
STARTCHAR uni2001
ENCODING 8193
SWIDTH 1000 0
DWIDTH 33 0
BBX 1 1 0 0
BITMAP
00
ENDCHAR
STARTCHAR uni2002
ENCODING 8194
SWIDTH 500 0
DWIDTH 17 0
BBX 1 1 0 0
BITMAP
00
ENDCHAR
STARTCHAR uni2003
ENCODING 8195
SWIDTH 1000 0
DWIDTH 33 0
BBX 1 1 0 0
BITMAP
00
ENDCHAR
STARTCHAR uni2004
ENCODING 8196
SWIDTH 333 0
DWIDTH 11 0
BBX 1 1 0 0
BITMAP
00
ENDCHAR
STARTCHAR uni2005
ENCODING 8197
SWIDTH 250 0
DWIDTH 8 0
BBX 1 1 0 0
BITMAP
00
ENDCHAR
STARTCHAR uni2006
ENCODING 8198
SWIDTH 167 0
DWIDTH 6 0
BBX 1 1 0 0
BITMAP
00
ENDCHAR
STARTCHAR uni2007
ENCODING 8199
SWIDTH 608 0
DWIDTH 21 0
BBX 1 1 0 0
BITMAP
00
ENDCHAR
STARTCHAR uni2008
ENCODING 8200
SWIDTH 265 0
DWIDTH 9 0
BBX 1 1 0 0
BITMAP
00
ENDCHAR
STARTCHAR uni2009
ENCODING 8201
SWIDTH 200 0
DWIDTH 7 0
BBX 1 1 0 0
BITMAP
00
ENDCHAR
STARTCHAR uni200A
ENCODING 8202
SWIDTH 100 0
DWIDTH 3 0
BBX 1 1 0 0
BITMAP
00
ENDCHAR
STARTCHAR uni200B
ENCODING 8203
SWIDTH 0 0
DWIDTH 0 0
BBX 1 1 0 0
BITMAP
00
ENDCHAR
STARTCHAR uni2010
ENCODING 8208
SWIDTH 313 0
DWIDTH 11 0
BBX 8 2 3 10
BITMAP
FF
FF
ENDCHAR
STARTCHAR uni2011
ENCODING 8209
SWIDTH 313 0
DWIDTH 11 0
BBX 8 2 3 10
BITMAP
FF
FF
ENDCHAR
STARTCHAR figuredash
ENCODING 8210
SWIDTH 500 0
DWIDTH 17 0
BBX 14 1 3 11
BITMAP
FFFC
ENDCHAR
STARTCHAR endash
ENCODING 8211
SWIDTH 500 0
DWIDTH 17 0
BBX 14 1 3 11
BITMAP
FFFC
ENDCHAR
STARTCHAR emdash
ENCODING 8212
SWIDTH 1000 0
DWIDTH 34 0
BBX 31 1 3 10
BITMAP
FFFFFFFE
ENDCHAR
STARTCHAR afii00208
ENCODING 8213
SWIDTH 1000 0
DWIDTH 34 0
BBX 31 1 3 10
BITMAP
FFFFFFFE
ENDCHAR
STARTCHAR quoteleft
ENCODING 8216
SWIDTH 265 0
DWIDTH 9 0
BBX 6 10 6 16
BITMAP
0C
38
30
70
70
60
78
F8
F0
F0
ENDCHAR
STARTCHAR quoteright
ENCODING 8217
SWIDTH 265 0
DWIDTH 9 0
BBX 6 10 6 16
BITMAP
3C
3C
7C
78
18
38
30
30
E0
C0
ENDCHAR
STARTCHAR quotesinglbase
ENCODING 8218
SWIDTH 265 0
DWIDTH 9 0
BBX 6 12 1 -7
BITMAP
3C
3C
7C
78
78
18
38
38
30
30
60
C0
ENDCHAR
STARTCHAR quotereversed
ENCODING 8219
SWIDTH 265 0
DWIDTH 9 0
BBX 6 10 6 16
BITMAP
F0
F0
F8
78
60
70
30
30
1C
0C
ENDCHAR
STARTCHAR quotedblleft
ENCODING 8220
SWIDTH 457 0
DWIDTH 16 0
BBX 13 10 6 16
BITMAP
0C18
1870
3060
70E0
70E0
60C0
78F0
79F0
F9E0
F1E0
ENDCHAR
STARTCHAR quotedblright
ENCODING 8221
SWIDTH 457 0
DWIDTH 16 0
BBX 13 10 6 16
BITMAP
3C78
3C78
7CF0
78F0
1870
3870
3060
30E0
E1C0
8100
ENDCHAR
STARTCHAR quotedblbase
ENCODING 8222
SWIDTH 457 0
DWIDTH 16 0
BBX 13 12 1 -7
BITMAP
3C78
3CF8
3CF8
7CF0
78F0
1870
3870
3870
3060
3060
60C0
C180
ENDCHAR
STARTCHAR uni201F
ENCODING 8223
SWIDTH 457 0
DWIDTH 16 0
BBX 13 10 6 16
BITMAP
F1E0
F1E0
79F0
78F0
70C0
70E0
3060
3860
1C38
0408
ENDCHAR
STARTCHAR dagger
ENCODING 8224
SWIDTH 608 0
DWIDTH 21 0
BBX 15 31 6 -6
BITMAP
00E0
00E0
01C0
01C0
01C0
01C0
0180
0180
0180
F18E
FFFE
0300
0300
0300
0300
0300
0600
0600
0600
0600
0E00
0E00
0E00
0C00
1C00
1C00
1C00
1C00
1C00
3C00
3800
ENDCHAR
STARTCHAR daggerdbl
ENCODING 8225
SWIDTH 608 0
DWIDTH 21 0
BBX 17 31 4 -6
BITMAP
003800
003800
003800
003000
007000
007000
006000
006000
006000
3C6380
3FFF80
004000
00C000
00C000
00C000
008000
008000
018000
018000
018000
FFFE00
E10E00
030000
030000
030000
030000
070000
070000
070000
0E0000
0E0000
ENDCHAR
STARTCHAR bullet
ENCODING 8226
SWIDTH 608 0
DWIDTH 21 0
BBX 11 10 7 6
BITMAP
1F00
3F80
7FC0
FFE0
FFE0
FFE0
FFE0
7FC0
3F80
1F00
ENDCHAR
STARTCHAR ellipsis
ENCODING 8230
SWIDTH 1000 0
DWIDTH 34 0
BBX 26 3 4 0
BITMAP
700E01C0
F01E03C0
E01C0380
ENDCHAR
STARTCHAR perthousand
ENCODING 8240
SWIDTH 1065 0
DWIDTH 36 0
BBX 35 25 3 0
BITMAP
03C0030000
0E20060000
1C300C0000
1830180000
3830300000
3830600000
3030E00000
3031C00000
3071800000
3063000000
30E6000000
19CC000000
0F18000000
0030F80F80
00718C18C0
00E30630C0
00C7067060
01860660E0
030606E0E0
060E06E0E0
0C0E0EE0C0
180E0CE1C0
30061CE180
7007386300
E001E03E00
ENDCHAR
STARTCHAR guilsinglleft
ENCODING 8249
SWIDTH 330 0
DWIDTH 11 0
BBX 9 16 3 1
BITMAP
0080
0100
0300
0600
0C00
1800
3000
7000
F000
7000
3000
3800
1800
0800
0C00
0400
ENDCHAR
STARTCHAR guilsinglright
ENCODING 8250
SWIDTH 330 0
DWIDTH 11 0
BBX 9 16 3 1
BITMAP
1000
1800
0800
0C00
0E00
0600
0700
0780
0700
0600
0C00
1800
3000
6000
4000
8000
ENDCHAR
STARTCHAR fraction
ENCODING 8260
SWIDTH 36 0
DWIDTH 3 0
BBX 25 25 -8 0
BITMAP
00000380
00000700
00000E00
00001C00
00003800
00003000
00006000
0000C000
00018000
00030000
00070000
000E0000
001C0000
00380000
00700000
00600000
00C00000
01800000
03000000
06000000
0E000000
1C000000
38000000
70000000
E0000000
ENDCHAR
STARTCHAR oneinferior
ENCODING 8321
SWIDTH 365 0
DWIDTH 12 0
BBX 8 15 -19 -8
BITMAP
1F
03
06
06
06
06
06
0C
0C
0C
0C
0C
18
18
FF
ENDCHAR
STARTCHAR twoinferior
ENCODING 8322
SWIDTH 365 0
DWIDTH 12 0
BBX 11 15 -18 -8
BITMAP
0F80
18C0
1060
1060
0060
00C0
00C0
0180
0200
0C00
1000
2000
6000
C000
FF80
ENDCHAR
STARTCHAR threeinferior
ENCODING 8323
SWIDTH 365 0
DWIDTH 12 0
BBX 10 15 -19 -8
BITMAP
1F80
10C0
10C0
00C0
00C0
0180
1E00
0300
0180
0180
0180
0180
8180
C700
FC00
ENDCHAR
STARTCHAR uni20A5
ENCODING 8357
SWIDTH 944 0
DWIDTH 32 0
BBX 29 32 3 -7
BITMAP
000000C0
00000180
00000300
00000300
00000600
00000E00
00000C00
FE0F19E0
1E1F9BF0
1C73BE70
1CC3FC78
1D83F870
1D03F070
3F03E070
3E07C070
3C0780F0
380780E0
380700E0
780F00E0
700F01E0
701E01E0
701E01C0
703E01C0
F07E01C0
E07E03F8
00C00000
01C00000
01800000
03000000
03000000
06000000
0C000000
ENDCHAR
STARTCHAR uni20A6
ENCODING 8358
SWIDTH 762 0
DWIDTH 26 0
BBX 29 25 1 0
BITMAP
07C003F8
01E000E0
01E000C0
01F000C0
01F80080
01780080
013C0080
033C0180
07FFFF80
031E0100
020F0100
02070100
06078300
06038300
0603C200
0601E200
0FFFFF00
0400F600
0C00F600
0C007E00
0C003C00
08003C00
18001C00
38001C00
FF000C00
ENDCHAR
STARTCHAR uni20A9
ENCODING 8361
SWIDTH 878 0
DWIDTH 30 0
BBX 31 25 4 0
BITMAP
FF8180FE
3C018018
3C038030
3C038020
3C078020
3C078040
3C0FC040
3C0BC080
1FFFFFC0
1C13C100
1C11C100
1C21C200
1C21C200
1C41C400
1C41C400
1C81C800
1FFFFF80
1D01D000
1D01D000
1E01E000
1E01E000
1C01C000
1C01C000
18018000
18008000
ENDCHAR
STARTCHAR Euro
ENCODING 8364
SWIDTH 714 0
DWIDTH 24 0
BBX 28 25 -1 0
BITMAP
00007FC0
0003C1F0
000F0070
001C0060
00380060
00700060
00F00000
01E00000
7FFFF800
03C00000
03C00000
03800000
07800000
07800000
07800000
07800000
FFFFF000
07800000
07800000
03800000
03C00000
01C00000
01E00300
00781E00
001FE000
ENDCHAR
STARTCHAR uni20AD
ENCODING 8365
SWIDTH 698 0
DWIDTH 24 0
BBX 26 25 1 0
BITMAP
07FE1FC0
01F00700
01E00C00
01E01800
01E03000
01C06000
01C08000
01C10000
03C20000
03CC0000
03980000
FFFFFFC0
FFFFFFC0
07BC0000
079E0000
079E0000
070F0000
07078000
0F078000
0F03C000
0F01E000
0E01E000
1E00F000
3E00F800
FFC3FE00
ENDCHAR
STARTCHAR uni2103
ENCODING 8451
SWIDTH 977 0
DWIDTH 33 0
BBX 30 25 6 0
BITMAP
70001FF0
C800F07C
8403C01C
84070018
C80E0018
701C0018
003C0000
00780000
00780000
00F00000
00F00000
00E00000
01E00000
01E00000
01E00000
01E00000
01E00000
01E00000
01E00000
00E00000
00F00000
00700000
007800C0
001E0780
0007F800
ENDCHAR
STARTCHAR uni2109
ENCODING 8457
SWIDTH 814 0
DWIDTH 28 0
BBX 26 25 6 0
BITMAP
707FFFC0
C80E00C0
840E0180
841E0180
C81E0000
701E0000
001C0000
001C0000
003C0000
003C0000
003C0400
003C0C00
003FF800
00780800
00780800
00780000
00700000
00700000
00F00000
00F00000
00F00000
00E00000
01E00000
03F00000
0FFE0000
ENDCHAR
STARTCHAR trademark
ENCODING 8482
SWIDTH 904 0
DWIDTH 31 0
BBX 30 14 5 11
BITMAP
7FF7E0FC
C631E0E0
C631F160
0601F1E0
0E0172E0
0E0172E0
0C0374E0
0C0374C0
0C033CC0
1C0239C0
1C0239C0
1C0231C0
180631C0
FF1E01F0
ENDCHAR
STARTCHAR uni212A
ENCODING 8490
SWIDTH 698 0
DWIDTH 24 0
BBX 26 25 1 0
BITMAP
07FE1FC0
01F00700
01E00C00
01E01800
01E03000
01C06000
01C08000
01C10000
03C20000
03CC0000
03980000
03B80000
03F80000
07BC0000
079E0000
079E0000
070F0000
07078000
0F078000
0F03C000
0F01E000
0E01E000
1E00F000
3E00F800
FFC3FE00
ENDCHAR
STARTCHAR uni212B
ENCODING 8491
SWIDTH 747 0
DWIDTH 25 0
BBX 25 32 0 0
BITMAP
00007000
00008800
00008800
00008800
00007000
00000000
00000000
00004000
0000C000
0000E000
0001E000
0002E000
0002E000
0004E000
0004F000
0008F000
0010F000
00107000
00207000
00607800
00407800
00807800
00807800
01FFF800
03003800
02003C00
06003C00
04003C00
08001C00
18001E00
38001E00
FE00FF80
ENDCHAR
STARTCHAR uni2132
ENCODING 8498
SWIDTH 551 0
DWIDTH 19 0
BBX 22 25 1 0
BITMAP
001FFC
0003F0
0001E0
0001C0
0003C0
0003C0
0003C0
000380
000380
000780
040780
040780
07FF00
0C0F00
080F00
000F00
000F00
000E00
000E00
001E00
001E00
601E00
601C00
C01C00
FFFF80
ENDCHAR
STARTCHAR minus
ENCODING 8722
SWIDTH 608 0
DWIDTH 21 0
BBX 20 1 2 11
BITMAP
FFFFF0
ENDCHAR
STARTCHAR fraction
ENCODING 8725
SWIDTH 36 0
DWIDTH 3 0
BBX 25 25 -8 0
BITMAP
00000380
00000700
00000E00
00001C00
00003800
00003000
00006000
0000C000
00018000
00030000
00070000
000E0000
001C0000
00380000
00700000
00600000
00C00000
01800000
03000000
06000000
0E000000
1C000000
38000000
70000000
E0000000
ENDCHAR
STARTCHAR periodcentered
ENCODING 8729
SWIDTH 608 0
DWIDTH 21 0
BBX 4 3 10 9
BITMAP
70
F0
F0
ENDCHAR
STARTCHAR uni2236
ENCODING 8758
SWIDTH 265 0
DWIDTH 9 0
BBX 8 18 2 0
BITMAP
0F
1F
1E
1E
00
00
00
00
00
00
00
00
00
00
78
78
F8
F0
ENDCHAR
STARTCHAR uni2259
ENCODING 8793
SWIDTH 608 0
DWIDTH 21 0
BBX 21 15 2 5
BITMAP
007C00
00FC00
01CE00
038600
060300
000000
7FFFF8
000000
000000
000000
000000
000000
000000
000000
FFFFF0
ENDCHAR
STARTCHAR uni225A
ENCODING 8794
SWIDTH 608 0
DWIDTH 21 0
BBX 21 15 2 5
BITMAP
060300
030E00
039C00
01F800
01F000
000000
7FFFF8
000000
000000
000000
000000
000000
000000
000000
FFFFF0
ENDCHAR
STARTCHAR notequal
ENCODING 8800
SWIDTH 608 0
DWIDTH 21 0
BBX 22 32 2 -6
BITMAP
00000C
000018
000030
000030
000060
0000E0
0000C0
000180
000180
000300
000600
000600
7FFFF8
001C00
001800
003000
003000
006000
00E000
00C000
FFFFF0
018000
030000
060000
060000
0C0000
1C0000
180000
300000
300000
600000
C00000
ENDCHAR
STARTCHAR equivalence
ENCODING 8801
SWIDTH 608 0
DWIDTH 21 0
BBX 21 8 0 6
BITMAP
FFFFF8
FFFFF8
000000
FFFFF8
FFFFF8
000000
FFFFF8
FFFFF8
ENDCHAR
STARTCHAR uni2262
ENCODING 8802
SWIDTH 608 0
DWIDTH 21 0
BBX 22 32 0 -6
BITMAP
00000C
000018
000030
000030
000060
0000E0
0000C0
000180
000180
000300
000600
000600
FFFFF8
FFFFF8
001800
FFFFF8
FFFFF8
006000
FFFFF8
FFFFF8
018000
018000
030000
060000
060000
0C0000
1C0000
180000
300000
300000
600000
C00000
ENDCHAR
STARTCHAR lessequal
ENCODING 8804
SWIDTH 608 0
DWIDTH 21 0
BBX 22 24 2 -3
BITMAP
000004
00001C
000078
0001E0
000780
001C00
007000
03C000
0F0000
3C0000
F00000
3C0000
0E0000
078000
01E000
007800
003C00
000F00
0003C0
0000C0
000040
000000
FFFFFC
FFFFFC
ENDCHAR
STARTCHAR greaterequal
ENCODING 8805
SWIDTH 608 0
DWIDTH 21 0
BBX 22 24 0 -3
BITMAP
080000
0C0000
0F0000
03C000
00F000
007800
001E00
000780
0001C0
0000F0
00003C
0000F0
0003C0
000F00
003800
00E000
038000
1E0000
780000
E00000
800000
000000
FFFFFC
FFFFFC
ENDCHAR
STARTCHAR uni226E
ENCODING 8814
SWIDTH 608 0
DWIDTH 21 0
BBX 22 32 2 -5
BITMAP
00000C
000018
000030
000030
000060
0000E0
0000C4
00019C
0001F8
0003E0
000780
001E00
007C00
03DC00
0F1800
3C3000
F03000
3C6000
0EE000
07C000
01E000
01F800
033C00
060F00
0603C0
0C00C0
1C0040
180000
300000
300000
600000
C00000
ENDCHAR
STARTCHAR uni226F
ENCODING 8815
SWIDTH 608 0
DWIDTH 21 0
BBX 22 32 0 -5
BITMAP
00000C
000018
000030
000030
000060
0000E0
0800C0
0C0180
0F0180
03C300
00F600
007E00
001E00
001F80
0019C0
0030F0
00303C
0060F0
00E3C0
00CF00
01B800
01E000
038000
1E0000
7E0000
EC0000
9C0000
180000
300000
300000
600000
C00000
ENDCHAR
STARTCHAR uni2270
ENCODING 8816
SWIDTH 608 0
DWIDTH 21 0
BBX 22 32 2 -7
BITMAP
00000C
000018
000030
000030
000064
0000FC
0000F8
0001E0
000780
001F00
007600
03C600
0F0C00
3C1C00
F01800
3C3000
0E3000
07E000
01E000
00F800
01BC00
018F00
0303C0
0600C0
060040
0C0000
FFFFFC
FFFFFC
300000
300000
600000
C00000
ENDCHAR
STARTCHAR uni2271
ENCODING 8817
SWIDTH 608 0
DWIDTH 21 0
BBX 22 32 0 -7
BITMAP
00000C
000018
000030
000030
080060
0C00E0
0F00C0
03C180
00F180
007B00
001E00
000780
000DC0
001CF0
00183C
0030F0
0033C0
006F00
00F800
00E000
038000
1F8000
7B0000
E60000
860000
0C0000
FFFFFC
FFFFFC
300000
300000
600000
C00000
ENDCHAR
STARTCHAR fi
ENCODING -1
SWIDTH 633 0
DWIDTH 21 0
BBX 21 34 2 -7
BITMAP
003F00
004700
00C238
018278
038670
038000
038000
070000
070000
3FFFF0
0700E0
0F00E0
0E00E0
0E01E0
0E01E0
0E01C0
1E01C0
1C01C0
1C03C0
1C03C0
1C0380
3C0380
3C0380
380780
380780
380780
7807E0
780000
700000
700000
700000
F00000
F00000
E00000
ENDCHAR
STARTCHAR fl
ENCODING -1
SWIDTH 645 0
DWIDTH 22 0
BBX 21 34 3 -7
BITMAP
001FF8
0061F8
00C078
018070
038070
038070
038070
0700F0
0700E0
3FF8E0
0F00E0
0F00E0
0E01E0
0E01C0
0E01C0
0E01C0
1E01C0
1C03C0
1C0380
1C0380
1C0380
3C0380
380780
380780
380700
380700
7807E0
780000
700000
700000
700000
F00000
F00000
E00000
ENDCHAR
ENDFONT
